<svg width="400" height="120" viewBox="0 0 400 120" fill="none" xmlns="http://www.w3.org/2000/svg">
<g clip-path="url(#clip0_2169_7230)">
<path d="M38.9238 99H397.008" stroke="black" stroke-width="0.598802"/>
<path d="M38.9219 102.6V99.0005" stroke="black" stroke-width="0.598802"/>
<path d="M33.3814 113.082C33.5314 113.082 33.6574 113.064 33.7594 113.028C33.8614 112.992 33.9424 112.944 34.0024 112.884C34.0644 112.824 34.1084 112.754 34.1344 112.674C34.1624 112.594 34.1764 112.509 34.1764 112.419C34.1764 112.325 34.1614 112.241 34.1314 112.167C34.1014 112.091 34.0544 112.027 33.9904 111.975C33.9264 111.921 33.8434 111.88 33.7414 111.852C33.6414 111.824 33.5204 111.81 33.3784 111.81H32.5654V113.082H33.3814ZM32.5654 109.998V111.252H33.2074C33.4834 111.252 33.6914 111.202 33.8314 111.102C33.9734 111.002 34.0444 110.843 34.0444 110.625C34.0444 110.399 33.9804 110.238 33.8524 110.142C33.7244 110.046 33.5244 109.998 33.2524 109.998H32.5654ZM33.2524 109.374C33.5364 109.374 33.7794 109.401 33.9814 109.455C34.1834 109.509 34.3484 109.586 34.4764 109.686C34.6064 109.786 34.7014 109.907 34.7614 110.049C34.8214 110.191 34.8514 110.351 34.8514 110.529C34.8514 110.631 34.8364 110.729 34.8064 110.823C34.7764 110.915 34.7294 111.002 34.6654 111.084C34.6034 111.164 34.5234 111.237 34.4254 111.303C34.3294 111.369 34.2144 111.425 34.0804 111.471C34.6764 111.605 34.9744 111.927 34.9744 112.437C34.9744 112.621 34.9394 112.791 34.8694 112.947C34.7994 113.103 34.6974 113.238 34.5634 113.352C34.4294 113.464 34.2644 113.552 34.0684 113.616C33.8724 113.68 33.6484 113.712 33.3964 113.712H31.7584V109.374H33.2524ZM37.5326 111.819C37.5326 111.723 37.5186 111.633 37.4906 111.549C37.4646 111.463 37.4246 111.388 37.3706 111.324C37.3166 111.26 37.2476 111.21 37.1636 111.174C37.0816 111.136 36.9856 111.117 36.8756 111.117C36.6616 111.117 36.4926 111.178 36.3686 111.3C36.2466 111.422 36.1686 111.595 36.1346 111.819H37.5326ZM36.1196 112.266C36.1316 112.424 36.1596 112.561 36.2036 112.677C36.2476 112.791 36.3056 112.886 36.3776 112.962C36.4496 113.036 36.5346 113.092 36.6326 113.13C36.7326 113.166 36.8426 113.184 36.9626 113.184C37.0826 113.184 37.1856 113.17 37.2716 113.142C37.3596 113.114 37.4356 113.083 37.4996 113.049C37.5656 113.015 37.6226 112.984 37.6706 112.956C37.7206 112.928 37.7686 112.914 37.8146 112.914C37.8766 112.914 37.9226 112.937 37.9526 112.983L38.1656 113.253C38.0836 113.349 37.9916 113.43 37.8896 113.496C37.7876 113.56 37.6806 113.612 37.5686 113.652C37.4586 113.69 37.3456 113.717 37.2296 113.733C37.1156 113.749 37.0046 113.757 36.8966 113.757C36.6826 113.757 36.4836 113.722 36.2996 113.652C36.1156 113.58 35.9556 113.475 35.8196 113.337C35.6836 113.197 35.5766 113.025 35.4986 112.821C35.4206 112.615 35.3816 112.377 35.3816 112.107C35.3816 111.897 35.4156 111.7 35.4836 111.516C35.5516 111.33 35.6486 111.169 35.7746 111.033C35.9026 110.895 36.0576 110.786 36.2396 110.706C36.4236 110.626 36.6306 110.586 36.8606 110.586C37.0546 110.586 37.2336 110.617 37.3976 110.679C37.5616 110.741 37.7026 110.832 37.8206 110.952C37.9386 111.07 38.0306 111.216 38.0966 111.39C38.1646 111.562 38.1986 111.759 38.1986 111.981C38.1986 112.093 38.1866 112.169 38.1626 112.209C38.1386 112.247 38.0926 112.266 38.0246 112.266H36.1196ZM40.3807 112.398C40.1667 112.408 39.9867 112.427 39.8407 112.455C39.6947 112.481 39.5777 112.515 39.4897 112.557C39.4017 112.599 39.3387 112.648 39.3007 112.704C39.2627 112.76 39.2437 112.821 39.2437 112.887C39.2437 113.017 39.2817 113.11 39.3577 113.166C39.4357 113.222 39.5367 113.25 39.6607 113.25C39.8127 113.25 39.9437 113.223 40.0537 113.169C40.1657 113.113 40.2747 113.029 40.3807 112.917V112.398ZM38.6827 111.063C39.0367 110.739 39.4627 110.577 39.9607 110.577C40.1407 110.577 40.3017 110.607 40.4437 110.667C40.5857 110.725 40.7057 110.807 40.8037 110.913C40.9017 111.017 40.9757 111.142 41.0257 111.288C41.0777 111.434 41.1037 111.594 41.1037 111.768V113.712H40.7677C40.6977 113.712 40.6437 113.702 40.6057 113.682C40.5677 113.66 40.5377 113.617 40.5157 113.553L40.4497 113.331C40.3717 113.401 40.2957 113.463 40.2217 113.517C40.1477 113.569 40.0707 113.613 39.9907 113.649C39.9107 113.685 39.8247 113.712 39.7327 113.73C39.6427 113.75 39.5427 113.76 39.4327 113.76C39.3027 113.76 39.1827 113.743 39.0727 113.709C38.9627 113.673 38.8677 113.62 38.7877 113.55C38.7077 113.48 38.6457 113.393 38.6017 113.289C38.5577 113.185 38.5357 113.064 38.5357 112.926C38.5357 112.848 38.5487 112.771 38.5747 112.695C38.6007 112.617 38.6427 112.543 38.7007 112.473C38.7607 112.403 38.8377 112.337 38.9317 112.275C39.0257 112.213 39.1407 112.159 39.2767 112.113C39.4147 112.067 39.5747 112.03 39.7567 112.002C39.9387 111.972 40.1467 111.954 40.3807 111.948V111.768C40.3807 111.562 40.3367 111.41 40.2487 111.312C40.1607 111.212 40.0337 111.162 39.8677 111.162C39.7477 111.162 39.6477 111.176 39.5677 111.204C39.4897 111.232 39.4207 111.264 39.3607 111.3C39.3007 111.334 39.2457 111.365 39.1957 111.393C39.1477 111.421 39.0937 111.435 39.0337 111.435C38.9817 111.435 38.9377 111.422 38.9017 111.396C38.8657 111.368 38.8367 111.336 38.8147 111.3L38.6827 111.063ZM42.4945 111.012C42.5565 110.95 42.6215 110.893 42.6895 110.841C42.7595 110.787 42.8325 110.742 42.9085 110.706C42.9865 110.668 43.0695 110.639 43.1575 110.619C43.2455 110.597 43.3415 110.586 43.4455 110.586C43.6135 110.586 43.7625 110.615 43.8925 110.673C44.0225 110.729 44.1305 110.809 44.2165 110.913C44.3045 111.015 44.3705 111.138 44.4145 111.282C44.4605 111.424 44.4835 111.581 44.4835 111.753V113.712H43.7425V111.753C43.7425 111.565 43.6995 111.42 43.6135 111.318C43.5275 111.214 43.3965 111.162 43.2205 111.162C43.0925 111.162 42.9725 111.191 42.8605 111.249C42.7485 111.307 42.6425 111.386 42.5425 111.486V113.712H41.8015V110.634H42.2545C42.3505 110.634 42.4135 110.679 42.4435 110.769L42.4945 111.012ZM47.0663 111.234C47.0463 111.266 47.0253 111.289 47.0033 111.303C46.9813 111.315 46.9533 111.321 46.9193 111.321C46.8833 111.321 46.8443 111.311 46.8023 111.291C46.7623 111.271 46.7153 111.249 46.6613 111.225C46.6073 111.199 46.5453 111.176 46.4753 111.156C46.4073 111.136 46.3263 111.126 46.2323 111.126C46.0863 111.126 45.9713 111.157 45.8873 111.219C45.8053 111.281 45.7643 111.362 45.7643 111.462C45.7643 111.528 45.7853 111.584 45.8273 111.63C45.8713 111.674 45.9283 111.713 45.9983 111.747C46.0703 111.781 46.1513 111.812 46.2413 111.84C46.3313 111.866 46.4223 111.895 46.5143 111.927C46.6083 111.959 46.7003 111.996 46.7903 112.038C46.8803 112.078 46.9603 112.13 47.0303 112.194C47.1023 112.256 47.1593 112.331 47.2013 112.419C47.2453 112.507 47.2673 112.613 47.2673 112.737C47.2673 112.885 47.2403 113.022 47.1863 113.148C47.1343 113.272 47.0563 113.38 46.9523 113.472C46.8483 113.562 46.7193 113.633 46.5653 113.685C46.4133 113.735 46.2373 113.76 46.0373 113.76C45.9313 113.76 45.8273 113.75 45.7253 113.73C45.6253 113.712 45.5283 113.686 45.4343 113.652C45.3423 113.618 45.2563 113.578 45.1763 113.532C45.0983 113.486 45.0293 113.436 44.9693 113.382L45.1403 113.1C45.1623 113.066 45.1883 113.04 45.2183 113.022C45.2483 113.004 45.2863 112.995 45.3323 112.995C45.3783 112.995 45.4213 113.008 45.4613 113.034C45.5033 113.06 45.5513 113.088 45.6053 113.118C45.6593 113.148 45.7223 113.176 45.7943 113.202C45.8683 113.228 45.9613 113.241 46.0733 113.241C46.1613 113.241 46.2363 113.231 46.2983 113.211C46.3623 113.189 46.4143 113.161 46.4543 113.127C46.4963 113.093 46.5263 113.054 46.5443 113.01C46.5643 112.964 46.5743 112.917 46.5743 112.869C46.5743 112.797 46.5523 112.738 46.5083 112.692C46.4663 112.646 46.4093 112.606 46.3373 112.572C46.2673 112.538 46.1863 112.508 46.0943 112.482C46.0043 112.454 45.9113 112.424 45.8153 112.392C45.7213 112.36 45.6283 112.323 45.5363 112.281C45.4463 112.237 45.3653 112.182 45.2933 112.116C45.2233 112.05 45.1663 111.969 45.1223 111.873C45.0803 111.777 45.0593 111.661 45.0593 111.525C45.0593 111.399 45.0843 111.279 45.1343 111.165C45.1843 111.051 45.2573 110.952 45.3533 110.868C45.4513 110.782 45.5723 110.714 45.7163 110.664C45.8623 110.612 46.0303 110.586 46.2203 110.586C46.4323 110.586 46.6253 110.621 46.7993 110.691C46.9733 110.761 47.1183 110.853 47.2343 110.967L47.0663 111.234Z" fill="#8F8F8F"/>
<path d="M128.441 102.6V99.0005" stroke="black" stroke-width="0.598802"/>
<path d="M125.461 112.032V113.712H124.657V112.032L123.076 109.374H123.787C123.857 109.374 123.912 109.391 123.952 109.425C123.994 109.459 124.029 109.502 124.057 109.554L124.849 111.003C124.895 111.089 124.935 111.17 124.969 111.246C125.005 111.322 125.037 111.398 125.065 111.474C125.091 111.398 125.121 111.322 125.155 111.246C125.189 111.17 125.228 111.089 125.272 111.003L126.061 109.554C126.083 109.51 126.116 109.469 126.16 109.431C126.204 109.393 126.26 109.374 126.328 109.374H127.042L125.461 112.032ZM128.318 112.398C128.104 112.408 127.924 112.427 127.778 112.455C127.632 112.481 127.515 112.515 127.427 112.557C127.339 112.599 127.276 112.648 127.238 112.704C127.2 112.76 127.181 112.821 127.181 112.887C127.181 113.017 127.219 113.11 127.295 113.166C127.373 113.222 127.474 113.25 127.598 113.25C127.75 113.25 127.881 113.223 127.991 113.169C128.103 113.113 128.212 113.029 128.318 112.917V112.398ZM126.62 111.063C126.974 110.739 127.4 110.577 127.898 110.577C128.078 110.577 128.239 110.607 128.381 110.667C128.523 110.725 128.643 110.807 128.741 110.913C128.839 111.017 128.913 111.142 128.963 111.288C129.015 111.434 129.041 111.594 129.041 111.768V113.712H128.705C128.635 113.712 128.581 113.702 128.543 113.682C128.505 113.66 128.475 113.617 128.453 113.553L128.387 113.331C128.309 113.401 128.233 113.463 128.159 113.517C128.085 113.569 128.008 113.613 127.928 113.649C127.848 113.685 127.762 113.712 127.67 113.73C127.58 113.75 127.48 113.76 127.37 113.76C127.24 113.76 127.12 113.743 127.01 113.709C126.9 113.673 126.805 113.62 126.725 113.55C126.645 113.48 126.583 113.393 126.539 113.289C126.495 113.185 126.473 113.064 126.473 112.926C126.473 112.848 126.486 112.771 126.512 112.695C126.538 112.617 126.58 112.543 126.638 112.473C126.698 112.403 126.775 112.337 126.869 112.275C126.963 112.213 127.078 112.159 127.214 112.113C127.352 112.067 127.512 112.03 127.694 112.002C127.876 111.972 128.084 111.954 128.318 111.948V111.768C128.318 111.562 128.274 111.41 128.186 111.312C128.098 111.212 127.971 111.162 127.805 111.162C127.685 111.162 127.585 111.176 127.505 111.204C127.427 111.232 127.358 111.264 127.298 111.3C127.238 111.334 127.183 111.365 127.133 111.393C127.085 111.421 127.031 111.435 126.971 111.435C126.919 111.435 126.875 111.422 126.839 111.396C126.803 111.368 126.774 111.336 126.752 111.3L126.62 111.063ZM129.739 113.712V110.634H130.192C130.288 110.634 130.351 110.679 130.381 110.769L130.429 110.997C130.483 110.937 130.539 110.882 130.597 110.832C130.657 110.782 130.72 110.739 130.786 110.703C130.854 110.667 130.926 110.639 131.002 110.619C131.08 110.597 131.165 110.586 131.257 110.586C131.451 110.586 131.61 110.639 131.734 110.745C131.86 110.849 131.954 110.988 132.016 111.162C132.064 111.06 132.124 110.973 132.196 110.901C132.268 110.827 132.347 110.767 132.433 110.721C132.519 110.675 132.61 110.641 132.706 110.619C132.804 110.597 132.902 110.586 133 110.586C133.17 110.586 133.321 110.612 133.453 110.664C133.585 110.716 133.696 110.792 133.786 110.892C133.876 110.992 133.944 111.114 133.99 111.258C134.038 111.402 134.062 111.567 134.062 111.753V113.712H133.321V111.753C133.321 111.557 133.278 111.41 133.192 111.312C133.106 111.212 132.98 111.162 132.814 111.162C132.738 111.162 132.667 111.175 132.601 111.201C132.537 111.227 132.48 111.265 132.43 111.315C132.382 111.363 132.344 111.424 132.316 111.498C132.288 111.572 132.274 111.657 132.274 111.753V113.712H131.53V111.753C131.53 111.547 131.488 111.397 131.404 111.303C131.322 111.209 131.201 111.162 131.041 111.162C130.933 111.162 130.832 111.189 130.738 111.243C130.646 111.295 130.56 111.367 130.48 111.459V113.712H129.739Z" fill="#8F8F8F"/>
<path d="M217.965 102.6V99.0005" stroke="black" stroke-width="0.598802"/>
<path d="M208.218 111.537V113.292C207.998 113.454 207.763 113.573 207.513 113.649C207.265 113.723 206.999 113.76 206.715 113.76C206.361 113.76 206.04 113.705 205.752 113.595C205.466 113.485 205.221 113.332 205.017 113.136C204.815 112.94 204.659 112.706 204.549 112.434C204.439 112.162 204.384 111.865 204.384 111.543C204.384 111.217 204.437 110.918 204.543 110.646C204.649 110.374 204.799 110.14 204.993 109.944C205.189 109.748 205.426 109.596 205.704 109.488C205.982 109.38 206.294 109.326 206.64 109.326C206.816 109.326 206.98 109.34 207.132 109.368C207.286 109.396 207.428 109.435 207.558 109.485C207.69 109.533 207.81 109.592 207.918 109.662C208.026 109.732 208.125 109.809 208.215 109.893L207.984 110.259C207.948 110.317 207.901 110.353 207.843 110.367C207.785 110.379 207.722 110.364 207.654 110.322C207.588 110.284 207.522 110.246 207.456 110.208C207.39 110.17 207.316 110.137 207.234 110.109C207.154 110.081 207.063 110.058 206.961 110.04C206.861 110.022 206.745 110.013 206.613 110.013C206.399 110.013 206.205 110.049 206.031 110.121C205.859 110.193 205.712 110.296 205.59 110.43C205.468 110.564 205.374 110.725 205.308 110.913C205.242 111.101 205.209 111.311 205.209 111.543C205.209 111.791 205.244 112.013 205.314 112.209C205.386 112.403 205.486 112.568 205.614 112.704C205.744 112.838 205.9 112.941 206.082 113.013C206.264 113.083 206.467 113.118 206.691 113.118C206.851 113.118 206.994 113.101 207.12 113.067C207.246 113.033 207.369 112.987 207.489 112.929V112.143H206.943C206.891 112.143 206.85 112.129 206.82 112.101C206.792 112.071 206.778 112.035 206.778 111.993V111.537H208.218ZM210.206 110.586C210.434 110.586 210.641 110.623 210.827 110.697C211.015 110.771 211.175 110.876 211.307 111.012C211.441 111.148 211.544 111.314 211.616 111.51C211.688 111.706 211.724 111.925 211.724 112.167C211.724 112.411 211.688 112.631 211.616 112.827C211.544 113.023 211.441 113.19 211.307 113.328C211.175 113.466 211.015 113.572 210.827 113.646C210.641 113.72 210.434 113.757 210.206 113.757C209.976 113.757 209.767 113.72 209.579 113.646C209.391 113.572 209.23 113.466 209.096 113.328C208.964 113.19 208.861 113.023 208.787 112.827C208.715 112.631 208.679 112.411 208.679 112.167C208.679 111.925 208.715 111.706 208.787 111.51C208.861 111.314 208.964 111.148 209.096 111.012C209.23 110.876 209.391 110.771 209.579 110.697C209.767 110.623 209.976 110.586 210.206 110.586ZM210.206 113.187C210.462 113.187 210.651 113.101 210.773 112.929C210.897 112.757 210.959 112.505 210.959 112.173C210.959 111.841 210.897 111.588 210.773 111.414C210.651 111.24 210.462 111.153 210.206 111.153C209.946 111.153 209.753 111.241 209.627 111.417C209.503 111.591 209.441 111.843 209.441 112.173C209.441 112.503 209.503 112.755 209.627 112.929C209.753 113.101 209.946 113.187 210.206 113.187ZM213.915 112.398C213.701 112.408 213.521 112.427 213.375 112.455C213.229 112.481 213.112 112.515 213.024 112.557C212.936 112.599 212.873 112.648 212.835 112.704C212.797 112.76 212.778 112.821 212.778 112.887C212.778 113.017 212.816 113.11 212.892 113.166C212.97 113.222 213.071 113.25 213.195 113.25C213.347 113.25 213.478 113.223 213.588 113.169C213.7 113.113 213.809 113.029 213.915 112.917V112.398ZM212.217 111.063C212.571 110.739 212.997 110.577 213.495 110.577C213.675 110.577 213.836 110.607 213.978 110.667C214.12 110.725 214.24 110.807 214.338 110.913C214.436 111.017 214.51 111.142 214.56 111.288C214.612 111.434 214.638 111.594 214.638 111.768V113.712H214.302C214.232 113.712 214.178 113.702 214.14 113.682C214.102 113.66 214.072 113.617 214.05 113.553L213.984 113.331C213.906 113.401 213.83 113.463 213.756 113.517C213.682 113.569 213.605 113.613 213.525 113.649C213.445 113.685 213.359 113.712 213.267 113.73C213.177 113.75 213.077 113.76 212.967 113.76C212.837 113.76 212.717 113.743 212.607 113.709C212.497 113.673 212.402 113.62 212.322 113.55C212.242 113.48 212.18 113.393 212.136 113.289C212.092 113.185 212.07 113.064 212.07 112.926C212.07 112.848 212.083 112.771 212.109 112.695C212.135 112.617 212.177 112.543 212.235 112.473C212.295 112.403 212.372 112.337 212.466 112.275C212.56 112.213 212.675 112.159 212.811 112.113C212.949 112.067 213.109 112.03 213.291 112.002C213.473 111.972 213.681 111.954 213.915 111.948V111.768C213.915 111.562 213.871 111.41 213.783 111.312C213.695 111.212 213.568 111.162 213.402 111.162C213.282 111.162 213.182 111.176 213.102 111.204C213.024 111.232 212.955 111.264 212.895 111.3C212.835 111.334 212.78 111.365 212.73 111.393C212.682 111.421 212.628 111.435 212.568 111.435C212.516 111.435 212.472 111.422 212.436 111.396C212.4 111.368 212.371 111.336 212.349 111.3L212.217 111.063ZM216.321 113.76C216.053 113.76 215.847 113.685 215.703 113.535C215.561 113.383 215.49 113.174 215.49 112.908V111.189H215.175C215.135 111.189 215.101 111.176 215.073 111.15C215.045 111.124 215.031 111.085 215.031 111.033V110.739L215.526 110.658L215.682 109.818C215.692 109.778 215.711 109.747 215.739 109.725C215.767 109.703 215.803 109.692 215.847 109.692H216.231V110.661H217.053V111.189H216.231V112.857C216.231 112.953 216.254 113.028 216.3 113.082C216.348 113.136 216.413 113.163 216.495 113.163C216.541 113.163 216.579 113.158 216.609 113.148C216.641 113.136 216.668 113.124 216.69 113.112C216.714 113.1 216.735 113.089 216.753 113.079C216.771 113.067 216.789 113.061 216.807 113.061C216.829 113.061 216.847 113.067 216.861 113.079C216.875 113.089 216.89 113.105 216.906 113.127L217.128 113.487C217.02 113.577 216.896 113.645 216.756 113.691C216.616 113.737 216.471 113.76 216.321 113.76ZM218.986 113.712V110.634H219.439C219.535 110.634 219.598 110.679 219.628 110.769L219.676 110.997C219.73 110.937 219.786 110.882 219.844 110.832C219.904 110.782 219.967 110.739 220.033 110.703C220.101 110.667 220.173 110.639 220.249 110.619C220.327 110.597 220.412 110.586 220.504 110.586C220.698 110.586 220.857 110.639 220.981 110.745C221.107 110.849 221.201 110.988 221.263 111.162C221.311 111.06 221.371 110.973 221.443 110.901C221.515 110.827 221.594 110.767 221.68 110.721C221.766 110.675 221.857 110.641 221.953 110.619C222.051 110.597 222.149 110.586 222.247 110.586C222.417 110.586 222.568 110.612 222.7 110.664C222.832 110.716 222.943 110.792 223.033 110.892C223.123 110.992 223.191 111.114 223.237 111.258C223.285 111.402 223.309 111.567 223.309 111.753V113.712H222.568V111.753C222.568 111.557 222.525 111.41 222.439 111.312C222.353 111.212 222.227 111.162 222.061 111.162C221.985 111.162 221.914 111.175 221.848 111.201C221.784 111.227 221.727 111.265 221.677 111.315C221.629 111.363 221.591 111.424 221.563 111.498C221.535 111.572 221.521 111.657 221.521 111.753V113.712H220.777V111.753C220.777 111.547 220.735 111.397 220.651 111.303C220.569 111.209 220.448 111.162 220.288 111.162C220.18 111.162 220.079 111.189 219.985 111.243C219.893 111.295 219.807 111.367 219.727 111.459V113.712H218.986ZM225.996 111.819C225.996 111.723 225.982 111.633 225.954 111.549C225.928 111.463 225.888 111.388 225.834 111.324C225.78 111.26 225.711 111.21 225.627 111.174C225.545 111.136 225.449 111.117 225.339 111.117C225.125 111.117 224.956 111.178 224.832 111.3C224.71 111.422 224.632 111.595 224.598 111.819H225.996ZM224.583 112.266C224.595 112.424 224.623 112.561 224.667 112.677C224.711 112.791 224.769 112.886 224.841 112.962C224.913 113.036 224.998 113.092 225.096 113.13C225.196 113.166 225.306 113.184 225.426 113.184C225.546 113.184 225.649 113.17 225.735 113.142C225.823 113.114 225.899 113.083 225.963 113.049C226.029 113.015 226.086 112.984 226.134 112.956C226.184 112.928 226.232 112.914 226.278 112.914C226.34 112.914 226.386 112.937 226.416 112.983L226.629 113.253C226.547 113.349 226.455 113.43 226.353 113.496C226.251 113.56 226.144 113.612 226.032 113.652C225.922 113.69 225.809 113.717 225.693 113.733C225.579 113.749 225.468 113.757 225.36 113.757C225.146 113.757 224.947 113.722 224.763 113.652C224.579 113.58 224.419 113.475 224.283 113.337C224.147 113.197 224.04 113.025 223.962 112.821C223.884 112.615 223.845 112.377 223.845 112.107C223.845 111.897 223.879 111.7 223.947 111.516C224.015 111.33 224.112 111.169 224.238 111.033C224.366 110.895 224.521 110.786 224.703 110.706C224.887 110.626 225.094 110.586 225.324 110.586C225.518 110.586 225.697 110.617 225.861 110.679C226.025 110.741 226.166 110.832 226.284 110.952C226.402 111.07 226.494 111.216 226.56 111.39C226.628 111.562 226.662 111.759 226.662 111.981C226.662 112.093 226.65 112.169 226.626 112.209C226.602 112.247 226.556 112.266 226.488 112.266H224.583ZM228.845 112.398C228.631 112.408 228.451 112.427 228.305 112.455C228.159 112.481 228.042 112.515 227.954 112.557C227.866 112.599 227.803 112.648 227.765 112.704C227.727 112.76 227.708 112.821 227.708 112.887C227.708 113.017 227.746 113.11 227.822 113.166C227.9 113.222 228.001 113.25 228.125 113.25C228.277 113.25 228.408 113.223 228.518 113.169C228.63 113.113 228.739 113.029 228.845 112.917V112.398ZM227.147 111.063C227.501 110.739 227.927 110.577 228.425 110.577C228.605 110.577 228.766 110.607 228.908 110.667C229.05 110.725 229.17 110.807 229.268 110.913C229.366 111.017 229.44 111.142 229.49 111.288C229.542 111.434 229.568 111.594 229.568 111.768V113.712H229.232C229.162 113.712 229.108 113.702 229.07 113.682C229.032 113.66 229.002 113.617 228.98 113.553L228.914 113.331C228.836 113.401 228.76 113.463 228.686 113.517C228.612 113.569 228.535 113.613 228.455 113.649C228.375 113.685 228.289 113.712 228.197 113.73C228.107 113.75 228.007 113.76 227.897 113.76C227.767 113.76 227.647 113.743 227.537 113.709C227.427 113.673 227.332 113.62 227.252 113.55C227.172 113.48 227.11 113.393 227.066 113.289C227.022 113.185 227 113.064 227 112.926C227 112.848 227.013 112.771 227.039 112.695C227.065 112.617 227.107 112.543 227.165 112.473C227.225 112.403 227.302 112.337 227.396 112.275C227.49 112.213 227.605 112.159 227.741 112.113C227.879 112.067 228.039 112.03 228.221 112.002C228.403 111.972 228.611 111.954 228.845 111.948V111.768C228.845 111.562 228.801 111.41 228.713 111.312C228.625 111.212 228.498 111.162 228.332 111.162C228.212 111.162 228.112 111.176 228.032 111.204C227.954 111.232 227.885 111.264 227.825 111.3C227.765 111.334 227.71 111.365 227.66 111.393C227.612 111.421 227.558 111.435 227.498 111.435C227.446 111.435 227.402 111.422 227.366 111.396C227.33 111.368 227.301 111.336 227.279 111.3L227.147 111.063ZM231.25 113.76C230.982 113.76 230.776 113.685 230.632 113.535C230.49 113.383 230.419 113.174 230.419 112.908V111.189H230.104C230.064 111.189 230.03 111.176 230.002 111.15C229.974 111.124 229.96 111.085 229.96 111.033V110.739L230.455 110.658L230.611 109.818C230.621 109.778 230.64 109.747 230.668 109.725C230.696 109.703 230.732 109.692 230.776 109.692H231.16V110.661H231.982V111.189H231.16V112.857C231.16 112.953 231.183 113.028 231.229 113.082C231.277 113.136 231.342 113.163 231.424 113.163C231.47 113.163 231.508 113.158 231.538 113.148C231.57 113.136 231.597 113.124 231.619 113.112C231.643 113.1 231.664 113.089 231.682 113.079C231.7 113.067 231.718 113.061 231.736 113.061C231.758 113.061 231.776 113.067 231.79 113.079C231.804 113.089 231.819 113.105 231.835 113.127L232.057 113.487C231.949 113.577 231.825 113.645 231.685 113.691C231.545 113.737 231.4 113.76 231.25 113.76Z" fill="#8F8F8F"/>
<path d="M307.484 102.6V99.0005" stroke="black" stroke-width="0.598802"/>
<path d="M300.248 112.689C300.292 112.689 300.331 112.706 300.365 112.74L300.683 113.085C300.507 113.303 300.29 113.47 300.032 113.586C299.776 113.702 299.468 113.76 299.108 113.76C298.786 113.76 298.496 113.705 298.238 113.595C297.982 113.485 297.763 113.332 297.581 113.136C297.399 112.94 297.259 112.706 297.161 112.434C297.065 112.162 297.017 111.865 297.017 111.543C297.017 111.217 297.069 110.919 297.173 110.649C297.277 110.377 297.423 110.143 297.611 109.947C297.801 109.751 298.027 109.599 298.289 109.491C298.551 109.381 298.841 109.326 299.159 109.326C299.475 109.326 299.755 109.378 299.999 109.482C300.245 109.586 300.454 109.722 300.626 109.89L300.356 110.265C300.34 110.289 300.319 110.31 300.293 110.328C300.269 110.346 300.235 110.355 300.191 110.355C300.161 110.355 300.13 110.347 300.098 110.331C300.066 110.313 300.031 110.292 299.993 110.268C299.955 110.242 299.911 110.214 299.861 110.184C299.811 110.154 299.753 110.127 299.687 110.103C299.621 110.077 299.544 110.056 299.456 110.04C299.37 110.022 299.27 110.013 299.156 110.013C298.962 110.013 298.784 110.048 298.622 110.118C298.462 110.186 298.324 110.286 298.208 110.418C298.092 110.548 298.002 110.708 297.938 110.898C297.874 111.086 297.842 111.301 297.842 111.543C297.842 111.787 297.876 112.004 297.944 112.194C298.014 112.384 298.108 112.544 298.226 112.674C298.344 112.804 298.483 112.904 298.643 112.974C298.803 113.042 298.975 113.076 299.159 113.076C299.269 113.076 299.368 113.07 299.456 113.058C299.546 113.046 299.628 113.027 299.702 113.001C299.778 112.975 299.849 112.942 299.915 112.902C299.983 112.86 300.05 112.809 300.116 112.749C300.136 112.731 300.157 112.717 300.179 112.707C300.201 112.695 300.224 112.689 300.248 112.689ZM302.745 112.398C302.531 112.408 302.351 112.427 302.205 112.455C302.059 112.481 301.942 112.515 301.854 112.557C301.766 112.599 301.703 112.648 301.665 112.704C301.627 112.76 301.608 112.821 301.608 112.887C301.608 113.017 301.646 113.11 301.722 113.166C301.8 113.222 301.901 113.25 302.025 113.25C302.177 113.25 302.308 113.223 302.418 113.169C302.53 113.113 302.639 113.029 302.745 112.917V112.398ZM301.047 111.063C301.401 110.739 301.827 110.577 302.325 110.577C302.505 110.577 302.666 110.607 302.808 110.667C302.95 110.725 303.07 110.807 303.168 110.913C303.266 111.017 303.34 111.142 303.39 111.288C303.442 111.434 303.468 111.594 303.468 111.768V113.712H303.132C303.062 113.712 303.008 113.702 302.97 113.682C302.932 113.66 302.902 113.617 302.88 113.553L302.814 113.331C302.736 113.401 302.66 113.463 302.586 113.517C302.512 113.569 302.435 113.613 302.355 113.649C302.275 113.685 302.189 113.712 302.097 113.73C302.007 113.75 301.907 113.76 301.797 113.76C301.667 113.76 301.547 113.743 301.437 113.709C301.327 113.673 301.232 113.62 301.152 113.55C301.072 113.48 301.01 113.393 300.966 113.289C300.922 113.185 300.9 113.064 300.9 112.926C300.9 112.848 300.913 112.771 300.939 112.695C300.965 112.617 301.007 112.543 301.065 112.473C301.125 112.403 301.202 112.337 301.296 112.275C301.39 112.213 301.505 112.159 301.641 112.113C301.779 112.067 301.939 112.03 302.121 112.002C302.303 111.972 302.511 111.954 302.745 111.948V111.768C302.745 111.562 302.701 111.41 302.613 111.312C302.525 111.212 302.398 111.162 302.232 111.162C302.112 111.162 302.012 111.176 301.932 111.204C301.854 111.232 301.785 111.264 301.725 111.3C301.665 111.334 301.61 111.365 301.56 111.393C301.512 111.421 301.458 111.435 301.398 111.435C301.346 111.435 301.302 111.422 301.266 111.396C301.23 111.368 301.201 111.336 301.179 111.3L301.047 111.063ZM306.044 111.234C306.024 111.266 306.003 111.289 305.981 111.303C305.959 111.315 305.931 111.321 305.897 111.321C305.861 111.321 305.822 111.311 305.78 111.291C305.74 111.271 305.693 111.249 305.639 111.225C305.585 111.199 305.523 111.176 305.453 111.156C305.385 111.136 305.304 111.126 305.21 111.126C305.064 111.126 304.949 111.157 304.865 111.219C304.783 111.281 304.742 111.362 304.742 111.462C304.742 111.528 304.763 111.584 304.805 111.63C304.849 111.674 304.906 111.713 304.976 111.747C305.048 111.781 305.129 111.812 305.219 111.84C305.309 111.866 305.4 111.895 305.492 111.927C305.586 111.959 305.678 111.996 305.768 112.038C305.858 112.078 305.938 112.13 306.008 112.194C306.08 112.256 306.137 112.331 306.179 112.419C306.223 112.507 306.245 112.613 306.245 112.737C306.245 112.885 306.218 113.022 306.164 113.148C306.112 113.272 306.034 113.38 305.93 113.472C305.826 113.562 305.697 113.633 305.543 113.685C305.391 113.735 305.215 113.76 305.015 113.76C304.909 113.76 304.805 113.75 304.703 113.73C304.603 113.712 304.506 113.686 304.412 113.652C304.32 113.618 304.234 113.578 304.154 113.532C304.076 113.486 304.007 113.436 303.947 113.382L304.118 113.1C304.14 113.066 304.166 113.04 304.196 113.022C304.226 113.004 304.264 112.995 304.31 112.995C304.356 112.995 304.399 113.008 304.439 113.034C304.481 113.06 304.529 113.088 304.583 113.118C304.637 113.148 304.7 113.176 304.772 113.202C304.846 113.228 304.939 113.241 305.051 113.241C305.139 113.241 305.214 113.231 305.276 113.211C305.34 113.189 305.392 113.161 305.432 113.127C305.474 113.093 305.504 113.054 305.522 113.01C305.542 112.964 305.552 112.917 305.552 112.869C305.552 112.797 305.53 112.738 305.486 112.692C305.444 112.646 305.387 112.606 305.315 112.572C305.245 112.538 305.164 112.508 305.072 112.482C304.982 112.454 304.889 112.424 304.793 112.392C304.699 112.36 304.606 112.323 304.514 112.281C304.424 112.237 304.343 112.182 304.271 112.116C304.201 112.05 304.144 111.969 304.1 111.873C304.058 111.777 304.037 111.661 304.037 111.525C304.037 111.399 304.062 111.279 304.112 111.165C304.162 111.051 304.235 110.952 304.331 110.868C304.429 110.782 304.55 110.714 304.694 110.664C304.84 110.612 305.008 110.586 305.198 110.586C305.41 110.586 305.603 110.621 305.777 110.691C305.951 110.761 306.096 110.853 306.212 110.967L306.044 111.234ZM308.681 111.234C308.661 111.266 308.64 111.289 308.618 111.303C308.596 111.315 308.568 111.321 308.534 111.321C308.498 111.321 308.459 111.311 308.417 111.291C308.377 111.271 308.33 111.249 308.276 111.225C308.222 111.199 308.16 111.176 308.09 111.156C308.022 111.136 307.941 111.126 307.847 111.126C307.701 111.126 307.586 111.157 307.502 111.219C307.42 111.281 307.379 111.362 307.379 111.462C307.379 111.528 307.4 111.584 307.442 111.63C307.486 111.674 307.543 111.713 307.613 111.747C307.685 111.781 307.766 111.812 307.856 111.84C307.946 111.866 308.037 111.895 308.129 111.927C308.223 111.959 308.315 111.996 308.405 112.038C308.495 112.078 308.575 112.13 308.645 112.194C308.717 112.256 308.774 112.331 308.816 112.419C308.86 112.507 308.882 112.613 308.882 112.737C308.882 112.885 308.855 113.022 308.801 113.148C308.749 113.272 308.671 113.38 308.567 113.472C308.463 113.562 308.334 113.633 308.18 113.685C308.028 113.735 307.852 113.76 307.652 113.76C307.546 113.76 307.442 113.75 307.34 113.73C307.24 113.712 307.143 113.686 307.049 113.652C306.957 113.618 306.871 113.578 306.791 113.532C306.713 113.486 306.644 113.436 306.584 113.382L306.755 113.1C306.777 113.066 306.803 113.04 306.833 113.022C306.863 113.004 306.901 112.995 306.947 112.995C306.993 112.995 307.036 113.008 307.076 113.034C307.118 113.06 307.166 113.088 307.22 113.118C307.274 113.148 307.337 113.176 307.409 113.202C307.483 113.228 307.576 113.241 307.688 113.241C307.776 113.241 307.851 113.231 307.913 113.211C307.977 113.189 308.029 113.161 308.069 113.127C308.111 113.093 308.141 113.054 308.159 113.01C308.179 112.964 308.189 112.917 308.189 112.869C308.189 112.797 308.167 112.738 308.123 112.692C308.081 112.646 308.024 112.606 307.952 112.572C307.882 112.538 307.801 112.508 307.709 112.482C307.619 112.454 307.526 112.424 307.43 112.392C307.336 112.36 307.243 112.323 307.151 112.281C307.061 112.237 306.98 112.182 306.908 112.116C306.838 112.05 306.781 111.969 306.737 111.873C306.695 111.777 306.674 111.661 306.674 111.525C306.674 111.399 306.699 111.279 306.749 111.165C306.799 111.051 306.872 110.952 306.968 110.868C307.066 110.782 307.187 110.714 307.331 110.664C307.477 110.612 307.645 110.586 307.835 110.586C308.047 110.586 308.24 110.621 308.414 110.691C308.588 110.761 308.733 110.853 308.849 110.967L308.681 111.234ZM311.065 112.398C310.851 112.408 310.671 112.427 310.525 112.455C310.379 112.481 310.262 112.515 310.174 112.557C310.086 112.599 310.023 112.648 309.985 112.704C309.947 112.76 309.928 112.821 309.928 112.887C309.928 113.017 309.966 113.11 310.042 113.166C310.12 113.222 310.221 113.25 310.345 113.25C310.497 113.25 310.628 113.223 310.738 113.169C310.85 113.113 310.959 113.029 311.065 112.917V112.398ZM309.367 111.063C309.721 110.739 310.147 110.577 310.645 110.577C310.825 110.577 310.986 110.607 311.128 110.667C311.27 110.725 311.39 110.807 311.488 110.913C311.586 111.017 311.66 111.142 311.71 111.288C311.762 111.434 311.788 111.594 311.788 111.768V113.712H311.452C311.382 113.712 311.328 113.702 311.29 113.682C311.252 113.66 311.222 113.617 311.2 113.553L311.134 113.331C311.056 113.401 310.98 113.463 310.906 113.517C310.832 113.569 310.755 113.613 310.675 113.649C310.595 113.685 310.509 113.712 310.417 113.73C310.327 113.75 310.227 113.76 310.117 113.76C309.987 113.76 309.867 113.743 309.757 113.709C309.647 113.673 309.552 113.62 309.472 113.55C309.392 113.48 309.33 113.393 309.286 113.289C309.242 113.185 309.22 113.064 309.22 112.926C309.22 112.848 309.233 112.771 309.259 112.695C309.285 112.617 309.327 112.543 309.385 112.473C309.445 112.403 309.522 112.337 309.616 112.275C309.71 112.213 309.825 112.159 309.961 112.113C310.099 112.067 310.259 112.03 310.441 112.002C310.623 111.972 310.831 111.954 311.065 111.948V111.768C311.065 111.562 311.021 111.41 310.933 111.312C310.845 111.212 310.718 111.162 310.552 111.162C310.432 111.162 310.332 111.176 310.252 111.204C310.174 111.232 310.105 111.264 310.045 111.3C309.985 111.334 309.93 111.365 309.88 111.393C309.832 111.421 309.778 111.435 309.718 111.435C309.666 111.435 309.622 111.422 309.586 111.396C309.55 111.368 309.521 111.336 309.499 111.3L309.367 111.063ZM315.191 110.634L313.97 113.712H313.298L312.077 110.634H312.689C312.745 110.634 312.791 110.647 312.827 110.673C312.865 110.699 312.89 110.732 312.902 110.772L313.496 112.416C313.528 112.512 313.556 112.606 313.58 112.698C313.604 112.79 313.625 112.882 313.643 112.974C313.663 112.882 313.685 112.79 313.709 112.698C313.733 112.606 313.762 112.512 313.796 112.416L314.402 110.772C314.416 110.732 314.441 110.699 314.477 110.673C314.513 110.647 314.556 110.634 314.606 110.634H315.191ZM317.136 112.398C316.922 112.408 316.742 112.427 316.596 112.455C316.45 112.481 316.333 112.515 316.245 112.557C316.157 112.599 316.094 112.648 316.056 112.704C316.018 112.76 315.999 112.821 315.999 112.887C315.999 113.017 316.037 113.11 316.113 113.166C316.191 113.222 316.292 113.25 316.416 113.25C316.568 113.25 316.699 113.223 316.809 113.169C316.921 113.113 317.03 113.029 317.136 112.917V112.398ZM315.438 111.063C315.792 110.739 316.218 110.577 316.716 110.577C316.896 110.577 317.057 110.607 317.199 110.667C317.341 110.725 317.461 110.807 317.559 110.913C317.657 111.017 317.731 111.142 317.781 111.288C317.833 111.434 317.859 111.594 317.859 111.768V113.712H317.523C317.453 113.712 317.399 113.702 317.361 113.682C317.323 113.66 317.293 113.617 317.271 113.553L317.205 113.331C317.127 113.401 317.051 113.463 316.977 113.517C316.903 113.569 316.826 113.613 316.746 113.649C316.666 113.685 316.58 113.712 316.488 113.73C316.398 113.75 316.298 113.76 316.188 113.76C316.058 113.76 315.938 113.743 315.828 113.709C315.718 113.673 315.623 113.62 315.543 113.55C315.463 113.48 315.401 113.393 315.357 113.289C315.313 113.185 315.291 113.064 315.291 112.926C315.291 112.848 315.304 112.771 315.33 112.695C315.356 112.617 315.398 112.543 315.456 112.473C315.516 112.403 315.593 112.337 315.687 112.275C315.781 112.213 315.896 112.159 316.032 112.113C316.17 112.067 316.33 112.03 316.512 112.002C316.694 111.972 316.902 111.954 317.136 111.948V111.768C317.136 111.562 317.092 111.41 317.004 111.312C316.916 111.212 316.789 111.162 316.623 111.162C316.503 111.162 316.403 111.176 316.323 111.204C316.245 111.232 316.176 111.264 316.116 111.3C316.056 111.334 316.001 111.365 315.951 111.393C315.903 111.421 315.849 111.435 315.789 111.435C315.737 111.435 315.693 111.422 315.657 111.396C315.621 111.368 315.592 111.336 315.57 111.3L315.438 111.063Z" fill="#8F8F8F"/>
<path d="M397.006 102.6V99.0005" stroke="black" stroke-width="0.598802"/>
<path d="M394.212 110.037H392.904V113.712H392.097V110.037H390.789V109.374H394.212V110.037ZM395.402 110.634V113.712H394.658V110.634H395.402ZM395.504 109.737C395.504 109.801 395.491 109.861 395.465 109.917C395.439 109.973 395.404 110.022 395.36 110.064C395.318 110.106 395.268 110.14 395.21 110.166C395.152 110.19 395.09 110.202 395.024 110.202C394.96 110.202 394.899 110.19 394.841 110.166C394.785 110.14 394.736 110.106 394.694 110.064C394.652 110.022 394.618 109.973 394.592 109.917C394.568 109.861 394.556 109.801 394.556 109.737C394.556 109.671 394.568 109.609 394.592 109.551C394.618 109.493 394.652 109.443 394.694 109.401C394.736 109.359 394.785 109.326 394.841 109.302C394.899 109.276 394.96 109.263 395.024 109.263C395.09 109.263 395.152 109.276 395.21 109.302C395.268 109.326 395.318 109.359 395.36 109.401C395.404 109.443 395.439 109.493 395.465 109.551C395.491 109.609 395.504 109.671 395.504 109.737ZM397.183 113.76C396.915 113.76 396.709 113.685 396.565 113.535C396.423 113.383 396.352 113.174 396.352 112.908V111.189H396.037C395.997 111.189 395.963 111.176 395.935 111.15C395.907 111.124 395.893 111.085 395.893 111.033V110.739L396.388 110.658L396.544 109.818C396.554 109.778 396.573 109.747 396.601 109.725C396.629 109.703 396.665 109.692 396.709 109.692H397.093V110.661H397.915V111.189H397.093V112.857C397.093 112.953 397.116 113.028 397.162 113.082C397.21 113.136 397.275 113.163 397.357 113.163C397.403 113.163 397.441 113.158 397.471 113.148C397.503 113.136 397.53 113.124 397.552 113.112C397.576 113.1 397.597 113.089 397.615 113.079C397.633 113.067 397.651 113.061 397.669 113.061C397.691 113.061 397.709 113.067 397.723 113.079C397.737 113.089 397.752 113.105 397.768 113.127L397.99 113.487C397.882 113.577 397.758 113.645 397.618 113.691C397.478 113.737 397.333 113.76 397.183 113.76ZM401.041 110.634V113.712H400.588C400.49 113.712 400.428 113.667 400.402 113.577L400.351 113.331C400.225 113.459 400.086 113.563 399.934 113.643C399.782 113.721 399.603 113.76 399.397 113.76C399.229 113.76 399.08 113.732 398.95 113.676C398.822 113.618 398.714 113.537 398.626 113.433C398.538 113.329 398.471 113.206 398.425 113.064C398.381 112.92 398.359 112.762 398.359 112.59V110.634H399.1V112.59C399.1 112.778 399.143 112.924 399.229 113.028C399.317 113.13 399.448 113.181 399.622 113.181C399.75 113.181 399.87 113.153 399.982 113.097C400.094 113.039 400.2 112.96 400.3 112.86V110.634H401.041ZM403.654 111.234C403.634 111.266 403.613 111.289 403.591 111.303C403.569 111.315 403.541 111.321 403.507 111.321C403.471 111.321 403.432 111.311 403.39 111.291C403.35 111.271 403.303 111.249 403.249 111.225C403.195 111.199 403.133 111.176 403.063 111.156C402.995 111.136 402.914 111.126 402.82 111.126C402.674 111.126 402.559 111.157 402.475 111.219C402.393 111.281 402.352 111.362 402.352 111.462C402.352 111.528 402.373 111.584 402.415 111.63C402.459 111.674 402.516 111.713 402.586 111.747C402.658 111.781 402.739 111.812 402.829 111.84C402.919 111.866 403.01 111.895 403.102 111.927C403.196 111.959 403.288 111.996 403.378 112.038C403.468 112.078 403.548 112.13 403.618 112.194C403.69 112.256 403.747 112.331 403.789 112.419C403.833 112.507 403.855 112.613 403.855 112.737C403.855 112.885 403.828 113.022 403.774 113.148C403.722 113.272 403.644 113.38 403.54 113.472C403.436 113.562 403.307 113.633 403.153 113.685C403.001 113.735 402.825 113.76 402.625 113.76C402.519 113.76 402.415 113.75 402.313 113.73C402.213 113.712 402.116 113.686 402.022 113.652C401.93 113.618 401.844 113.578 401.764 113.532C401.686 113.486 401.617 113.436 401.557 113.382L401.728 113.1C401.75 113.066 401.776 113.04 401.806 113.022C401.836 113.004 401.874 112.995 401.92 112.995C401.966 112.995 402.009 113.008 402.049 113.034C402.091 113.06 402.139 113.088 402.193 113.118C402.247 113.148 402.31 113.176 402.382 113.202C402.456 113.228 402.549 113.241 402.661 113.241C402.749 113.241 402.824 113.231 402.886 113.211C402.95 113.189 403.002 113.161 403.042 113.127C403.084 113.093 403.114 113.054 403.132 113.01C403.152 112.964 403.162 112.917 403.162 112.869C403.162 112.797 403.14 112.738 403.096 112.692C403.054 112.646 402.997 112.606 402.925 112.572C402.855 112.538 402.774 112.508 402.682 112.482C402.592 112.454 402.499 112.424 402.403 112.392C402.309 112.36 402.216 112.323 402.124 112.281C402.034 112.237 401.953 112.182 401.881 112.116C401.811 112.05 401.754 111.969 401.71 111.873C401.668 111.777 401.647 111.661 401.647 111.525C401.647 111.399 401.672 111.279 401.722 111.165C401.772 111.051 401.845 110.952 401.941 110.868C402.039 110.782 402.16 110.714 402.304 110.664C402.45 110.612 402.618 110.586 402.808 110.586C403.02 110.586 403.213 110.621 403.387 110.691C403.561 110.761 403.706 110.853 403.822 110.967L403.654 111.234Z" fill="#8F8F8F"/>
<path d="M38.9199 3V99" stroke="black" stroke-width="0.598802"/>
<path d="M35.3262 99H38.919" stroke="black" stroke-width="0.598802"/>
<path d="M32.3925 98.1872C32.3925 98.5652 32.3515 98.8942 32.2695 99.1742C32.1895 99.4522 32.0775 99.6822 31.9335 99.8642C31.7915 100.046 31.6225 100.182 31.4265 100.272C31.2325 100.36 31.0225 100.404 30.7965 100.404C30.5705 100.404 30.3605 100.36 30.1665 100.272C29.9745 100.182 29.8075 100.046 29.6655 99.8642C29.5235 99.6822 29.4125 99.4522 29.3325 99.1742C29.2525 98.8942 29.2125 98.5652 29.2125 98.1872C29.2125 97.8072 29.2525 97.4782 29.3325 97.2002C29.4125 96.9222 29.5235 96.6922 29.6655 96.5102C29.8075 96.3282 29.9745 96.1932 30.1665 96.1052C30.3605 96.0152 30.5705 95.9702 30.7965 95.9702C31.0225 95.9702 31.2325 96.0152 31.4265 96.1052C31.6225 96.1932 31.7915 96.3282 31.9335 96.5102C32.0775 96.6922 32.1895 96.9222 32.2695 97.2002C32.3515 97.4782 32.3925 97.8072 32.3925 98.1872ZM31.6275 98.1872C31.6275 97.8732 31.6045 97.6132 31.5585 97.4072C31.5125 97.2012 31.4505 97.0372 31.3725 96.9152C31.2965 96.7932 31.2085 96.7082 31.1085 96.6602C31.0085 96.6102 30.9045 96.5852 30.7965 96.5852C30.6905 96.5852 30.5875 96.6102 30.4875 96.6602C30.3895 96.7082 30.3025 96.7932 30.2265 96.9152C30.1505 97.0372 30.0895 97.2012 30.0435 97.4072C29.9995 97.6132 29.9775 97.8732 29.9775 98.1872C29.9775 98.5012 29.9995 98.7612 30.0435 98.9672C30.0895 99.1732 30.1505 99.3372 30.2265 99.4592C30.3025 99.5812 30.3895 99.6672 30.4875 99.7172C30.5875 99.7652 30.6905 99.7892 30.7965 99.7892C30.9045 99.7892 31.0085 99.7652 31.1085 99.7172C31.2085 99.6672 31.2965 99.5812 31.3725 99.4592C31.4505 99.3372 31.5125 99.1732 31.5585 98.9672C31.6045 98.7612 31.6275 98.5012 31.6275 98.1872Z" fill="#8F8F8F"/>
<path d="M35.3262 75.0002H38.919" stroke="black" stroke-width="0.598802"/>
<path d="M28.0836 75.6662C28.1636 75.6662 28.2266 75.6892 28.2726 75.7352C28.3206 75.7792 28.3446 75.8382 28.3446 75.9122V76.3562H25.3686V76.1102C25.3686 76.0602 25.3786 76.0082 25.3986 75.9542C25.4206 75.8982 25.4546 75.8482 25.5006 75.8042L26.8176 74.4842C26.9276 74.3722 27.0256 74.2652 27.1116 74.1632C27.1996 74.0612 27.2726 73.9602 27.3306 73.8602C27.3886 73.7602 27.4326 73.6592 27.4626 73.5572C27.4946 73.4532 27.5106 73.3442 27.5106 73.2302C27.5106 73.1262 27.4956 73.0352 27.4656 72.9572C27.4356 72.8772 27.3926 72.8102 27.3366 72.7562C27.2826 72.7022 27.2166 72.6622 27.1386 72.6362C27.0626 72.6082 26.9766 72.5942 26.8806 72.5942C26.7926 72.5942 26.7106 72.6072 26.6346 72.6332C26.5606 72.6572 26.4946 72.6922 26.4366 72.7382C26.3786 72.7822 26.3296 72.8342 26.2896 72.8942C26.2496 72.9542 26.2196 73.0202 26.1996 73.0922C26.1656 73.1842 26.1216 73.2452 26.0676 73.2752C26.0136 73.3052 25.9356 73.3122 25.8336 73.2962L25.4436 73.2272C25.4736 73.0192 25.5316 72.8372 25.6176 72.6812C25.7036 72.5232 25.8106 72.3922 25.9386 72.2882C26.0686 72.1822 26.2166 72.1032 26.3826 72.0512C26.5506 71.9972 26.7306 71.9702 26.9226 71.9702C27.1226 71.9702 27.3056 72.0002 27.4716 72.0602C27.6376 72.1182 27.7796 72.2012 27.8976 72.3092C28.0156 72.4172 28.1076 72.5472 28.1736 72.6992C28.2396 72.8512 28.2726 73.0202 28.2726 73.2062C28.2726 73.3662 28.2486 73.5142 28.2006 73.6502C28.1546 73.7862 28.0916 73.9162 28.0116 74.0402C27.9336 74.1642 27.8416 74.2842 27.7356 74.4002C27.6296 74.5162 27.5186 74.6342 27.4026 74.7542L26.4246 75.7532C26.5186 75.7252 26.6116 75.7042 26.7036 75.6902C26.7976 75.6742 26.8866 75.6662 26.9706 75.6662H28.0836ZM29.8391 73.5932C29.9351 73.5732 30.0271 73.5592 30.1151 73.5512C30.2031 73.5412 30.2881 73.5362 30.3701 73.5362C30.5981 73.5362 30.7991 73.5702 30.9731 73.6382C31.1471 73.7062 31.2931 73.8002 31.4111 73.9202C31.5291 74.0402 31.6181 74.1812 31.6781 74.3432C31.7381 74.5032 31.7681 74.6762 31.7681 74.8622C31.7681 75.0922 31.7271 75.3022 31.6451 75.4922C31.5651 75.6822 31.4531 75.8452 31.3091 75.9812C31.1651 76.1152 30.9941 76.2192 30.7961 76.2932C30.6001 76.3672 30.3861 76.4042 30.1541 76.4042C30.0181 76.4042 29.8891 76.3902 29.7671 76.3622C29.6451 76.3342 29.5301 76.2972 29.4221 76.2512C29.3161 76.2032 29.2171 76.1492 29.1251 76.0892C29.0351 76.0272 28.9541 75.9622 28.8821 75.8942L29.1101 75.5792C29.1581 75.5112 29.2211 75.4772 29.2991 75.4772C29.3491 75.4772 29.4001 75.4932 29.4521 75.5252C29.5041 75.5572 29.5631 75.5922 29.6291 75.6302C29.6971 75.6682 29.7761 75.7032 29.8661 75.7352C29.9581 75.7672 30.0681 75.7832 30.1961 75.7832C30.3321 75.7832 30.4521 75.7612 30.5561 75.7172C30.6601 75.6732 30.7461 75.6122 30.8141 75.5342C30.8841 75.4542 30.9361 75.3602 30.9701 75.2522C31.0061 75.1422 31.0241 75.0232 31.0241 74.8952C31.0241 74.6592 30.9551 74.4752 30.8171 74.3432C30.6811 74.2092 30.4791 74.1422 30.2111 74.1422C30.0051 74.1422 29.7941 74.1802 29.5781 74.2562L29.1161 74.1242L29.4761 72.0182H31.6181V72.3332C31.6181 72.4392 31.5851 72.5252 31.5191 72.5912C31.4531 72.6572 31.3411 72.6902 31.1831 72.6902H29.9921L29.8391 73.5932Z" fill="#8F8F8F"/>
<path d="M35.3262 51H38.919" stroke="black" stroke-width="0.598802"/>
<path d="M27.6086 49.593C27.7046 49.573 27.7966 49.559 27.8846 49.551C27.9726 49.541 28.0576 49.536 28.1396 49.536C28.3676 49.536 28.5686 49.57 28.7426 49.638C28.9166 49.706 29.0626 49.8 29.1806 49.92C29.2986 50.04 29.3876 50.181 29.4476 50.343C29.5076 50.503 29.5376 50.676 29.5376 50.862C29.5376 51.092 29.4966 51.302 29.4146 51.492C29.3346 51.682 29.2226 51.845 29.0786 51.981C28.9346 52.115 28.7636 52.219 28.5656 52.293C28.3696 52.367 28.1556 52.404 27.9236 52.404C27.7876 52.404 27.6586 52.39 27.5366 52.362C27.4146 52.334 27.2996 52.297 27.1916 52.251C27.0856 52.203 26.9866 52.149 26.8946 52.089C26.8046 52.027 26.7236 51.962 26.6516 51.894L26.8796 51.579C26.9276 51.511 26.9906 51.477 27.0686 51.477C27.1186 51.477 27.1696 51.493 27.2216 51.525C27.2736 51.557 27.3326 51.592 27.3986 51.63C27.4666 51.668 27.5456 51.703 27.6356 51.735C27.7276 51.767 27.8376 51.783 27.9656 51.783C28.1016 51.783 28.2216 51.761 28.3256 51.717C28.4296 51.673 28.5156 51.612 28.5836 51.534C28.6536 51.454 28.7056 51.36 28.7396 51.252C28.7756 51.142 28.7936 51.023 28.7936 50.895C28.7936 50.659 28.7246 50.475 28.5866 50.343C28.4506 50.209 28.2486 50.142 27.9806 50.142C27.7746 50.142 27.5636 50.18 27.3476 50.256L26.8856 50.124L27.2456 48.018H29.3876V48.333C29.3876 48.439 29.3546 48.525 29.2886 48.591C29.2226 48.657 29.1106 48.69 28.9526 48.69H27.7616L27.6086 49.593ZM33.2011 50.187C33.2011 50.565 33.1601 50.894 33.0781 51.174C32.9981 51.452 32.8861 51.682 32.7421 51.864C32.6001 52.046 32.4311 52.182 32.2351 52.272C32.0411 52.36 31.8311 52.404 31.6051 52.404C31.3791 52.404 31.1691 52.36 30.9751 52.272C30.7831 52.182 30.6161 52.046 30.4741 51.864C30.3321 51.682 30.2211 51.452 30.1411 51.174C30.0611 50.894 30.0211 50.565 30.0211 50.187C30.0211 49.807 30.0611 49.478 30.1411 49.2C30.2211 48.922 30.3321 48.692 30.4741 48.51C30.6161 48.328 30.7831 48.193 30.9751 48.105C31.1691 48.015 31.3791 47.97 31.6051 47.97C31.8311 47.97 32.0411 48.015 32.2351 48.105C32.4311 48.193 32.6001 48.328 32.7421 48.51C32.8861 48.692 32.9981 48.922 33.0781 49.2C33.1601 49.478 33.2011 49.807 33.2011 50.187ZM32.4361 50.187C32.4361 49.873 32.4131 49.613 32.3671 49.407C32.3211 49.201 32.2591 49.037 32.1811 48.915C32.1051 48.793 32.0171 48.708 31.9171 48.66C31.8171 48.61 31.7131 48.585 31.6051 48.585C31.4991 48.585 31.3961 48.61 31.2961 48.66C31.1981 48.708 31.1111 48.793 31.0351 48.915C30.9591 49.037 30.8981 49.201 30.8521 49.407C30.8081 49.613 30.7861 49.873 30.7861 50.187C30.7861 50.501 30.8081 50.761 30.8521 50.967C30.8981 51.173 30.9591 51.337 31.0351 51.459C31.1111 51.581 31.1981 51.667 31.2961 51.717C31.3961 51.765 31.4991 51.789 31.6051 51.789C31.7131 51.789 31.8171 51.765 31.9171 51.717C32.0171 51.667 32.1051 51.581 32.1811 51.459C32.2591 51.337 32.3211 51.173 32.3671 50.967C32.4131 50.761 32.4361 50.501 32.4361 50.187Z" fill="#8F8F8F"/>
<path d="M35.3262 26.9998H38.919" stroke="black" stroke-width="0.598802"/>
<path d="M28.4166 24.018V24.339C28.4166 24.435 28.4066 24.513 28.3866 24.573C28.3666 24.631 28.3466 24.68 28.3266 24.72L26.6826 28.104C26.6486 28.174 26.6006 28.234 26.5386 28.284C26.4766 28.332 26.3936 28.356 26.2896 28.356H25.7526L27.4296 25.041C27.4676 24.973 27.5046 24.911 27.5406 24.855C27.5786 24.797 27.6206 24.742 27.6666 24.69H25.5906C25.5446 24.69 25.5046 24.673 25.4706 24.639C25.4366 24.605 25.4196 24.565 25.4196 24.519V24.018H28.4166ZM29.8391 25.593C29.9351 25.573 30.0271 25.559 30.1151 25.551C30.2031 25.541 30.2881 25.536 30.3701 25.536C30.5981 25.536 30.7991 25.57 30.9731 25.638C31.1471 25.706 31.2931 25.8 31.4111 25.92C31.5291 26.04 31.6181 26.181 31.6781 26.343C31.7381 26.503 31.7681 26.676 31.7681 26.862C31.7681 27.092 31.7271 27.302 31.6451 27.492C31.5651 27.682 31.4531 27.845 31.3091 27.981C31.1651 28.115 30.9941 28.219 30.7961 28.293C30.6001 28.367 30.3861 28.404 30.1541 28.404C30.0181 28.404 29.8891 28.39 29.7671 28.362C29.6451 28.334 29.5301 28.297 29.4221 28.251C29.3161 28.203 29.2171 28.149 29.1251 28.089C29.0351 28.027 28.9541 27.962 28.8821 27.894L29.1101 27.579C29.1581 27.511 29.2211 27.477 29.2991 27.477C29.3491 27.477 29.4001 27.493 29.4521 27.525C29.5041 27.557 29.5631 27.592 29.6291 27.63C29.6971 27.668 29.7761 27.703 29.8661 27.735C29.9581 27.767 30.0681 27.783 30.1961 27.783C30.3321 27.783 30.4521 27.761 30.5561 27.717C30.6601 27.673 30.7461 27.612 30.8141 27.534C30.8841 27.454 30.9361 27.36 30.9701 27.252C31.0061 27.142 31.0241 27.023 31.0241 26.895C31.0241 26.659 30.9551 26.475 30.8171 26.343C30.6811 26.209 30.4791 26.142 30.2111 26.142C30.0051 26.142 29.7941 26.18 29.5781 26.256L29.1161 26.124L29.4761 24.018H31.6181V24.333C31.6181 24.439 31.5851 24.525 31.5191 24.591C31.4531 24.657 31.3411 24.69 31.1831 24.69H29.9921L29.8391 25.593Z" fill="#8F8F8F"/>
<path d="M35.3262 3H38.919" stroke="black" stroke-width="0.598802"/>
<path d="M24.9214 6.32073V6.87573H22.5214V6.32073H23.4004V3.79173C23.4004 3.69173 23.4034 3.58873 23.4094 3.48273L22.7854 4.00473C22.7494 4.03273 22.7134 4.05073 22.6774 4.05873C22.6434 4.06473 22.6104 4.06473 22.5784 4.05873C22.5484 4.05273 22.5214 4.04273 22.4974 4.02873C22.4734 4.01273 22.4554 3.99573 22.4434 3.97773L22.2094 3.65673L23.5324 2.53173H24.1414V6.32073H24.9214ZM28.6269 4.70673C28.6269 5.08473 28.5859 5.41373 28.5039 5.69373C28.4239 5.97173 28.3119 6.20173 28.1679 6.38373C28.0259 6.56573 27.8569 6.70173 27.6609 6.79173C27.4669 6.87973 27.2569 6.92373 27.0309 6.92373C26.8049 6.92373 26.5949 6.87973 26.4009 6.79173C26.2089 6.70173 26.0419 6.56573 25.8999 6.38373C25.7579 6.20173 25.6469 5.97173 25.5669 5.69373C25.4869 5.41373 25.4469 5.08473 25.4469 4.70673C25.4469 4.32673 25.4869 3.99773 25.5669 3.71973C25.6469 3.44173 25.7579 3.21173 25.8999 3.02973C26.0419 2.84773 26.2089 2.71273 26.4009 2.62473C26.5949 2.53473 26.8049 2.48973 27.0309 2.48973C27.2569 2.48973 27.4669 2.53473 27.6609 2.62473C27.8569 2.71273 28.0259 2.84773 28.1679 3.02973C28.3119 3.21173 28.4239 3.44173 28.5039 3.71973C28.5859 3.99773 28.6269 4.32673 28.6269 4.70673ZM27.8619 4.70673C27.8619 4.39273 27.8389 4.13273 27.7929 3.92673C27.7469 3.72073 27.6849 3.55673 27.6069 3.43473C27.5309 3.31273 27.4429 3.22773 27.3429 3.17973C27.2429 3.12973 27.1389 3.10473 27.0309 3.10473C26.9249 3.10473 26.8219 3.12973 26.7219 3.17973C26.6239 3.22773 26.5369 3.31273 26.4609 3.43473C26.3849 3.55673 26.3239 3.72073 26.2779 3.92673C26.2339 4.13273 26.2119 4.39273 26.2119 4.70673C26.2119 5.02073 26.2339 5.28073 26.2779 5.48673C26.3239 5.69273 26.3849 5.85673 26.4609 5.97873C26.5369 6.10073 26.6239 6.18673 26.7219 6.23673C26.8219 6.28473 26.9249 6.30873 27.0309 6.30873C27.1389 6.30873 27.2429 6.28473 27.3429 6.23673C27.4429 6.18673 27.5309 6.10073 27.6069 5.97873C27.6849 5.85673 27.7469 5.69273 27.7929 5.48673C27.8389 5.28073 27.8619 5.02073 27.8619 4.70673ZM32.1073 4.70673C32.1073 5.08473 32.0663 5.41373 31.9843 5.69373C31.9043 5.97173 31.7923 6.20173 31.6483 6.38373C31.5063 6.56573 31.3373 6.70173 31.1413 6.79173C30.9473 6.87973 30.7373 6.92373 30.5113 6.92373C30.2853 6.92373 30.0753 6.87973 29.8813 6.79173C29.6893 6.70173 29.5223 6.56573 29.3803 6.38373C29.2383 6.20173 29.1273 5.97173 29.0473 5.69373C28.9673 5.41373 28.9273 5.08473 28.9273 4.70673C28.9273 4.32673 28.9673 3.99773 29.0473 3.71973C29.1273 3.44173 29.2383 3.21173 29.3803 3.02973C29.5223 2.84773 29.6893 2.71273 29.8813 2.62473C30.0753 2.53473 30.2853 2.48973 30.5113 2.48973C30.7373 2.48973 30.9473 2.53473 31.1413 2.62473C31.3373 2.71273 31.5063 2.84773 31.6483 3.02973C31.7923 3.21173 31.9043 3.44173 31.9843 3.71973C32.0663 3.99773 32.1073 4.32673 32.1073 4.70673ZM31.3423 4.70673C31.3423 4.39273 31.3193 4.13273 31.2733 3.92673C31.2273 3.72073 31.1653 3.55673 31.0873 3.43473C31.0113 3.31273 30.9233 3.22773 30.8233 3.17973C30.7233 3.12973 30.6193 3.10473 30.5113 3.10473C30.4053 3.10473 30.3023 3.12973 30.2023 3.17973C30.1043 3.22773 30.0173 3.31273 29.9413 3.43473C29.8653 3.55673 29.8043 3.72073 29.7583 3.92673C29.7143 4.13273 29.6923 4.39273 29.6923 4.70673C29.6923 5.02073 29.7143 5.28073 29.7583 5.48673C29.8043 5.69273 29.8653 5.85673 29.9413 5.97873C30.0173 6.10073 30.1043 6.18673 30.2023 6.23673C30.3023 6.28473 30.4053 6.30873 30.5113 6.30873C30.6193 6.30873 30.7233 6.28473 30.8233 6.23673C30.9233 6.18673 31.0113 6.10073 31.0873 5.97873C31.1653 5.85673 31.2273 5.69273 31.2733 5.48673C31.3193 5.28073 31.3423 5.02073 31.3423 4.70673Z" fill="#8F8F8F"/>
<path d="M38.9258 80.3593C38.9258 80.0046 39.083 79.6682 39.355 79.4407L127.698 5.54573C128.134 5.1812 128.766 5.17306 129.211 5.52624L217.478 75.5709C217.785 75.8145 218.191 75.8925 218.567 75.7798L307.12 49.1904C307.36 49.1184 307.616 49.1234 307.853 49.2047L396.201 79.5221C396.685 79.6882 397.01 80.1433 397.01 80.6549V98.9997H307.489H217.968H128.447H38.9258V80.3593Z" fill="black" fill-opacity="0.2"/>
<path d="M38.9258 69.2585C38.9258 68.6892 39.3265 68.1986 39.8843 68.085L128.447 50.0403L217.636 31.8678C217.853 31.8237 218.078 31.8404 218.286 31.9162L307.489 64.4403L396.179 92.973C396.674 93.1323 397.01 93.5929 397.01 94.1131V99.0003H307.489H217.968H128.447H38.9258V69.2585Z" fill="#656565" fill-opacity="0.2"/>
<path d="M38.9258 68.2803L128.447 50.0403L217.968 31.8003L307.489 64.4403L397.01 93.2403" fill="#656565" fill-opacity="0.2"/>
</g>
<defs>
<clipPath id="clip0_2169_7230">
<rect width="400" height="120" fill="white"/>
</clipPath>
</defs>
</svg>
