<svg width="48" height="48" viewBox="0 0 48 48" fill="none" xmlns="http://www.w3.org/2000/svg">
<rect width="48" height="48" rx="16" fill="#323232"/>
<path d="M19.5593 38.3334H10.666C10.1193 38.3334 9.66602 37.8801 9.66602 37.3334V29.3334C9.66602 27.3067 11.306 25.6667 13.3327 25.6667H19.5593C20.106 25.6667 20.5593 26.1201 20.5593 26.6667V37.3334C20.5593 37.8801 20.106 38.3334 19.5593 38.3334ZM11.666 36.3334H18.5593V27.6667H13.3327C12.4127 27.6667 11.666 28.4134 11.666 29.3334V36.3334Z" fill="#FDFDFD"/>
<path d="M28.4402 38.3333H19.5469C19.0002 38.3333 18.5469 37.8799 18.5469 37.3333V23.9999C18.5469 21.9733 20.1869 20.3333 22.2135 20.3333H25.7735C27.8002 20.3333 29.4402 21.9733 29.4402 23.9999V37.3333C29.4402 37.8799 29.0002 38.3333 28.4402 38.3333ZM20.5602 36.3333H27.4535V23.9999C27.4535 23.0799 26.7069 22.3333 25.7869 22.3333H22.2269C21.3069 22.3333 20.5602 23.0799 20.5602 23.9999V36.3333Z" fill="#FDFDFD"/>
<path d="M37.3328 38.3334H28.4395C27.8928 38.3334 27.4395 37.8801 27.4395 37.3334V30.6667C27.4395 30.1201 27.8928 29.6667 28.4395 29.6667H34.6661C36.6928 29.6667 38.3328 31.3067 38.3328 33.3334V37.3334C38.3328 37.8801 37.8795 38.3334 37.3328 38.3334ZM29.4395 36.3334H36.3328V33.3334C36.3328 32.4134 35.5861 31.6667 34.6661 31.6667H29.4395V36.3334Z" fill="#FDFDFD"/>
<path d="M26.2659 19.1332C25.9459 19.1332 25.5459 19.0399 25.0925 18.7732L23.9992 18.1199L22.9192 18.7599C21.8259 19.4132 21.1059 19.0266 20.8392 18.8399C20.5725 18.6532 19.9992 18.0666 20.2792 16.8399L20.5325 15.7332L19.6259 14.8266C19.0659 14.2666 18.8659 13.5999 19.0659 12.9865C19.2659 12.3732 19.8125 11.9465 20.5859 11.8132L21.7459 11.6132L22.3992 10.3066C23.1192 8.87991 24.8659 8.87991 25.5725 10.3066L26.2259 11.6132L27.3859 11.8132C28.1592 11.9465 28.7192 12.3732 28.9059 12.9865C29.1059 13.5999 28.8925 14.2666 28.3459 14.8266L27.4392 15.7332L27.6925 16.8399C27.9725 18.0799 27.3992 18.6532 27.1325 18.8532C27.0125 18.9599 26.7059 19.1332 26.2659 19.1332ZM23.9992 16.1065C24.3192 16.1065 24.6392 16.1866 24.9059 16.3466L25.6525 16.7866L25.4925 16.0665C25.3592 15.5065 25.5592 14.8266 25.9725 14.4132L26.6525 13.7332L25.8125 13.5866C25.2792 13.4932 24.7592 13.1066 24.5192 12.6266L23.9992 11.6266L23.4925 12.6266C23.2525 13.1066 22.7325 13.4932 22.1992 13.5866L21.3592 13.7199L22.0392 14.3999C22.4525 14.8132 22.6392 15.4932 22.5192 16.0532L22.3592 16.7732L23.1059 16.3332C23.3592 16.1732 23.6792 16.1065 23.9992 16.1065Z" fill="#FDFDFD"/>
</svg>
