<svg width="220" height="192" viewBox="0 0 220 192" fill="none" xmlns="http://www.w3.org/2000/svg">
<g clip-path="url(#clip0_2315_2304)">
<g clip-path="url(#clip1_2315_2304)">
<path d="M8.6416 16.6094C8.10775 16.6094 7.64941 16.4453 7.2666 16.1172C6.88379 15.7891 6.58952 15.319 6.38379 14.707C6.18066 14.0924 6.0791 13.3568 6.0791 12.5C6.0791 11.6458 6.18197 10.9115 6.3877 10.2969C6.59342 9.68229 6.88639 9.21094 7.2666 8.88281C7.64941 8.55469 8.10775 8.39062 8.6416 8.39062C9.17546 8.39062 9.63249 8.55469 10.0127 8.88281C10.3955 9.21094 10.6898 9.68229 10.8955 10.2969C11.1012 10.9115 11.2041 11.6458 11.2041 12.5C11.2041 13.3568 11.1012 14.0924 10.8955 14.707C10.6924 15.319 10.3994 15.7891 10.0166 16.1172C9.63379 16.4453 9.17546 16.6094 8.6416 16.6094ZM8.6416 16.1562C9.29004 16.1562 9.79915 15.8346 10.1689 15.1914C10.5387 14.5456 10.7236 13.6484 10.7236 12.5C10.7236 11.7344 10.639 11.0781 10.4697 10.5313C10.3031 9.98438 10.0648 9.56641 9.75488 9.27734C9.44499 8.98568 9.07389 8.83984 8.6416 8.83984C7.99316 8.83984 7.48405 9.16276 7.11426 9.80859C6.74447 10.4544 6.55957 11.3516 6.55957 12.5C6.55957 13.2656 6.6429 13.9219 6.80957 14.4687C6.97624 15.013 7.21452 15.431 7.52441 15.7227C7.83691 16.0117 8.20931 16.1562 8.6416 16.1562ZM12.7109 14.7031V14.3125L16.332 8.5H16.6289V9.25391H16.375L13.3008 14.207V14.25H17.9219V14.7031H12.7109ZM16.4141 16.5V14.5703V14.3945V8.5H16.8906V16.5H16.4141Z" fill="white"/>
<path d="M29.5767 8.5H30.7329L33.4517 15.1406H33.5454L36.2642 8.5H37.4204V16.5H36.5142V10.4219H36.436L33.936 16.5H33.061L30.561 10.4219H30.4829V16.5H29.5767V8.5ZM41.6753 16.625C41.1336 16.625 40.6584 16.4961 40.2495 16.2383C39.8433 15.9805 39.5256 15.6198 39.2964 15.1562C39.0698 14.6927 38.9565 14.151 38.9565 13.5312C38.9565 12.9062 39.0698 12.3607 39.2964 11.8945C39.5256 11.4284 39.8433 11.0664 40.2495 10.8086C40.6584 10.5508 41.1336 10.4219 41.6753 10.4219C42.217 10.4219 42.6909 10.5508 43.0972 10.8086C43.506 11.0664 43.8237 11.4284 44.0503 11.8945C44.2795 12.3607 44.394 12.9062 44.394 13.5312C44.394 14.151 44.2795 14.6927 44.0503 15.1562C43.8237 15.6198 43.506 15.9805 43.0972 16.2383C42.6909 16.4961 42.217 16.625 41.6753 16.625ZM41.6753 15.7969C42.0868 15.7969 42.4253 15.6914 42.6909 15.4805C42.9565 15.2695 43.1532 14.9922 43.2808 14.6484C43.4084 14.3047 43.4722 13.9323 43.4722 13.5312C43.4722 13.1302 43.4084 12.7565 43.2808 12.4102C43.1532 12.0638 42.9565 11.7839 42.6909 11.5703C42.4253 11.3568 42.0868 11.25 41.6753 11.25C41.2638 11.25 40.9253 11.3568 40.6597 11.5703C40.394 11.7839 40.1974 12.0638 40.0698 12.4102C39.9422 12.7565 39.8784 13.1302 39.8784 13.5312C39.8784 13.9323 39.9422 14.3047 40.0698 14.6484C40.1974 14.9922 40.394 15.2695 40.6597 15.4805C40.9253 15.6914 41.2638 15.7969 41.6753 15.7969ZM46.7231 12.8906V16.5H45.8013V10.5H46.6919V11.4375H46.77C46.9106 11.1328 47.1242 10.888 47.4106 10.7031C47.6971 10.5156 48.0669 10.4219 48.52 10.4219C48.9263 10.4219 49.2817 10.5052 49.5864 10.6719C49.8911 10.8359 50.1281 11.0859 50.2974 11.4219C50.4666 11.7552 50.5513 12.1771 50.5513 12.6875V16.5H49.6294V12.75C49.6294 12.2786 49.507 11.9115 49.2622 11.6484C49.0174 11.3828 48.6815 11.25 48.2544 11.25C47.9601 11.25 47.6971 11.3138 47.4653 11.4414C47.2362 11.569 47.0552 11.7552 46.9224 12C46.7896 12.2448 46.7231 12.5417 46.7231 12.8906Z" fill="#B3B3B3"/>
<path d="M59.0137 9.35937V8.5H65.0137V9.35937H62.498V16.5H61.5293V9.35937H59.0137ZM69.3486 14.0469V10.5H70.2705V16.5H69.3486V15.4844H69.2861C69.1455 15.7891 68.9268 16.0482 68.6299 16.2617C68.333 16.4727 67.958 16.5781 67.5049 16.5781C67.1299 16.5781 66.7965 16.4961 66.5049 16.332C66.2132 16.1654 65.984 15.9154 65.8174 15.582C65.6507 15.2461 65.5674 14.8229 65.5674 14.3125V10.5H66.4893V14.25C66.4893 14.6875 66.6117 15.0365 66.8564 15.2969C67.1038 15.5573 67.4189 15.6875 67.8018 15.6875C68.0309 15.6875 68.264 15.6289 68.501 15.5117C68.7406 15.3945 68.9411 15.2148 69.1025 14.9727C69.2666 14.7305 69.3486 14.4219 69.3486 14.0469ZM74.4746 16.625C73.8965 16.625 73.3978 16.4974 72.9785 16.2422C72.5618 15.9844 72.2402 15.625 72.0137 15.1641C71.7897 14.7005 71.6777 14.1615 71.6777 13.5469C71.6777 12.9323 71.7897 12.3906 72.0137 11.9219C72.2402 11.4505 72.5553 11.0833 72.959 10.8203C73.3652 10.5547 73.8392 10.4219 74.3809 10.4219C74.6934 10.4219 75.002 10.474 75.3066 10.5781C75.6113 10.6823 75.8887 10.8516 76.1387 11.0859C76.3887 11.3177 76.5879 11.625 76.7363 12.0078C76.8848 12.3906 76.959 12.862 76.959 13.4219V13.8125H72.334V13.0156H76.0215C76.0215 12.6771 75.9538 12.375 75.8184 12.1094C75.6855 11.8437 75.4954 11.6341 75.248 11.4805C75.0033 11.3268 74.7142 11.25 74.3809 11.25C74.0137 11.25 73.696 11.3411 73.4277 11.5234C73.1621 11.7031 72.9577 11.9375 72.8145 12.2266C72.6712 12.5156 72.5996 12.8255 72.5996 13.1562V13.6875C72.5996 14.1406 72.6777 14.5247 72.834 14.8398C72.9928 15.1523 73.2129 15.3906 73.4941 15.5547C73.7754 15.7161 74.1022 15.7969 74.4746 15.7969C74.7168 15.7969 74.9355 15.763 75.1309 15.6953C75.3288 15.625 75.4993 15.5208 75.6426 15.3828C75.7858 15.2422 75.8965 15.0677 75.9746 14.8594L76.8652 15.1094C76.7715 15.4115 76.6139 15.6771 76.3926 15.9062C76.1712 16.1328 75.8978 16.3099 75.5723 16.4375C75.2467 16.5625 74.8809 16.625 74.4746 16.625Z" fill="#B3B3B3"/>
<path d="M86.8633 16.5L84.6758 8.5H85.6602L87.332 15.0156H87.4102L89.1133 8.5H90.207L91.9102 15.0156H91.9883L93.6602 8.5H94.6445L92.457 16.5H91.457L89.6914 10.125H89.6289L87.8633 16.5H86.8633ZM97.6836 16.625C97.1055 16.625 96.6068 16.4974 96.1875 16.2422C95.7708 15.9844 95.4492 15.625 95.2227 15.1641C94.9987 14.7005 94.8867 14.1615 94.8867 13.5469C94.8867 12.9323 94.9987 12.3906 95.2227 11.9219C95.4492 11.4505 95.7643 11.0833 96.168 10.8203C96.5742 10.5547 97.0482 10.4219 97.5898 10.4219C97.9023 10.4219 98.2109 10.474 98.5156 10.5781C98.8203 10.6823 99.0977 10.8516 99.3477 11.0859C99.5977 11.3177 99.7969 11.625 99.9453 12.0078C100.094 12.3906 100.168 12.862 100.168 13.4219V13.8125H95.543V13.0156H99.2305C99.2305 12.6771 99.1628 12.375 99.0273 12.1094C98.8945 11.8437 98.7044 11.6341 98.457 11.4805C98.2122 11.3268 97.9232 11.25 97.5898 11.25C97.2227 11.25 96.9049 11.3411 96.6367 11.5234C96.3711 11.7031 96.1667 11.9375 96.0234 12.2266C95.8802 12.5156 95.8086 12.8255 95.8086 13.1562V13.6875C95.8086 14.1406 95.8867 14.5247 96.043 14.8398C96.2018 15.1523 96.4219 15.3906 96.7031 15.5547C96.9844 15.7161 97.3112 15.7969 97.6836 15.7969C97.9258 15.7969 98.1445 15.763 98.3398 15.6953C98.5378 15.625 98.7083 15.5208 98.8516 15.3828C98.9948 15.2422 99.1055 15.0677 99.1836 14.8594L100.074 15.1094C99.9805 15.4115 99.8229 15.6771 99.6016 15.9062C99.3802 16.1328 99.1068 16.3099 98.7812 16.4375C98.4557 16.5625 98.0898 16.625 97.6836 16.625ZM103.836 16.625C103.336 16.625 102.895 16.4987 102.512 16.2461C102.129 15.9909 101.829 15.6315 101.613 15.168C101.397 14.7018 101.289 14.151 101.289 13.5156C101.289 12.8854 101.397 12.3385 101.613 11.875C101.829 11.4115 102.13 11.0534 102.516 10.8008C102.901 10.5482 103.346 10.4219 103.852 10.4219C104.242 10.4219 104.551 10.487 104.777 10.6172C105.007 10.7448 105.181 10.8906 105.301 11.0547C105.423 11.2161 105.518 11.349 105.586 11.4531H105.664V8.5H106.586V16.5H105.695V15.5781H105.586C105.518 15.6875 105.422 15.8255 105.297 15.9922C105.172 16.1562 104.993 16.3034 104.762 16.4336C104.53 16.5612 104.221 16.625 103.836 16.625ZM103.961 15.7969C104.331 15.7969 104.643 15.7005 104.898 15.5078C105.154 15.3125 105.348 15.043 105.48 14.6992C105.613 14.3529 105.68 13.9531 105.68 13.5C105.68 13.0521 105.615 12.6602 105.484 12.3242C105.354 11.9857 105.161 11.7227 104.906 11.5352C104.651 11.3451 104.336 11.25 103.961 11.25C103.57 11.25 103.245 11.3503 102.984 11.5508C102.727 11.7487 102.533 12.0182 102.402 12.3594C102.275 12.6979 102.211 13.0781 102.211 13.5C102.211 13.9271 102.276 14.3151 102.406 14.6641C102.539 15.0104 102.734 15.2865 102.992 15.4922C103.253 15.6953 103.576 15.7969 103.961 15.7969Z" fill="#B3B3B3"/>
<path d="M114.557 9.35937V8.5H120.557V9.35937H118.042V16.5H117.073V9.35937H114.557ZM122.849 12.8906V16.5H121.927V8.5H122.849V11.4375H122.927C123.068 11.1276 123.279 10.8815 123.56 10.6992C123.844 10.5143 124.222 10.4219 124.693 10.4219C125.102 10.4219 125.46 10.5039 125.767 10.668C126.074 10.8294 126.313 11.0781 126.482 11.4141C126.654 11.7474 126.74 12.1719 126.74 12.6875V16.5H125.818V12.75C125.818 12.2734 125.694 11.9049 125.447 11.6445C125.202 11.3815 124.862 11.25 124.427 11.25C124.125 11.25 123.854 11.3138 123.615 11.4414C123.378 11.569 123.19 11.7552 123.052 12C122.917 12.2448 122.849 12.5417 122.849 12.8906ZM132.208 14.0469V10.5H133.129V16.5H132.208V15.4844H132.145C132.004 15.7891 131.786 16.0482 131.489 16.2617C131.192 16.4727 130.817 16.5781 130.364 16.5781C129.989 16.5781 129.655 16.4961 129.364 16.332C129.072 16.1654 128.843 15.9154 128.676 15.582C128.51 15.2461 128.426 14.8229 128.426 14.3125V10.5H129.348V14.25C129.348 14.6875 129.471 15.0365 129.715 15.2969C129.963 15.5573 130.278 15.6875 130.661 15.6875C130.89 15.6875 131.123 15.6289 131.36 15.5117C131.599 15.3945 131.8 15.2148 131.961 14.9727C132.125 14.7305 132.208 14.4219 132.208 14.0469Z" fill="#B3B3B3"/>
<path d="M146.421 16.5V8.5H151.218V9.35937H147.39V12.0625H150.859V12.9219H147.39V16.5H146.421ZM152.688 16.5V10.5H153.579V11.4062H153.641C153.75 11.1094 153.948 10.8685 154.235 10.6836C154.521 10.4987 154.844 10.4062 155.204 10.4062C155.271 10.4062 155.356 10.4076 155.458 10.4102C155.559 10.4128 155.636 10.4167 155.688 10.4219V11.3594C155.657 11.3516 155.585 11.3398 155.473 11.3242C155.364 11.306 155.248 11.2969 155.125 11.2969C154.834 11.2969 154.573 11.3581 154.344 11.4805C154.118 11.6003 153.938 11.7669 153.805 11.9805C153.675 12.1914 153.61 12.4323 153.61 12.7031V16.5H152.688ZM156.781 16.5V10.5H157.703V16.5H156.781ZM157.25 9.5C157.07 9.5 156.915 9.4388 156.785 9.31641C156.657 9.19401 156.593 9.04688 156.593 8.875C156.593 8.70313 156.657 8.55599 156.785 8.43359C156.915 8.3112 157.07 8.25 157.25 8.25C157.429 8.25 157.583 8.3112 157.71 8.43359C157.841 8.55599 157.906 8.70313 157.906 8.875C157.906 9.04688 157.841 9.19401 157.71 9.31641C157.583 9.4388 157.429 9.5 157.25 9.5Z" fill="#B3B3B3"/>
<path d="M176.739 10.5C176.692 10.1042 176.502 9.79688 176.169 9.57812C175.836 9.35937 175.427 9.25 174.942 9.25C174.588 9.25 174.278 9.30729 174.013 9.42187C173.75 9.53646 173.544 9.69401 173.396 9.89453C173.25 10.0951 173.177 10.3229 173.177 10.5781C173.177 10.7917 173.228 10.9753 173.329 11.1289C173.433 11.2799 173.566 11.4062 173.728 11.5078C173.889 11.6068 174.058 11.6888 174.235 11.7539C174.412 11.8164 174.575 11.8672 174.724 11.9062L175.536 12.125C175.744 12.1797 175.976 12.2552 176.231 12.3516C176.489 12.4479 176.735 12.5794 176.97 12.7461C177.207 12.9102 177.402 13.1211 177.556 13.3789C177.709 13.6367 177.786 13.9531 177.786 14.3281C177.786 14.7604 177.673 15.151 177.446 15.5C177.222 15.849 176.894 16.1263 176.462 16.332C176.032 16.5378 175.51 16.6406 174.896 16.6406C174.323 16.6406 173.826 16.5482 173.407 16.3633C172.991 16.1784 172.662 15.9206 172.423 15.5898C172.186 15.2591 172.052 14.875 172.021 14.4375H173.021C173.047 14.7396 173.148 14.9896 173.325 15.1875C173.505 15.3828 173.731 15.5286 174.005 15.625C174.281 15.7187 174.578 15.7656 174.896 15.7656C175.265 15.7656 175.597 15.7057 175.892 15.5859C176.186 15.4635 176.419 15.2943 176.591 15.0781C176.763 14.8594 176.849 14.6042 176.849 14.3125C176.849 14.0469 176.774 13.8307 176.626 13.6641C176.478 13.4974 176.282 13.362 176.04 13.2578C175.798 13.1536 175.536 13.0625 175.255 12.9844L174.271 12.7031C173.646 12.5234 173.151 12.2669 172.786 11.9336C172.422 11.6003 172.239 11.1641 172.239 10.625C172.239 10.1771 172.36 9.78646 172.603 9.45312C172.847 9.11719 173.175 8.85677 173.587 8.67187C174.001 8.48437 174.463 8.39062 174.974 8.39062C175.489 8.39062 175.948 8.48307 176.349 8.66797C176.75 8.85026 177.067 9.10026 177.302 9.41797C177.539 9.73568 177.664 10.0964 177.677 10.5H176.739ZM181.02 16.6406C180.639 16.6406 180.294 16.569 179.984 16.4258C179.674 16.2799 179.428 16.0703 179.246 15.7969C179.064 15.5208 178.973 15.1875 178.973 14.7969C178.973 14.4531 179.04 14.1745 179.176 13.9609C179.311 13.7448 179.492 13.5755 179.719 13.4531C179.945 13.3307 180.195 13.2396 180.469 13.1797C180.745 13.1172 181.022 13.0677 181.301 13.0313C181.665 12.9844 181.961 12.9492 182.188 12.9258C182.417 12.8997 182.583 12.8568 182.688 12.7969C182.794 12.737 182.848 12.6328 182.848 12.4844V12.4531C182.848 12.0677 182.742 11.7682 182.531 11.5547C182.323 11.3411 182.007 11.2344 181.582 11.2344C181.142 11.2344 180.797 11.3307 180.547 11.5234C180.297 11.7161 180.121 11.9219 180.02 12.1406L179.145 11.8281C179.301 11.4635 179.509 11.1797 179.77 10.9766C180.033 10.7708 180.319 10.6276 180.629 10.5469C180.941 10.4635 181.249 10.4219 181.551 10.4219C181.743 10.4219 181.965 10.4453 182.215 10.4922C182.467 10.5365 182.711 10.6289 182.945 10.7695C183.182 10.9102 183.379 11.1224 183.535 11.4062C183.691 11.6901 183.77 12.0703 183.77 12.5469V16.5H182.848V15.6875H182.801C182.738 15.8177 182.634 15.957 182.488 16.1055C182.342 16.2539 182.148 16.3802 181.906 16.4844C181.664 16.5885 181.368 16.6406 181.02 16.6406ZM181.16 15.8125C181.525 15.8125 181.832 15.7409 182.082 15.5977C182.335 15.4544 182.525 15.2695 182.652 15.043C182.783 14.8164 182.848 14.5781 182.848 14.3281V13.4844C182.809 13.5312 182.723 13.5742 182.59 13.6133C182.46 13.6497 182.309 13.6823 182.137 13.7109C181.967 13.737 181.802 13.7604 181.641 13.7812C181.482 13.7995 181.353 13.8151 181.254 13.8281C181.014 13.8594 180.79 13.9102 180.582 13.9805C180.376 14.0482 180.21 14.151 180.082 14.2891C179.957 14.4245 179.895 14.6094 179.895 14.8437C179.895 15.1641 180.013 15.4062 180.25 15.5703C180.49 15.7318 180.793 15.8125 181.16 15.8125ZM188.062 10.5V11.2812H184.952V10.5H188.062ZM185.858 9.0625H186.78V14.7812C186.78 15.0417 186.818 15.237 186.894 15.3672C186.972 15.4948 187.071 15.5807 187.19 15.625C187.313 15.6667 187.442 15.6875 187.577 15.6875C187.679 15.6875 187.762 15.6823 187.827 15.6719C187.892 15.6589 187.944 15.6484 187.983 15.6406L188.171 16.4687C188.108 16.4922 188.021 16.5156 187.909 16.5391C187.797 16.5651 187.655 16.5781 187.483 16.5781C187.223 16.5781 186.968 16.5221 186.718 16.4102C186.47 16.2982 186.265 16.1276 186.101 15.8984C185.939 15.6693 185.858 15.3802 185.858 15.0312V9.0625Z" fill="black"/>
<path d="M203.423 10.5C203.376 10.1042 203.186 9.79688 202.853 9.57812C202.52 9.35937 202.111 9.25 201.626 9.25C201.272 9.25 200.962 9.30729 200.697 9.42187C200.434 9.53646 200.228 9.69401 200.08 9.89453C199.934 10.0951 199.861 10.3229 199.861 10.5781C199.861 10.7917 199.912 10.9753 200.013 11.1289C200.117 11.2799 200.25 11.4062 200.412 11.5078C200.573 11.6068 200.742 11.6888 200.919 11.7539C201.097 11.8164 201.259 11.8672 201.408 11.9062L202.22 12.125C202.429 12.1797 202.66 12.2552 202.916 12.3516C203.173 12.4479 203.419 12.5794 203.654 12.7461C203.891 12.9102 204.086 13.1211 204.24 13.3789C204.393 13.6367 204.47 13.9531 204.47 14.3281C204.47 14.7604 204.357 15.151 204.13 15.5C203.906 15.849 203.578 16.1263 203.146 16.332C202.716 16.5378 202.194 16.6406 201.58 16.6406C201.007 16.6406 200.511 16.5482 200.091 16.3633C199.675 16.1784 199.347 15.9206 199.107 15.5898C198.87 15.2591 198.736 14.875 198.705 14.4375H199.705C199.731 14.7396 199.832 14.9896 200.009 15.1875C200.189 15.3828 200.416 15.5286 200.689 15.625C200.965 15.7187 201.262 15.7656 201.58 15.7656C201.949 15.7656 202.281 15.7057 202.576 15.5859C202.87 15.4635 203.103 15.2943 203.275 15.0781C203.447 14.8594 203.533 14.6042 203.533 14.3125C203.533 14.0469 203.458 13.8307 203.31 13.6641C203.162 13.4974 202.966 13.362 202.724 13.2578C202.482 13.1536 202.22 13.0625 201.939 12.9844L200.955 12.7031C200.33 12.5234 199.835 12.2669 199.47 11.9336C199.106 11.6003 198.923 11.1641 198.923 10.625C198.923 10.1771 199.044 9.78646 199.287 9.45312C199.531 9.11719 199.86 8.85677 200.271 8.67187C200.685 8.48437 201.147 8.39062 201.658 8.39062C202.173 8.39062 202.632 8.48307 203.033 8.66797C203.434 8.85026 203.751 9.10026 203.986 9.41797C204.223 9.73568 204.348 10.0964 204.361 10.5H203.423ZM209.719 14.0469V10.5H210.641V16.5H209.719V15.4844H209.657C209.516 15.7891 209.297 16.0482 209 16.2617C208.704 16.4727 208.329 16.5781 207.875 16.5781C207.5 16.5781 207.167 16.4961 206.875 16.332C206.584 16.1654 206.355 15.9154 206.188 15.582C206.021 15.2461 205.938 14.8229 205.938 14.3125V10.5H206.86V14.25C206.86 14.6875 206.982 15.0365 207.227 15.2969C207.474 15.5573 207.79 15.6875 208.172 15.6875C208.402 15.6875 208.635 15.6289 208.872 15.5117C209.111 15.3945 209.312 15.2148 209.473 14.9727C209.637 14.7305 209.719 14.4219 209.719 14.0469ZM213.251 12.8906V16.5H212.33V10.5H213.22V11.4375H213.298C213.439 11.1328 213.653 10.888 213.939 10.7031C214.225 10.5156 214.595 10.4219 215.048 10.4219C215.455 10.4219 215.81 10.5052 216.115 10.6719C216.419 10.8359 216.656 11.0859 216.826 11.4219C216.995 11.7552 217.08 12.1771 217.08 12.6875V16.5H216.158V12.75C216.158 12.2786 216.035 11.9115 215.791 11.6484C215.546 11.3828 215.21 11.25 214.783 11.25C214.488 11.25 214.225 11.3138 213.994 11.4414C213.764 11.569 213.583 11.7552 213.451 12C213.318 12.2448 213.251 12.5417 213.251 12.8906Z" fill="black"/>
</g>
<g clip-path="url(#clip2_2315_2304)">
<rect y="28" width="24" height="24" rx="4" fill="#787878"/>
<path d="M9.37402 36.5V44.5H8.88574V37.0156H8.83887L7.04199 38.207V37.6836L8.82324 36.5H9.37402ZM11.7441 42.7031V42.3125L15.3652 36.5H15.6621V37.2539H15.4082L12.334 42.207V42.25H16.9551V42.7031H11.7441ZM15.4473 44.5V42.5703V42.3945V36.5H15.9238V44.5H15.4473Z" fill="#B3B3B3"/>
<path d="M41.084 36.5V44.5H40.1152V37.5156H40.0684L38.1152 38.8125V37.8281L40.1152 36.5H41.084Z" fill="#B3B3B3"/>
<path d="M65.498 44.5V43.7969L68.1387 40.9062C68.4486 40.5677 68.7038 40.2734 68.9043 40.0234C69.1048 39.7708 69.2533 39.5339 69.3496 39.3125C69.4486 39.0885 69.498 38.8542 69.498 38.6094C69.498 38.3281 69.4303 38.0846 69.2949 37.8789C69.1621 37.6732 68.9798 37.5143 68.748 37.4023C68.5163 37.2904 68.2559 37.2344 67.9668 37.2344C67.6595 37.2344 67.3913 37.2982 67.1621 37.4258C66.9355 37.5508 66.7598 37.7266 66.6348 37.9531C66.5124 38.1797 66.4512 38.4453 66.4512 38.75H65.5293C65.5293 38.2812 65.6374 37.8698 65.8535 37.5156C66.0697 37.1615 66.3639 36.8854 66.7363 36.6875C67.1113 36.4896 67.5319 36.3906 67.998 36.3906C68.4668 36.3906 68.8822 36.4896 69.2441 36.6875C69.6061 36.8854 69.89 37.1523 70.0957 37.4883C70.3014 37.8242 70.4043 38.1979 70.4043 38.6094C70.4043 38.9036 70.3509 39.1914 70.2441 39.4727C70.14 39.7513 69.9577 40.0625 69.6973 40.4062C69.4395 40.7474 69.0814 41.1641 68.623 41.6562L66.8262 43.5781V43.6406H70.5449V44.5H65.498Z" fill="#B3B3B3"/>
<path d="M96.0293 44.6094C95.5137 44.6094 95.054 44.5208 94.6504 44.3437C94.2493 44.1667 93.9303 43.9206 93.6934 43.6055C93.459 43.2878 93.3314 42.9193 93.3105 42.5H94.2949C94.3158 42.7578 94.4043 42.9805 94.5605 43.168C94.7168 43.3529 94.9212 43.4961 95.1738 43.5977C95.4264 43.6992 95.7064 43.75 96.0137 43.75C96.3574 43.75 96.6621 43.6901 96.9277 43.5703C97.1934 43.4505 97.4017 43.2839 97.5527 43.0703C97.7038 42.8568 97.7793 42.6094 97.7793 42.3281C97.7793 42.0339 97.7064 41.7747 97.5605 41.5508C97.4147 41.3242 97.2012 41.1471 96.9199 41.0195C96.6387 40.8919 96.2949 40.8281 95.8887 40.8281H95.248V39.9687H95.8887C96.2064 39.9687 96.485 39.9115 96.7246 39.7969C96.9668 39.6823 97.1556 39.5208 97.291 39.3125C97.429 39.1042 97.498 38.8594 97.498 38.5781C97.498 38.3073 97.4382 38.0716 97.3184 37.8711C97.1986 37.6706 97.0293 37.5143 96.8105 37.4023C96.5944 37.2904 96.3392 37.2344 96.0449 37.2344C95.7689 37.2344 95.5085 37.2852 95.2637 37.3867C95.0215 37.4857 94.8236 37.6302 94.6699 37.8203C94.5163 38.0078 94.4329 38.2344 94.4199 38.5H93.4824C93.498 38.0807 93.6243 37.7135 93.8613 37.3984C94.0983 37.0807 94.4082 36.8333 94.791 36.6562C95.1764 36.4792 95.5996 36.3906 96.0605 36.3906C96.5553 36.3906 96.9798 36.4909 97.334 36.6914C97.6882 36.8893 97.9603 37.151 98.1504 37.4766C98.3405 37.8021 98.4355 38.1536 98.4355 38.5313C98.4355 38.9818 98.3171 39.3659 98.0801 39.6836C97.8457 40.0013 97.5267 40.2214 97.123 40.3438V40.4062C97.6283 40.4896 98.0228 40.7044 98.3066 41.0508C98.5905 41.3945 98.7324 41.8203 98.7324 42.3281C98.7324 42.763 98.6139 43.1536 98.377 43.5C98.1426 43.8437 97.8223 44.1146 97.416 44.3125C97.0098 44.5104 96.5475 44.6094 96.0293 44.6094Z" fill="#B3B3B3"/>
<path d="M121.112 42.8594V42.0625L124.627 36.5H125.206V37.7344H124.815L122.159 41.9375V42H126.893V42.8594H121.112ZM124.877 44.5V42.6172V42.2461V36.5H125.799V44.5H124.877Z" fill="#B3B3B3"/>
<path d="M151.982 44.6094C151.524 44.6094 151.111 44.5182 150.744 44.3359C150.376 44.1536 150.082 43.9036 149.861 43.5859C149.639 43.2682 149.518 42.9062 149.498 42.5H150.435C150.472 42.862 150.636 43.1615 150.927 43.3984C151.222 43.6328 151.573 43.75 151.982 43.75C152.31 43.75 152.602 43.6732 152.857 43.5195C153.115 43.3659 153.317 43.1549 153.462 42.8867C153.611 42.6159 153.685 42.3099 153.685 41.9687C153.685 41.6198 153.608 41.3086 153.455 41.0352C153.304 40.7591 153.095 40.5417 152.83 40.3828C152.564 40.224 152.261 40.1432 151.919 40.1406C151.675 40.138 151.423 40.1758 151.166 40.2539C150.908 40.3294 150.695 40.4271 150.529 40.5469L149.623 40.4375L150.107 36.5H154.263V37.3594H150.919L150.638 39.7187H150.685C150.849 39.5885 151.055 39.4805 151.302 39.3945C151.55 39.3086 151.807 39.2656 152.076 39.2656C152.565 39.2656 153.001 39.3828 153.384 39.6172C153.77 39.849 154.072 40.1667 154.291 40.5703C154.512 40.974 154.623 41.4349 154.623 41.9531C154.623 42.4635 154.508 42.9193 154.279 43.3203C154.052 43.7187 153.74 44.0339 153.341 44.2656C152.943 44.4948 152.49 44.6094 151.982 44.6094Z" fill="#B3B3B3"/>
<path d="M180.052 44.6094C179.724 44.6042 179.396 44.5417 179.068 44.4219C178.74 44.3021 178.44 44.1003 178.169 43.8164C177.899 43.5299 177.681 43.1432 177.517 42.6562C177.353 42.1667 177.271 41.5521 177.271 40.8125C177.271 40.1042 177.337 39.4766 177.47 38.9297C177.603 38.3802 177.796 37.918 178.048 37.543C178.301 37.1654 178.606 36.8789 178.962 36.6836C179.322 36.4883 179.727 36.3906 180.177 36.3906C180.625 36.3906 181.024 36.4805 181.373 36.6602C181.724 36.8372 182.011 37.0846 182.232 37.4023C182.453 37.7201 182.597 38.0859 182.662 38.5H181.708C181.62 38.1406 181.448 37.8424 181.193 37.6055C180.938 37.3685 180.599 37.25 180.177 37.25C179.557 37.25 179.069 37.5195 178.712 38.0586C178.358 38.5977 178.18 39.3542 178.177 40.3281H178.24C178.386 40.1068 178.559 39.918 178.759 39.7617C178.962 39.6029 179.186 39.4805 179.431 39.3945C179.676 39.3086 179.935 39.2656 180.208 39.2656C180.667 39.2656 181.086 39.3802 181.466 39.6094C181.847 39.8359 182.151 40.1497 182.38 40.5508C182.61 40.9492 182.724 41.4062 182.724 41.9219C182.724 42.4167 182.613 42.8698 182.392 43.2812C182.171 43.6901 181.86 44.0156 181.458 44.2578C181.06 44.4974 180.591 44.6146 180.052 44.6094ZM180.052 43.75C180.38 43.75 180.675 43.668 180.935 43.5039C181.198 43.3398 181.405 43.1198 181.556 42.8437C181.71 42.5677 181.787 42.2604 181.787 41.9219C181.787 41.5911 181.712 41.2904 181.564 41.0195C181.418 40.7461 181.216 40.5286 180.958 40.3672C180.703 40.2057 180.412 40.125 180.083 40.125C179.836 40.125 179.606 40.1745 179.392 40.2734C179.179 40.3698 178.991 40.5026 178.83 40.6719C178.671 40.8411 178.546 41.0352 178.455 41.2539C178.363 41.4701 178.318 41.6979 178.318 41.9375C178.318 42.2552 178.392 42.5521 178.541 42.8281C178.692 43.1042 178.897 43.3268 179.158 43.4961C179.421 43.6654 179.719 43.75 180.052 43.75Z" fill="black"/>
<path d="M205.936 44.5L209.514 37.4219V37.3594H205.389V36.5H210.514V37.4062L206.952 44.5H205.936Z" fill="black"/>
</g>
<g clip-path="url(#clip3_2315_2304)">
<rect y="56" width="24" height="24" rx="4" fill="#787878"/>
<path d="M9.52441 64.5V72.5H9.03613V65.0156H8.98926L7.19238 66.207V65.6836L8.97363 64.5H9.52441ZM14.2695 72.6094C13.8424 72.6094 13.4609 72.5195 13.125 72.3398C12.7917 72.1576 12.5273 71.9076 12.332 71.5898C12.1393 71.2721 12.0404 70.9089 12.0352 70.5H12.5156C12.526 70.9844 12.694 71.3815 13.0195 71.6914C13.3451 72.0013 13.7617 72.1562 14.2695 72.1562C14.6602 72.1562 15.0039 72.0625 15.3008 71.875C15.6003 71.6849 15.8346 71.4271 16.0039 71.1016C16.1732 70.776 16.2565 70.4089 16.2539 70C16.2539 69.5677 16.1628 69.1901 15.9805 68.8672C15.7982 68.5443 15.5547 68.2943 15.25 68.1172C14.9453 67.9401 14.6081 67.8503 14.2383 67.8477C13.9466 67.8477 13.6732 67.901 13.418 68.0078C13.1628 68.112 12.9453 68.2461 12.7656 68.4102L12.2148 68.332L12.6875 64.5H16.4375V64.9531H13.1055L12.7383 67.9492H12.7773C12.9648 67.7826 13.1875 67.6484 13.4453 67.5469C13.7057 67.4427 13.9883 67.3906 14.293 67.3906C14.7409 67.3906 15.1497 67.5 15.5195 67.7187C15.8919 67.9375 16.1875 68.2422 16.4063 68.6328C16.6276 69.0234 16.737 69.4779 16.7344 69.9961C16.7318 70.4961 16.625 70.9427 16.4141 71.3359C16.2031 71.7292 15.9115 72.0404 15.5391 72.2695C15.1693 72.4961 14.7461 72.6094 14.2695 72.6094Z" fill="#B3B3B3"/>
<path d="M40.0015 72.6094C39.465 72.6094 38.991 72.5143 38.5796 72.3242C38.1707 72.1315 37.8517 71.8672 37.6226 71.5312C37.3934 71.1927 37.2801 70.8073 37.2827 70.375C37.2801 70.0365 37.3465 69.724 37.4819 69.4375C37.6174 69.1484 37.8022 68.9076 38.0366 68.7148C38.2736 68.5195 38.5379 68.3958 38.8296 68.3438V68.2969C38.4468 68.1979 38.1421 67.9831 37.9155 67.6523C37.689 67.319 37.577 66.9401 37.5796 66.5156C37.577 66.1094 37.6799 65.7461 37.8882 65.4258C38.0965 65.1055 38.383 64.8529 38.7476 64.668C39.1147 64.4831 39.5327 64.3906 40.0015 64.3906C40.465 64.3906 40.8791 64.4831 41.2437 64.668C41.6082 64.8529 41.8947 65.1055 42.103 65.4258C42.314 65.7461 42.4207 66.1094 42.4233 66.5156C42.4207 66.9401 42.3049 67.319 42.0757 67.6523C41.8491 67.9831 41.5483 68.1979 41.1733 68.2969V68.3438C41.4624 68.3958 41.7228 68.5195 41.9546 68.7148C42.1864 68.9076 42.3713 69.1484 42.5093 69.4375C42.6473 69.724 42.7176 70.0365 42.7202 70.375C42.7176 70.8073 42.6004 71.1927 42.3687 71.5312C42.1395 71.8672 41.8205 72.1315 41.4116 72.3242C41.0054 72.5143 40.5353 72.6094 40.0015 72.6094ZM40.0015 71.75C40.3634 71.75 40.6759 71.6914 40.939 71.5742C41.202 71.457 41.4051 71.2917 41.5483 71.0781C41.6916 70.8646 41.7645 70.6146 41.7671 70.3281C41.7645 70.026 41.6864 69.7591 41.5327 69.5273C41.3791 69.2956 41.1694 69.1133 40.9038 68.9805C40.6408 68.8477 40.34 68.7812 40.0015 68.7812C39.6603 68.7812 39.3556 68.8477 39.0874 68.9805C38.8218 69.1133 38.6121 69.2956 38.4585 69.5273C38.3075 69.7591 38.2332 70.026 38.2358 70.3281C38.2332 70.6146 38.3022 70.8646 38.4429 71.0781C38.5861 71.2917 38.7905 71.457 39.0562 71.5742C39.3218 71.6914 39.6369 71.75 40.0015 71.75ZM40.0015 67.9531C40.2879 67.9531 40.5418 67.8958 40.7632 67.7812C40.9871 67.6667 41.1629 67.5065 41.2905 67.3008C41.4181 67.0951 41.4832 66.8542 41.4858 66.5781C41.4832 66.3073 41.4194 66.0716 41.2944 65.8711C41.1694 65.668 40.9963 65.5117 40.7749 65.4023C40.5535 65.2904 40.2957 65.2344 40.0015 65.2344C39.702 65.2344 39.4403 65.2904 39.2163 65.4023C38.9924 65.5117 38.8192 65.668 38.6968 65.8711C38.5744 66.0716 38.5145 66.3073 38.5171 66.5781C38.5145 66.8542 38.5757 67.0951 38.7007 67.3008C38.8283 67.5065 39.0041 67.6667 39.228 67.7812C39.452 67.8958 39.7098 67.9531 40.0015 67.9531Z" fill="#B3B3B3"/>
<path d="M67.9429 64.3906C68.271 64.3932 68.5991 64.4557 68.9272 64.5781C69.2554 64.7005 69.5549 64.9036 69.8257 65.1875C70.0965 65.4687 70.314 65.8529 70.478 66.3398C70.6421 66.8268 70.7241 67.4375 70.7241 68.1719C70.7241 68.8828 70.6564 69.5143 70.521 70.0664C70.3882 70.6159 70.1955 71.0794 69.9429 71.457C69.6929 71.8346 69.3882 72.1211 69.0288 72.3164C68.672 72.5117 68.2684 72.6094 67.8179 72.6094C67.37 72.6094 66.9702 72.5208 66.6187 72.3437C66.2697 72.1641 65.9832 71.9154 65.7593 71.5977C65.5379 71.2773 65.396 70.9062 65.3335 70.4844H66.2866C66.3726 70.8516 66.5431 71.1549 66.7983 71.3945C67.0562 71.6315 67.396 71.75 67.8179 71.75C68.4351 71.75 68.922 71.4805 69.2788 70.9414C69.6382 70.4023 69.8179 69.6406 69.8179 68.6562H69.7554C69.6095 68.875 69.4364 69.0638 69.2358 69.2227C69.0353 69.3815 68.8127 69.5039 68.5679 69.5898C68.3231 69.6758 68.0627 69.7188 67.7866 69.7188C67.3283 69.7188 66.9077 69.6055 66.5249 69.3789C66.1447 69.1497 65.84 68.8359 65.6108 68.4375C65.3843 68.0365 65.271 67.5781 65.271 67.0625C65.271 66.5729 65.3804 66.125 65.5991 65.7187C65.8205 65.3099 66.1304 64.9844 66.5288 64.7422C66.9299 64.5 67.4012 64.3828 67.9429 64.3906ZM67.9429 65.25C67.6147 65.25 67.3192 65.332 67.0562 65.4961C66.7957 65.6576 66.5887 65.8763 66.4351 66.1523C66.284 66.4258 66.2085 66.7292 66.2085 67.0625C66.2085 67.3958 66.2814 67.6992 66.4272 67.9727C66.5757 68.2435 66.7775 68.4596 67.0327 68.6211C67.2905 68.7799 67.5835 68.8594 67.9116 68.8594C68.159 68.8594 68.3895 68.8112 68.603 68.7148C68.8166 68.6159 69.0028 68.4818 69.1616 68.3125C69.3231 68.1406 69.4494 67.9466 69.5405 67.7305C69.6317 67.5117 69.6772 67.2839 69.6772 67.0469C69.6772 66.7344 69.6017 66.4414 69.4507 66.168C69.3022 65.8945 69.0965 65.6732 68.8335 65.5039C68.5731 65.3346 68.2762 65.25 67.9429 65.25Z" fill="#B3B3B3"/>
<path d="M93.6465 64.5V72.5H92.6777V65.5156H92.6309L90.6777 66.8125V65.8281L92.6777 64.5H93.6465ZM98.5566 72.6094C97.9681 72.6094 97.4668 72.4492 97.0527 72.1289C96.6387 71.806 96.3223 71.3385 96.1035 70.7266C95.8848 70.112 95.7754 69.3698 95.7754 68.5C95.7754 67.6354 95.8848 66.8971 96.1035 66.2852C96.3249 65.6706 96.6426 65.2018 97.0566 64.8789C97.4733 64.5534 97.9733 64.3906 98.5566 64.3906C99.14 64.3906 99.6387 64.5534 100.053 64.8789C100.469 65.2018 100.787 65.6706 101.006 66.2852C101.227 66.8971 101.338 67.6354 101.338 68.5C101.338 69.3698 101.229 70.112 101.01 70.7266C100.791 71.3385 100.475 71.806 100.061 72.1289C99.6465 72.4492 99.1452 72.6094 98.5566 72.6094ZM98.5566 71.75C99.14 71.75 99.5931 71.4687 99.916 70.9062C100.239 70.3437 100.4 69.5417 100.4 68.5C100.4 67.8073 100.326 67.2174 100.178 66.7305C100.032 66.2435 99.821 65.8724 99.5449 65.6172C99.2715 65.362 98.9421 65.2344 98.5566 65.2344C97.9785 65.2344 97.5267 65.5195 97.2012 66.0898C96.8757 66.6576 96.7129 67.4609 96.7129 68.5C96.7129 69.1927 96.7858 69.7812 96.9316 70.2656C97.0775 70.75 97.2871 71.1185 97.5605 71.3711C97.8366 71.6237 98.1686 71.75 98.5566 71.75Z" fill="#B3B3B3"/>
<path d="M122.527 64.5V72.5H121.559V65.5156H121.512L119.559 66.8125V65.8281L121.559 64.5H122.527ZM127.641 64.5V72.5H126.672V65.5156H126.625L124.672 66.8125V65.8281L126.672 64.5H127.641Z" fill="#B3B3B3"/>
<path d="M149.754 64.5V72.5H148.785V65.5156H148.738L146.785 66.8125V65.8281L148.785 64.5H149.754ZM152.055 72.5V71.7969L154.695 68.9062C155.005 68.5677 155.26 68.2734 155.461 68.0234C155.661 67.7708 155.81 67.5339 155.906 67.3125C156.005 67.0885 156.055 66.8542 156.055 66.6094C156.055 66.3281 155.987 66.0846 155.852 65.8789C155.719 65.6732 155.536 65.5143 155.305 65.4023C155.073 65.2904 154.813 65.2344 154.523 65.2344C154.216 65.2344 153.948 65.2982 153.719 65.4258C153.492 65.5508 153.316 65.7266 153.191 65.9531C153.069 66.1797 153.008 66.4453 153.008 66.75H152.086C152.086 66.2812 152.194 65.8698 152.41 65.5156C152.626 65.1615 152.921 64.8854 153.293 64.6875C153.668 64.4896 154.089 64.3906 154.555 64.3906C155.023 64.3906 155.439 64.4896 155.801 64.6875C156.163 64.8854 156.447 65.1523 156.652 65.4883C156.858 65.8242 156.961 66.1979 156.961 66.6094C156.961 66.9036 156.908 67.1914 156.801 67.4727C156.697 67.7513 156.514 68.0625 156.254 68.4062C155.996 68.7474 155.638 69.1641 155.18 69.6562L153.383 71.5781V71.6406H157.102V72.5H152.055Z" fill="#B3B3B3"/>
<path d="M177.582 64.5V72.5H176.613V65.5156H176.566L174.613 66.8125V65.8281L176.613 64.5H177.582ZM182.586 72.6094C182.07 72.6094 181.611 72.5208 181.207 72.3437C180.806 72.1667 180.487 71.9206 180.25 71.6055C180.016 71.2878 179.888 70.9193 179.867 70.5H180.852C180.872 70.7578 180.961 70.9805 181.117 71.168C181.273 71.3529 181.478 71.4961 181.73 71.5977C181.983 71.6992 182.263 71.75 182.57 71.75C182.914 71.75 183.219 71.6901 183.484 71.5703C183.75 71.4505 183.958 71.2839 184.109 71.0703C184.26 70.8568 184.336 70.6094 184.336 70.3281C184.336 70.0339 184.263 69.7747 184.117 69.5508C183.971 69.3242 183.758 69.1471 183.477 69.0195C183.195 68.8919 182.852 68.8281 182.445 68.8281H181.805V67.9687H182.445C182.763 67.9687 183.042 67.9115 183.281 67.7969C183.523 67.6823 183.712 67.5208 183.848 67.3125C183.986 67.1042 184.055 66.8594 184.055 66.5781C184.055 66.3073 183.995 66.0716 183.875 65.8711C183.755 65.6706 183.586 65.5143 183.367 65.4023C183.151 65.2904 182.896 65.2344 182.602 65.2344C182.326 65.2344 182.065 65.2852 181.82 65.3867C181.578 65.4857 181.38 65.6302 181.227 65.8203C181.073 66.0078 180.99 66.2344 180.977 66.5H180.039C180.055 66.0807 180.181 65.7135 180.418 65.3984C180.655 65.0807 180.965 64.8333 181.348 64.6562C181.733 64.4792 182.156 64.3906 182.617 64.3906C183.112 64.3906 183.536 64.4909 183.891 64.6914C184.245 64.8893 184.517 65.151 184.707 65.4766C184.897 65.8021 184.992 66.1536 184.992 66.5313C184.992 66.9818 184.874 67.3659 184.637 67.6836C184.402 68.0013 184.083 68.2214 183.68 68.3438V68.4062C184.185 68.4896 184.579 68.7044 184.863 69.0508C185.147 69.3945 185.289 69.8203 185.289 70.3281C185.289 70.763 185.171 71.1536 184.934 71.5C184.699 71.8437 184.379 72.1146 183.973 72.3125C183.566 72.5104 183.104 72.6094 182.586 72.6094Z" fill="black"/>
<path d="M205.555 64.5V72.5H204.586V65.5156H204.54L202.586 66.8125V65.8281L204.586 64.5H205.555ZM207.668 70.8594V70.0625L211.184 64.5H211.762V65.7344H211.372L208.715 69.9375V70H213.45V70.8594H207.668ZM211.434 72.5V70.6172V70.2461V64.5H212.356V72.5H211.434Z" fill="black"/>
</g>
<g clip-path="url(#clip4_2315_2304)">
<rect y="84" width="24" height="24" rx="4" fill="#787878"/>
<path d="M9.44922 92.5V100.5H8.96094V93.0156H8.91406L7.11719 94.207V93.6836L8.89844 92.5H9.44922ZM14.4053 100.609C14.0693 100.607 13.7503 100.535 13.4482 100.395C13.1462 100.251 12.8779 100.03 12.6436 99.7305C12.4118 99.4284 12.2282 99.0404 12.0928 98.5664C11.96 98.0898 11.8936 97.5195 11.8936 96.8555C11.8936 96.2591 11.9404 95.6927 12.0342 95.1562C12.1305 94.6198 12.2816 94.1445 12.4873 93.7305C12.693 93.3138 12.9613 92.987 13.292 92.75C13.6253 92.5104 14.0277 92.3906 14.499 92.3906C14.9105 92.3906 15.2725 92.4805 15.585 92.6602C15.9001 92.8372 16.1514 93.0846 16.3389 93.4023C16.5264 93.7174 16.6396 94.0833 16.6787 94.5H16.1943C16.1396 94.013 15.9652 93.6159 15.6709 93.3086C15.3792 92.9987 14.9886 92.8437 14.499 92.8437C13.8063 92.8437 13.2764 93.1823 12.9092 93.8594C12.5446 94.5365 12.3623 95.5052 12.3623 96.7656H12.4053C12.5094 96.5156 12.6631 96.2956 12.8662 96.1055C13.0719 95.9128 13.3089 95.763 13.5771 95.6562C13.8454 95.5495 14.1279 95.4961 14.4248 95.4961C14.8571 95.4961 15.2516 95.6068 15.6084 95.8281C15.9678 96.0495 16.2555 96.3529 16.4717 96.7383C16.6878 97.1237 16.7959 97.5599 16.7959 98.0469C16.7959 98.5078 16.6956 98.9336 16.4951 99.3242C16.2946 99.7122 16.0146 100.025 15.6553 100.262C15.2985 100.496 14.8818 100.612 14.4053 100.609ZM14.4053 100.156C14.7699 100.156 15.0954 100.061 15.3818 99.8711C15.6709 99.681 15.8988 99.4271 16.0654 99.1094C16.2321 98.7891 16.3154 98.4349 16.3154 98.0469C16.3154 97.6562 16.2295 97.3021 16.0576 96.9844C15.8857 96.6667 15.6527 96.4154 15.3584 96.2305C15.0667 96.043 14.7386 95.9492 14.374 95.9492C14.0876 95.9492 13.8219 96.0078 13.5771 96.125C13.3324 96.2396 13.1214 96.3984 12.9443 96.6016C12.7699 96.8047 12.641 97.0378 12.5576 97.3008C12.4769 97.5612 12.4548 97.8359 12.4912 98.125C12.5511 98.5443 12.6683 98.9062 12.8428 99.2109C13.0199 99.513 13.2412 99.7461 13.5068 99.9102C13.7751 100.074 14.0745 100.156 14.4053 100.156Z" fill="white"/>
<path d="M37.7378 92.5V100.5H36.769V93.5156H36.7222L34.769 94.8125V93.8281L36.769 92.5H37.7378ZM42.5386 100.609C42.0802 100.609 41.6675 100.518 41.3003 100.336C40.9331 100.154 40.6388 99.9036 40.4175 99.5859C40.1961 99.2682 40.075 98.9062 40.0542 98.5H40.9917C41.0282 98.862 41.1922 99.1615 41.4839 99.3984C41.7782 99.6328 42.1297 99.75 42.5386 99.75C42.8667 99.75 43.1584 99.6732 43.4136 99.5195C43.6714 99.3659 43.8732 99.1549 44.019 98.8867C44.1675 98.6159 44.2417 98.3099 44.2417 97.9687C44.2417 97.6198 44.1649 97.3086 44.0112 97.0352C43.8602 96.7591 43.6519 96.5417 43.3862 96.3828C43.1206 96.224 42.8172 96.1432 42.4761 96.1406C42.2313 96.138 41.98 96.1758 41.7222 96.2539C41.4644 96.3294 41.2521 96.4271 41.0854 96.5469L40.1792 96.4375L40.6636 92.5H44.8198V93.3594H41.4761L41.1948 95.7187H41.2417C41.4058 95.5885 41.6115 95.4805 41.8589 95.3945C42.1063 95.3086 42.3641 95.2656 42.6323 95.2656C43.1219 95.2656 43.5581 95.3828 43.9409 95.6172C44.3263 95.849 44.6284 96.1667 44.8472 96.5703C45.0685 96.974 45.1792 97.4349 45.1792 97.9531C45.1792 98.4635 45.0646 98.9193 44.8354 99.3203C44.6089 99.7187 44.2964 100.034 43.8979 100.266C43.4995 100.495 43.0464 100.609 42.5386 100.609Z" fill="#B3B3B3"/>
<path d="M65.6519 92.5V100.5H64.6831V93.5156H64.6362L62.6831 94.8125V93.8281L64.6831 92.5H65.6519ZM70.6089 100.609C70.2808 100.604 69.9526 100.542 69.6245 100.422C69.2964 100.302 68.9969 100.1 68.7261 99.8164C68.4552 99.5299 68.2378 99.1432 68.0737 98.6562C67.9097 98.1667 67.8276 97.5521 67.8276 96.8125C67.8276 96.1042 67.894 95.4766 68.0269 94.9297C68.1597 94.3802 68.3524 93.918 68.605 93.543C68.8576 93.1654 69.1623 92.8789 69.519 92.6836C69.8784 92.4883 70.2834 92.3906 70.7339 92.3906C71.1818 92.3906 71.5802 92.4805 71.9292 92.6602C72.2808 92.8372 72.5672 93.0846 72.7886 93.4023C73.0099 93.7201 73.1532 94.0859 73.2183 94.5H72.2651C72.1766 94.1406 72.0047 93.8424 71.7495 93.6055C71.4943 93.3685 71.1558 93.25 70.7339 93.25C70.1141 93.25 69.6258 93.5195 69.269 94.0586C68.9149 94.5977 68.7365 95.3542 68.7339 96.3281H68.7964C68.9422 96.1068 69.1154 95.918 69.3159 95.7617C69.519 95.6029 69.743 95.4805 69.9878 95.3945C70.2326 95.3086 70.4917 95.2656 70.7651 95.2656C71.2235 95.2656 71.6427 95.3802 72.0229 95.6094C72.4032 95.8359 72.7078 96.1497 72.937 96.5508C73.1662 96.9492 73.2808 97.4062 73.2808 97.9219C73.2808 98.4167 73.1701 98.8698 72.9487 99.2812C72.7274 99.6901 72.4162 100.016 72.0151 100.258C71.6167 100.497 71.1479 100.615 70.6089 100.609ZM70.6089 99.75C70.937 99.75 71.2313 99.668 71.4917 99.5039C71.7547 99.3398 71.9618 99.1198 72.1128 98.8437C72.2664 98.5677 72.3433 98.2604 72.3433 97.9219C72.3433 97.5911 72.269 97.2904 72.1206 97.0195C71.9748 96.7461 71.7729 96.5286 71.5151 96.3672C71.2599 96.2057 70.9683 96.125 70.6401 96.125C70.3927 96.125 70.1623 96.1745 69.9487 96.2734C69.7352 96.3698 69.5477 96.5026 69.3862 96.6719C69.2274 96.8411 69.1024 97.0352 69.0112 97.2539C68.9201 97.4701 68.8745 97.6979 68.8745 97.9375C68.8745 98.2552 68.9487 98.5521 69.0972 98.8281C69.2482 99.1042 69.4539 99.3268 69.7144 99.4961C69.9774 99.6654 70.2756 99.75 70.6089 99.75Z" fill="#B3B3B3"/>
<path d="M93.9419 92.5V100.5H92.9731V93.5156H92.9263L90.9731 94.8125V93.8281L92.9731 92.5H93.9419ZM96.4927 100.5L100.071 93.4219V93.3594H95.9458V92.5H101.071V93.4062L97.5083 100.5H96.4927Z" fill="#B3B3B3"/>
<path d="M121.695 92.5V100.5H120.726V93.5156H120.679L118.726 94.8125V93.8281L120.726 92.5H121.695ZM126.558 100.609C126.022 100.609 125.548 100.514 125.136 100.324C124.727 100.132 124.408 99.8672 124.179 99.5312C123.95 99.1927 123.837 98.8073 123.839 98.375C123.837 98.0365 123.903 97.724 124.039 97.4375C124.174 97.1484 124.359 96.9076 124.593 96.7148C124.83 96.5195 125.095 96.3958 125.386 96.3438V96.2969C125.003 96.1979 124.699 95.9831 124.472 95.6523C124.246 95.319 124.134 94.9401 124.136 94.5156C124.134 94.1094 124.236 93.7461 124.445 93.4258C124.653 93.1055 124.94 92.8529 125.304 92.668C125.671 92.4831 126.089 92.3906 126.558 92.3906C127.022 92.3906 127.436 92.4831 127.8 92.668C128.165 92.8529 128.451 93.1055 128.66 93.4258C128.871 93.7461 128.977 94.1094 128.98 94.5156C128.977 94.9401 128.861 95.319 128.632 95.6523C128.406 95.9831 128.105 96.1979 127.73 96.2969V96.3438C128.019 96.3958 128.279 96.5195 128.511 96.7148C128.743 96.9076 128.928 97.1484 129.066 97.4375C129.204 97.724 129.274 98.0365 129.277 98.375C129.274 98.8073 129.157 99.1927 128.925 99.5312C128.696 99.8672 128.377 100.132 127.968 100.324C127.562 100.514 127.092 100.609 126.558 100.609ZM126.558 99.75C126.92 99.75 127.233 99.6914 127.496 99.5742C127.759 99.457 127.962 99.2917 128.105 99.0781C128.248 98.8646 128.321 98.6146 128.324 98.3281C128.321 98.026 128.243 97.7591 128.089 97.5273C127.936 97.2956 127.726 97.1133 127.46 96.9805C127.197 96.8477 126.897 96.7812 126.558 96.7812C126.217 96.7812 125.912 96.8477 125.644 96.9805C125.378 97.1133 125.169 97.2956 125.015 97.5273C124.864 97.7591 124.79 98.026 124.792 98.3281C124.79 98.6146 124.859 98.8646 125 99.0781C125.143 99.2917 125.347 99.457 125.613 99.5742C125.878 99.6914 126.194 99.75 126.558 99.75ZM126.558 95.9531C126.845 95.9531 127.098 95.8958 127.32 95.7812C127.544 95.6667 127.72 95.5065 127.847 95.3008C127.975 95.0951 128.04 94.8542 128.042 94.5781C128.04 94.3073 127.976 94.0716 127.851 93.8711C127.726 93.668 127.553 93.5117 127.332 93.4023C127.11 93.2904 126.852 93.2344 126.558 93.2344C126.259 93.2344 125.997 93.2904 125.773 93.4023C125.549 93.5117 125.376 93.668 125.253 93.8711C125.131 94.0716 125.071 94.3073 125.074 94.5781C125.071 94.8542 125.132 95.0951 125.257 95.3008C125.385 95.5065 125.561 95.6667 125.785 95.7812C126.009 95.8958 126.266 95.9531 126.558 95.9531Z" fill="#B3B3B3"/>
<path d="M149.652 92.5V100.5H148.683V93.5156H148.636L146.683 94.8125V93.8281L148.683 92.5H149.652ZM154.5 92.3906C154.828 92.3932 155.156 92.4557 155.484 92.5781C155.812 92.7005 156.111 92.9036 156.382 93.1875C156.653 93.4687 156.871 93.8529 157.035 94.3398C157.199 94.8268 157.281 95.4375 157.281 96.1719C157.281 96.8828 157.213 97.5143 157.078 98.0664C156.945 98.6159 156.752 99.0794 156.5 99.457C156.25 99.8346 155.945 100.121 155.585 100.316C155.229 100.512 154.825 100.609 154.375 100.609C153.927 100.609 153.527 100.521 153.175 100.344C152.826 100.164 152.54 99.9154 152.316 99.5977C152.095 99.2773 151.953 98.9062 151.89 98.4844H152.843C152.929 98.8516 153.1 99.1549 153.355 99.3945C153.613 99.6315 153.953 99.75 154.375 99.75C154.992 99.75 155.479 99.4805 155.835 98.9414C156.195 98.4023 156.375 97.6406 156.375 96.6562H156.312C156.166 96.875 155.993 97.0638 155.792 97.2227C155.592 97.3815 155.369 97.5039 155.125 97.5898C154.88 97.6758 154.619 97.7188 154.343 97.7188C153.885 97.7188 153.464 97.6055 153.082 97.3789C152.701 97.1497 152.397 96.8359 152.167 96.4375C151.941 96.0365 151.828 95.5781 151.828 95.0625C151.828 94.5729 151.937 94.125 152.156 93.7187C152.377 93.3099 152.687 92.9844 153.085 92.7422C153.486 92.5 153.958 92.3828 154.5 92.3906ZM154.5 93.25C154.171 93.25 153.876 93.332 153.613 93.4961C153.352 93.6576 153.145 93.8763 152.992 94.1523C152.841 94.4258 152.765 94.7292 152.765 95.0625C152.765 95.3958 152.838 95.6992 152.984 95.9727C153.132 96.2435 153.334 96.4596 153.589 96.6211C153.847 96.7799 154.14 96.8594 154.468 96.8594C154.716 96.8594 154.946 96.8112 155.16 96.7148C155.373 96.6159 155.559 96.4818 155.718 96.3125C155.88 96.1406 156.006 95.9466 156.097 95.7305C156.188 95.5117 156.234 95.2839 156.234 95.0469C156.234 94.7344 156.158 94.4414 156.007 94.168C155.859 93.8945 155.653 93.6732 155.39 93.5039C155.13 93.3346 154.833 93.25 154.5 93.25Z" fill="#B3B3B3"/>
<path d="M174.061 100.5V99.7969L176.701 96.9062C177.011 96.5677 177.266 96.2734 177.467 96.0234C177.667 95.7708 177.816 95.5339 177.912 95.3125C178.011 95.0885 178.061 94.8542 178.061 94.6094C178.061 94.3281 177.993 94.0846 177.857 93.8789C177.725 93.6732 177.542 93.5143 177.311 93.4023C177.079 93.2904 176.818 93.2344 176.529 93.2344C176.222 93.2344 175.954 93.2982 175.725 93.4258C175.498 93.5508 175.322 93.7266 175.197 93.9531C175.075 94.1797 175.014 94.4453 175.014 94.75H174.092C174.092 94.2812 174.2 93.8698 174.416 93.5156C174.632 93.1615 174.926 92.8854 175.299 92.6875C175.674 92.4896 176.094 92.3906 176.561 92.3906C177.029 92.3906 177.445 92.4896 177.807 92.6875C178.169 92.8854 178.452 93.1523 178.658 93.4883C178.864 93.8242 178.967 94.1979 178.967 94.6094C178.967 94.9036 178.913 95.1914 178.807 95.4727C178.702 95.7513 178.52 96.0625 178.26 96.4062C178.002 96.7474 177.644 97.1641 177.186 97.6562L175.389 99.5781V99.6406H179.107V100.5H174.061ZM183.33 100.609C182.742 100.609 182.24 100.449 181.826 100.129C181.412 99.806 181.096 99.3385 180.877 98.7266C180.658 98.112 180.549 97.3698 180.549 96.5C180.549 95.6354 180.658 94.8971 180.877 94.2852C181.098 93.6706 181.416 93.2018 181.83 92.8789C182.247 92.5534 182.747 92.3906 183.33 92.3906C183.913 92.3906 184.412 92.5534 184.826 92.8789C185.243 93.2018 185.561 93.6706 185.779 94.2852C186.001 94.8971 186.111 95.6354 186.111 96.5C186.111 97.3698 186.002 98.112 185.783 98.7266C185.564 99.3385 185.248 99.806 184.834 100.129C184.42 100.449 183.919 100.609 183.33 100.609ZM183.33 99.75C183.913 99.75 184.367 99.4687 184.689 98.9062C185.012 98.3437 185.174 97.5417 185.174 96.5C185.174 95.8073 185.1 95.2174 184.951 94.7305C184.805 94.2435 184.594 93.8724 184.318 93.6172C184.045 93.362 183.715 93.2344 183.33 93.2344C182.752 93.2344 182.3 93.5195 181.975 94.0898C181.649 94.6576 181.486 95.4609 181.486 96.5C181.486 97.1927 181.559 97.7812 181.705 98.2656C181.851 98.75 182.061 99.1185 182.334 99.3711C182.61 99.6237 182.942 99.75 183.33 99.75Z" fill="black"/>
<rect x="196" y="84" width="24" height="24" rx="4" fill="black"/>
<path d="M202.941 100.5V99.7969L205.582 96.9062C205.892 96.5677 206.147 96.2734 206.348 96.0234C206.548 95.7708 206.697 95.5339 206.793 95.3125C206.892 95.0885 206.941 94.8542 206.941 94.6094C206.941 94.3281 206.874 94.0846 206.738 93.8789C206.605 93.6732 206.423 93.5143 206.191 93.4023C205.96 93.2904 205.699 93.2344 205.41 93.2344C205.103 93.2344 204.835 93.2982 204.605 93.4258C204.379 93.5508 204.203 93.7266 204.078 93.9531C203.956 94.1797 203.895 94.4453 203.895 94.75H202.973C202.973 94.2812 203.081 93.8698 203.297 93.5156C203.513 93.1615 203.807 92.8854 204.18 92.6875C204.555 92.4896 204.975 92.3906 205.441 92.3906C205.91 92.3906 206.326 92.4896 206.688 92.6875C207.049 92.8854 207.333 93.1523 207.539 93.4883C207.745 93.8242 207.848 94.1979 207.848 94.6094C207.848 94.9036 207.794 95.1914 207.688 95.4727C207.583 95.7513 207.401 96.0625 207.141 96.4062C206.883 96.7474 206.525 97.1641 206.066 97.6562L204.27 99.5781V99.6406H207.988V100.5H202.941ZM212.414 92.5V100.5H211.445V93.5156H211.398L209.445 94.8125V93.8281L211.445 92.5H212.414Z" fill="white"/>
</g>
<g clip-path="url(#clip5_2315_2304)">
<rect y="112" width="24" height="24" rx="4" fill="#787878"/>
<path d="M9.68018 120.5V128.5H9.19189V121.016H9.14502L7.34814 122.207V121.684L9.12939 120.5H9.68018ZM12.4565 128.5L16.1714 120.996V120.953H11.9019V120.5H16.7026V120.969L12.9839 128.5H12.4565Z" fill="#B3B3B3"/>
<path d="M34.168 128.5V127.797L36.8086 124.906C37.1185 124.568 37.3737 124.273 37.5742 124.023C37.7747 123.771 37.9232 123.534 38.0195 123.312C38.1185 123.089 38.168 122.854 38.168 122.609C38.168 122.328 38.1003 122.085 37.9648 121.879C37.832 121.673 37.6497 121.514 37.418 121.402C37.1862 121.29 36.9258 121.234 36.6367 121.234C36.3294 121.234 36.0612 121.298 35.832 121.426C35.6055 121.551 35.4297 121.727 35.3047 121.953C35.1823 122.18 35.1211 122.445 35.1211 122.75H34.1992C34.1992 122.281 34.3073 121.87 34.5234 121.516C34.7396 121.161 35.0339 120.885 35.4063 120.687C35.7813 120.49 36.2018 120.391 36.668 120.391C37.1367 120.391 37.5521 120.49 37.9141 120.687C38.276 120.885 38.5599 121.152 38.7656 121.488C38.9714 121.824 39.0742 122.198 39.0742 122.609C39.0742 122.904 39.0208 123.191 38.9141 123.473C38.8099 123.751 38.6276 124.062 38.3672 124.406C38.1094 124.747 37.7513 125.164 37.293 125.656L35.4961 127.578V127.641H39.2148V128.5H34.168ZM40.8281 128.5V127.797L43.4687 124.906C43.7786 124.568 44.0339 124.273 44.2344 124.023C44.4349 123.771 44.5833 123.534 44.6797 123.312C44.7786 123.089 44.8281 122.854 44.8281 122.609C44.8281 122.328 44.7604 122.085 44.625 121.879C44.4922 121.673 44.3099 121.514 44.0781 121.402C43.8464 121.29 43.5859 121.234 43.2969 121.234C42.9896 121.234 42.7214 121.298 42.4922 121.426C42.2656 121.551 42.0898 121.727 41.9648 121.953C41.8424 122.18 41.7813 122.445 41.7813 122.75H40.8594C40.8594 122.281 40.9674 121.87 41.1836 121.516C41.3997 121.161 41.694 120.885 42.0664 120.687C42.4414 120.49 42.862 120.391 43.3281 120.391C43.7969 120.391 44.2122 120.49 44.5742 120.687C44.9362 120.885 45.2201 121.152 45.4258 121.488C45.6315 121.824 45.7344 122.198 45.7344 122.609C45.7344 122.904 45.681 123.191 45.5742 123.473C45.4701 123.751 45.2878 124.062 45.0273 124.406C44.7695 124.747 44.4115 125.164 43.9531 125.656L42.1563 127.578V127.641H45.875V128.5H40.8281Z" fill="#B3B3B3"/>
<path d="M61.9961 128.5V127.797L64.6367 124.906C64.9466 124.568 65.2018 124.273 65.4023 124.023C65.6029 123.771 65.7513 123.534 65.8477 123.312C65.9466 123.089 65.9961 122.854 65.9961 122.609C65.9961 122.328 65.9284 122.085 65.793 121.879C65.6602 121.673 65.4779 121.514 65.2461 121.402C65.0143 121.29 64.7539 121.234 64.4648 121.234C64.1576 121.234 63.8893 121.298 63.6602 121.426C63.4336 121.551 63.2578 121.727 63.1328 121.953C63.0104 122.18 62.9492 122.445 62.9492 122.75H62.0273C62.0273 122.281 62.1354 121.87 62.3516 121.516C62.5677 121.161 62.862 120.885 63.2344 120.687C63.6094 120.49 64.0299 120.391 64.4961 120.391C64.9648 120.391 65.3802 120.49 65.7422 120.687C66.1042 120.885 66.388 121.152 66.5938 121.488C66.7995 121.824 66.9023 122.198 66.9023 122.609C66.9023 122.904 66.849 123.191 66.7422 123.473C66.638 123.751 66.4557 124.062 66.1953 124.406C65.9375 124.747 65.5794 125.164 65.1211 125.656L63.3242 127.578V127.641H67.043V128.5H61.9961ZM71.3594 128.609C70.8438 128.609 70.3841 128.521 69.9805 128.344C69.5794 128.167 69.2604 127.921 69.0234 127.605C68.7891 127.288 68.6615 126.919 68.6406 126.5H69.625C69.6458 126.758 69.7344 126.98 69.8906 127.168C70.0469 127.353 70.2513 127.496 70.5039 127.598C70.7565 127.699 71.0365 127.75 71.3438 127.75C71.6875 127.75 71.9922 127.69 72.2578 127.57C72.5234 127.451 72.7318 127.284 72.8828 127.07C73.0339 126.857 73.1094 126.609 73.1094 126.328C73.1094 126.034 73.0365 125.775 72.8906 125.551C72.7448 125.324 72.5313 125.147 72.25 125.02C71.9688 124.892 71.625 124.828 71.2188 124.828H70.5781V123.969H71.2188C71.5365 123.969 71.8151 123.911 72.0547 123.797C72.2969 123.682 72.4857 123.521 72.6211 123.312C72.7591 123.104 72.8281 122.859 72.8281 122.578C72.8281 122.307 72.7682 122.072 72.6484 121.871C72.5286 121.671 72.3594 121.514 72.1406 121.402C71.9245 121.29 71.6693 121.234 71.375 121.234C71.099 121.234 70.8385 121.285 70.5938 121.387C70.3516 121.486 70.1536 121.63 70 121.82C69.8464 122.008 69.763 122.234 69.75 122.5H68.8125C68.8281 122.081 68.9544 121.714 69.1914 121.398C69.4284 121.081 69.7383 120.833 70.1211 120.656C70.5065 120.479 70.9297 120.391 71.3906 120.391C71.8854 120.391 72.3099 120.491 72.6641 120.691C73.0182 120.889 73.2904 121.151 73.4805 121.477C73.6706 121.802 73.7656 122.154 73.7656 122.531C73.7656 122.982 73.6471 123.366 73.4102 123.684C73.1758 124.001 72.8568 124.221 72.4531 124.344V124.406C72.9583 124.49 73.3529 124.704 73.6367 125.051C73.9206 125.395 74.0625 125.82 74.0625 126.328C74.0625 126.763 73.944 127.154 73.707 127.5C73.4727 127.844 73.1523 128.115 72.7461 128.312C72.3398 128.51 71.8776 128.609 71.3594 128.609Z" fill="#B3B3B3"/>
<rect x="84" y="112" width="24" height="24" rx="4" fill="black"/>
<path d="M90.0552 128.5V127.797L92.6958 124.906C93.0057 124.568 93.2609 124.273 93.4614 124.023C93.6619 123.771 93.8104 123.534 93.9067 123.312C94.0057 123.089 94.0552 122.854 94.0552 122.609C94.0552 122.328 93.9875 122.085 93.8521 121.879C93.7192 121.673 93.5369 121.514 93.3052 121.402C93.0734 121.29 92.813 121.234 92.5239 121.234C92.2166 121.234 91.9484 121.298 91.7192 121.426C91.4927 121.551 91.3169 121.727 91.1919 121.953C91.0695 122.18 91.0083 122.445 91.0083 122.75H90.0864C90.0864 122.281 90.1945 121.87 90.4106 121.516C90.6268 121.161 90.9211 120.885 91.2935 120.687C91.6685 120.49 92.089 120.391 92.5552 120.391C93.0239 120.391 93.4393 120.49 93.8013 120.687C94.1632 120.885 94.4471 121.152 94.6528 121.488C94.8586 121.824 94.9614 122.198 94.9614 122.609C94.9614 122.904 94.908 123.191 94.8013 123.473C94.6971 123.751 94.5148 124.062 94.2544 124.406C93.9966 124.747 93.6385 125.164 93.1802 125.656L91.3833 127.578V127.641H95.1021V128.5H90.0552ZM96.356 126.859V126.062L99.8716 120.5H100.45V121.734H100.059L97.4028 125.937V126H102.137V126.859H96.356ZM100.122 128.5V126.617V126.246V120.5H101.043V128.5H100.122Z" fill="white"/>
<path d="M118.152 128.5V127.797L120.792 124.906C121.102 124.568 121.358 124.273 121.558 124.023C121.759 123.771 121.907 123.534 122.003 123.312C122.102 123.089 122.152 122.854 122.152 122.609C122.152 122.328 122.084 122.085 121.949 121.879C121.816 121.673 121.634 121.514 121.402 121.402C121.17 121.29 120.91 121.234 120.621 121.234C120.313 121.234 120.045 121.298 119.816 121.426C119.589 121.551 119.414 121.727 119.289 121.953C119.166 122.18 119.105 122.445 119.105 122.75H118.183C118.183 122.281 118.291 121.87 118.507 121.516C118.723 121.161 119.018 120.885 119.39 120.687C119.765 120.49 120.186 120.391 120.652 120.391C121.121 120.391 121.536 120.49 121.898 120.687C122.26 120.885 122.544 121.152 122.75 121.488C122.955 121.824 123.058 122.198 123.058 122.609C123.058 122.904 123.005 123.191 122.898 123.473C122.794 123.751 122.611 124.062 122.351 124.406C122.093 124.747 121.735 125.164 121.277 125.656L119.48 127.578V127.641H123.199V128.5H118.152ZM127.312 128.609C126.854 128.609 126.441 128.518 126.074 128.336C125.707 128.154 125.412 127.904 125.191 127.586C124.97 127.268 124.848 126.906 124.828 126.5H125.765C125.802 126.862 125.966 127.161 126.257 127.398C126.552 127.633 126.903 127.75 127.312 127.75C127.64 127.75 127.932 127.673 128.187 127.52C128.445 127.366 128.647 127.155 128.792 126.887C128.941 126.616 129.015 126.31 129.015 125.969C129.015 125.62 128.938 125.309 128.785 125.035C128.634 124.759 128.425 124.542 128.16 124.383C127.894 124.224 127.591 124.143 127.25 124.141C127.005 124.138 126.753 124.176 126.496 124.254C126.238 124.329 126.026 124.427 125.859 124.547L124.953 124.437L125.437 120.5H129.593V121.359H126.25L125.968 123.719H126.015C126.179 123.589 126.385 123.48 126.632 123.395C126.88 123.309 127.138 123.266 127.406 123.266C127.895 123.266 128.332 123.383 128.714 123.617C129.1 123.849 129.402 124.167 129.621 124.57C129.842 124.974 129.953 125.435 129.953 125.953C129.953 126.464 129.838 126.919 129.609 127.32C129.382 127.719 129.07 128.034 128.671 128.266C128.273 128.495 127.82 128.609 127.312 128.609Z" fill="#B3B3B3"/>
<path d="M146.066 128.5V127.797L148.707 124.906C149.016 124.568 149.272 124.273 149.472 124.023C149.673 123.771 149.821 123.534 149.917 123.312C150.016 123.089 150.066 122.854 150.066 122.609C150.066 122.328 149.998 122.085 149.863 121.879C149.73 121.673 149.548 121.514 149.316 121.402C149.084 121.29 148.824 121.234 148.535 121.234C148.227 121.234 147.959 121.298 147.73 121.426C147.503 121.551 147.328 121.727 147.203 121.953C147.08 122.18 147.019 122.445 147.019 122.75H146.097C146.097 122.281 146.205 121.87 146.421 121.516C146.638 121.161 146.932 120.885 147.304 120.687C147.679 120.49 148.1 120.391 148.566 120.391C149.035 120.391 149.45 120.49 149.812 120.687C150.174 120.885 150.458 121.152 150.664 121.488C150.869 121.824 150.972 122.198 150.972 122.609C150.972 122.904 150.919 123.191 150.812 123.473C150.708 123.751 150.526 124.062 150.265 124.406C150.007 124.747 149.649 125.164 149.191 125.656L147.394 127.578V127.641H151.113V128.5H146.066ZM155.382 128.609C155.054 128.604 154.726 128.542 154.398 128.422C154.07 128.302 153.77 128.1 153.5 127.816C153.229 127.53 153.011 127.143 152.847 126.656C152.683 126.167 152.601 125.552 152.601 124.812C152.601 124.104 152.667 123.477 152.8 122.93C152.933 122.38 153.126 121.918 153.378 121.543C153.631 121.165 153.936 120.879 154.292 120.684C154.652 120.488 155.057 120.391 155.507 120.391C155.955 120.391 156.354 120.48 156.703 120.66C157.054 120.837 157.341 121.085 157.562 121.402C157.783 121.72 157.927 122.086 157.992 122.5H157.039C156.95 122.141 156.778 121.842 156.523 121.605C156.268 121.368 155.929 121.25 155.507 121.25C154.888 121.25 154.399 121.52 154.042 122.059C153.688 122.598 153.51 123.354 153.507 124.328H153.57C153.716 124.107 153.889 123.918 154.089 123.762C154.292 123.603 154.516 123.48 154.761 123.395C155.006 123.309 155.265 123.266 155.539 123.266C155.997 123.266 156.416 123.38 156.796 123.609C157.177 123.836 157.481 124.15 157.71 124.551C157.94 124.949 158.054 125.406 158.054 125.922C158.054 126.417 157.944 126.87 157.722 127.281C157.501 127.69 157.19 128.016 156.789 128.258C156.39 128.497 155.921 128.615 155.382 128.609ZM155.382 127.75C155.71 127.75 156.005 127.668 156.265 127.504C156.528 127.34 156.735 127.12 156.886 126.844C157.04 126.568 157.117 126.26 157.117 125.922C157.117 125.591 157.042 125.29 156.894 125.02C156.748 124.746 156.546 124.529 156.289 124.367C156.033 124.206 155.742 124.125 155.414 124.125C155.166 124.125 154.936 124.174 154.722 124.273C154.509 124.37 154.321 124.503 154.16 124.672C154.001 124.841 153.876 125.035 153.785 125.254C153.694 125.47 153.648 125.698 153.648 125.937C153.648 126.255 153.722 126.552 153.871 126.828C154.022 127.104 154.227 127.327 154.488 127.496C154.751 127.665 155.049 127.75 155.382 127.75Z" fill="#B3B3B3"/>
<path d="M174.356 128.5V127.797L176.997 124.906C177.306 124.568 177.562 124.273 177.762 124.023C177.963 123.771 178.111 123.534 178.208 123.312C178.306 123.089 178.356 122.854 178.356 122.609C178.356 122.328 178.288 122.085 178.153 121.879C178.02 121.673 177.838 121.514 177.606 121.402C177.374 121.29 177.114 121.234 176.825 121.234C176.517 121.234 176.249 121.298 176.02 121.426C175.793 121.551 175.618 121.727 175.493 121.953C175.37 122.18 175.309 122.445 175.309 122.75H174.387C174.387 122.281 174.495 121.87 174.711 121.516C174.928 121.161 175.222 120.885 175.594 120.687C175.969 120.49 176.39 120.391 176.856 120.391C177.325 120.391 177.74 120.49 178.102 120.687C178.464 120.885 178.748 121.152 178.954 121.488C179.159 121.824 179.262 122.198 179.262 122.609C179.262 122.904 179.209 123.191 179.102 123.473C178.998 123.751 178.816 124.062 178.555 124.406C178.297 124.747 177.939 125.164 177.481 125.656L175.684 127.578V127.641H179.403V128.5H174.356ZM181.266 128.5L184.844 121.422V121.359H180.719V120.5H185.844V121.406L182.282 128.5H181.266Z" fill="black"/>
<path d="M202.109 128.5V127.797L204.75 124.906C205.059 124.568 205.315 124.273 205.515 124.023C205.716 123.771 205.864 123.534 205.96 123.312C206.059 123.089 206.109 122.854 206.109 122.609C206.109 122.328 206.041 122.085 205.906 121.879C205.773 121.673 205.591 121.514 205.359 121.402C205.127 121.29 204.867 121.234 204.578 121.234C204.27 121.234 204.002 121.298 203.773 121.426C203.546 121.551 203.371 121.727 203.246 121.953C203.123 122.18 203.062 122.445 203.062 122.75H202.14C202.14 122.281 202.248 121.87 202.464 121.516C202.681 121.161 202.975 120.885 203.347 120.687C203.722 120.49 204.143 120.391 204.609 120.391C205.078 120.391 205.493 120.49 205.855 120.687C206.217 120.885 206.501 121.152 206.707 121.488C206.912 121.824 207.015 122.198 207.015 122.609C207.015 122.904 206.962 123.191 206.855 123.473C206.751 123.751 206.569 124.062 206.308 124.406C206.05 124.747 205.692 125.164 205.234 125.656L203.437 127.578V127.641H207.156V128.5H202.109ZM211.332 128.609C210.795 128.609 210.321 128.514 209.91 128.324C209.501 128.132 209.182 127.867 208.953 127.531C208.723 127.193 208.61 126.807 208.613 126.375C208.61 126.036 208.677 125.724 208.812 125.437C208.947 125.148 209.132 124.908 209.367 124.715C209.604 124.52 209.868 124.396 210.16 124.344V124.297C209.777 124.198 209.472 123.983 209.246 123.652C209.019 123.319 208.907 122.94 208.91 122.516C208.907 122.109 209.01 121.746 209.218 121.426C209.427 121.105 209.713 120.853 210.078 120.668C210.445 120.483 210.863 120.391 211.332 120.391C211.795 120.391 212.209 120.483 212.574 120.668C212.938 120.853 213.225 121.105 213.433 121.426C213.644 121.746 213.751 122.109 213.753 122.516C213.751 122.94 213.635 123.319 213.406 123.652C213.179 123.983 212.878 124.198 212.503 124.297V124.344C212.792 124.396 213.053 124.52 213.285 124.715C213.516 124.908 213.701 125.148 213.839 125.437C213.977 125.724 214.048 126.036 214.05 126.375C214.048 126.807 213.931 127.193 213.699 127.531C213.47 127.867 213.151 128.132 212.742 128.324C212.335 128.514 211.865 128.609 211.332 128.609ZM211.332 127.75C211.694 127.75 212.006 127.691 212.269 127.574C212.532 127.457 212.735 127.292 212.878 127.078C213.022 126.865 213.095 126.615 213.097 126.328C213.095 126.026 213.016 125.759 212.863 125.527C212.709 125.296 212.5 125.113 212.234 124.98C211.971 124.848 211.67 124.781 211.332 124.781C210.99 124.781 210.686 124.848 210.417 124.98C210.152 125.113 209.942 125.296 209.789 125.527C209.638 125.759 209.563 126.026 209.566 126.328C209.563 126.615 209.632 126.865 209.773 127.078C209.916 127.292 210.121 127.457 210.386 127.574C210.652 127.691 210.967 127.75 211.332 127.75ZM211.332 123.953C211.618 123.953 211.872 123.896 212.093 123.781C212.317 123.667 212.493 123.507 212.621 123.301C212.748 123.095 212.813 122.854 212.816 122.578C212.813 122.307 212.75 122.072 212.625 121.871C212.5 121.668 212.326 121.512 212.105 121.402C211.884 121.29 211.626 121.234 211.332 121.234C211.032 121.234 210.77 121.29 210.546 121.402C210.322 121.512 210.149 121.668 210.027 121.871C209.904 122.072 209.845 122.307 209.847 122.578C209.845 122.854 209.906 123.095 210.031 123.301C210.158 123.507 210.334 123.667 210.558 123.781C210.782 123.896 211.04 123.953 211.332 123.953Z" fill="black"/>
</g>
<g clip-path="url(#clip6_2315_2304)">
<rect y="140" width="24" height="24" rx="4" fill="#787878"/>
<path d="M9.39551 148.5V156.5H8.90723V149.016H8.86035L7.06348 150.207V149.684L8.84473 148.5H9.39551ZM14.3516 156.609C13.8672 156.609 13.431 156.513 13.043 156.32C12.6549 156.125 12.3477 155.862 12.1211 155.531C11.8971 155.201 11.7865 154.829 11.7891 154.418C11.7865 154.092 11.8555 153.786 11.9961 153.5C12.1393 153.214 12.3346 152.97 12.582 152.77C12.8294 152.566 13.112 152.431 13.4297 152.363V152.328C13.026 152.201 12.6966 151.965 12.4414 151.621C12.1888 151.277 12.0625 150.888 12.0625 150.453C12.0625 150.065 12.1628 149.716 12.3633 149.406C12.5664 149.094 12.8411 148.846 13.1875 148.664C13.5339 148.482 13.9219 148.391 14.3516 148.391C14.7734 148.391 15.1576 148.482 15.5039 148.664C15.8503 148.844 16.125 149.09 16.3281 149.402C16.5339 149.712 16.6367 150.062 16.6367 150.453C16.6367 150.885 16.5104 151.275 16.2578 151.621C16.0078 151.965 15.6797 152.201 15.2734 152.328V152.363C15.5885 152.428 15.8685 152.562 16.1133 152.766C16.3607 152.966 16.5547 153.211 16.6953 153.5C16.8385 153.786 16.9115 154.092 16.9141 154.418C16.9115 154.829 16.7969 155.201 16.5703 155.531C16.3464 155.862 16.0404 156.125 15.6523 156.32C15.2669 156.513 14.8333 156.609 14.3516 156.609ZM14.3516 156.156C14.75 156.156 15.1055 156.078 15.418 155.922C15.7305 155.766 15.9766 155.555 16.1563 155.289C16.3359 155.021 16.4271 154.721 16.4297 154.391C16.4271 154.055 16.3333 153.75 16.1484 153.477C15.9661 153.203 15.7188 152.986 15.4063 152.824C15.0938 152.663 14.7422 152.582 14.3516 152.582C13.9583 152.582 13.6042 152.663 13.2891 152.824C12.9766 152.986 12.7279 153.203 12.543 153.477C12.3607 153.75 12.2708 154.055 12.2734 154.391C12.2708 154.721 12.3594 155.021 12.5391 155.289C12.7214 155.555 12.9688 155.766 13.2813 155.922C13.5964 156.078 13.9531 156.156 14.3516 156.156ZM14.3516 152.16C14.6875 152.16 14.9909 152.085 15.2617 151.934C15.5352 151.783 15.7526 151.579 15.9141 151.324C16.0755 151.069 16.1563 150.785 16.1563 150.473C16.1563 150.16 16.0755 149.882 15.9141 149.637C15.7552 149.389 15.5391 149.195 15.2656 149.055C14.9948 148.911 14.6901 148.84 14.3516 148.84C14.0104 148.84 13.7031 148.911 13.4297 149.055C13.1563 149.195 12.9401 149.389 12.7813 149.637C12.6224 149.882 12.543 150.16 12.543 150.473C12.543 150.785 12.6224 151.069 12.7813 151.324C12.9427 151.579 13.1602 151.783 13.4336 151.934C13.707 152.085 14.013 152.16 14.3516 152.16Z" fill="#B3B3B3"/>
<path d="M34.0659 156.5V155.797L36.7065 152.906C37.0164 152.568 37.2716 152.273 37.4722 152.023C37.6727 151.771 37.8211 151.534 37.9175 151.312C38.0164 151.089 38.0659 150.854 38.0659 150.609C38.0659 150.328 37.9982 150.085 37.8628 149.879C37.73 149.673 37.5477 149.514 37.3159 149.402C37.0841 149.29 36.8237 149.234 36.5347 149.234C36.2274 149.234 35.9591 149.298 35.73 149.426C35.5034 149.551 35.3276 149.727 35.2026 149.953C35.0802 150.18 35.019 150.445 35.019 150.75H34.0972C34.0972 150.281 34.2052 149.87 34.4214 149.516C34.6375 149.161 34.9318 148.885 35.3042 148.687C35.6792 148.49 36.0998 148.391 36.5659 148.391C37.0347 148.391 37.45 148.49 37.812 148.687C38.174 148.885 38.4578 149.152 38.6636 149.488C38.8693 149.824 38.9722 150.198 38.9722 150.609C38.9722 150.904 38.9188 151.191 38.812 151.473C38.7078 151.751 38.5256 152.062 38.2651 152.406C38.0073 152.747 37.6493 153.164 37.1909 153.656L35.394 155.578V155.641H39.1128V156.5H34.0659ZM43.2729 148.391C43.6011 148.393 43.9292 148.456 44.2573 148.578C44.5854 148.701 44.8849 148.904 45.1558 149.187C45.4266 149.469 45.644 149.853 45.8081 150.34C45.9722 150.827 46.0542 151.437 46.0542 152.172C46.0542 152.883 45.9865 153.514 45.8511 154.066C45.7183 154.616 45.5256 155.079 45.2729 155.457C45.0229 155.835 44.7183 156.121 44.3589 156.316C44.0021 156.512 43.5985 156.609 43.1479 156.609C42.7 156.609 42.3003 156.521 41.9487 156.344C41.5998 156.164 41.3133 155.915 41.0894 155.598C40.868 155.277 40.7261 154.906 40.6636 154.484H41.6167C41.7026 154.852 41.8732 155.155 42.1284 155.395C42.3862 155.632 42.7261 155.75 43.1479 155.75C43.7651 155.75 44.2521 155.48 44.6089 154.941C44.9683 154.402 45.1479 153.641 45.1479 152.656H45.0854C44.9396 152.875 44.7664 153.064 44.5659 153.223C44.3654 153.382 44.1427 153.504 43.8979 153.59C43.6532 153.676 43.3927 153.719 43.1167 153.719C42.6584 153.719 42.2378 153.605 41.855 153.379C41.4748 153.15 41.1701 152.836 40.9409 152.437C40.7144 152.036 40.6011 151.578 40.6011 151.062C40.6011 150.573 40.7104 150.125 40.9292 149.719C41.1506 149.31 41.4604 148.984 41.8589 148.742C42.2599 148.5 42.7313 148.383 43.2729 148.391ZM43.2729 149.25C42.9448 149.25 42.6493 149.332 42.3862 149.496C42.1258 149.658 41.9188 149.876 41.7651 150.152C41.6141 150.426 41.5386 150.729 41.5386 151.062C41.5386 151.396 41.6115 151.699 41.7573 151.973C41.9058 152.243 42.1076 152.46 42.3628 152.621C42.6206 152.78 42.9136 152.859 43.2417 152.859C43.4891 152.859 43.7196 152.811 43.9331 152.715C44.1466 152.616 44.3328 152.482 44.4917 152.312C44.6532 152.141 44.7795 151.947 44.8706 151.73C44.9618 151.512 45.0073 151.284 45.0073 151.047C45.0073 150.734 44.9318 150.441 44.7808 150.168C44.6323 149.895 44.4266 149.673 44.1636 149.504C43.9032 149.335 43.6063 149.25 43.2729 149.25Z" fill="#B3B3B3"/>
<rect x="56" y="140" width="24" height="24" rx="4" fill="black"/>
<path d="M64.5918 156.609C64.0762 156.609 63.6165 156.521 63.2129 156.344C62.8118 156.167 62.4928 155.921 62.2559 155.605C62.0215 155.288 61.8939 154.919 61.873 154.5H62.8574C62.8783 154.758 62.9668 154.98 63.123 155.168C63.2793 155.353 63.4837 155.496 63.7363 155.598C63.9889 155.699 64.2689 155.75 64.5762 155.75C64.9199 155.75 65.2246 155.69 65.4902 155.57C65.7559 155.451 65.9642 155.284 66.1152 155.07C66.2663 154.857 66.3418 154.609 66.3418 154.328C66.3418 154.034 66.2689 153.775 66.123 153.551C65.9772 153.324 65.7637 153.147 65.4824 153.02C65.2012 152.892 64.8574 152.828 64.4512 152.828H63.8105V151.969H64.4512C64.7689 151.969 65.0475 151.911 65.2871 151.797C65.5293 151.682 65.7181 151.521 65.8535 151.312C65.9915 151.104 66.0605 150.859 66.0605 150.578C66.0605 150.307 66.0007 150.072 65.8809 149.871C65.7611 149.671 65.5918 149.514 65.373 149.402C65.1569 149.29 64.9017 149.234 64.6074 149.234C64.3314 149.234 64.071 149.285 63.8262 149.387C63.584 149.486 63.3861 149.63 63.2324 149.82C63.0788 150.008 62.9954 150.234 62.9824 150.5H62.0449C62.0605 150.081 62.1868 149.714 62.4238 149.398C62.6608 149.081 62.9707 148.833 63.3535 148.656C63.7389 148.479 64.1621 148.391 64.623 148.391C65.1178 148.391 65.5423 148.491 65.8965 148.691C66.2507 148.889 66.5228 149.151 66.7129 149.477C66.903 149.802 66.998 150.154 66.998 150.531C66.998 150.982 66.8796 151.366 66.6426 151.684C66.4082 152.001 66.0892 152.221 65.6855 152.344V152.406C66.1908 152.49 66.5853 152.704 66.8691 153.051C67.153 153.395 67.2949 153.82 67.2949 154.328C67.2949 154.763 67.1764 155.154 66.9395 155.5C66.7051 155.844 66.3848 156.115 65.9785 156.312C65.5723 156.51 65.11 156.609 64.5918 156.609ZM71.502 156.609C70.9134 156.609 70.4121 156.449 69.998 156.129C69.584 155.806 69.2676 155.339 69.0488 154.727C68.8301 154.112 68.7207 153.37 68.7207 152.5C68.7207 151.635 68.8301 150.897 69.0488 150.285C69.2702 149.671 69.5879 149.202 70.002 148.879C70.4186 148.553 70.9186 148.391 71.502 148.391C72.0853 148.391 72.584 148.553 72.998 148.879C73.4147 149.202 73.7324 149.671 73.9512 150.285C74.1725 150.897 74.2832 151.635 74.2832 152.5C74.2832 153.37 74.1738 154.112 73.9551 154.727C73.7363 155.339 73.4199 155.806 73.0059 156.129C72.5918 156.449 72.0905 156.609 71.502 156.609ZM71.502 155.75C72.0853 155.75 72.5384 155.469 72.8613 154.906C73.1842 154.344 73.3457 153.542 73.3457 152.5C73.3457 151.807 73.2715 151.217 73.123 150.73C72.9772 150.243 72.7663 149.872 72.4902 149.617C72.2168 149.362 71.8874 149.234 71.502 149.234C70.9238 149.234 70.472 149.52 70.1465 150.09C69.821 150.658 69.6582 151.461 69.6582 152.5C69.6582 153.193 69.7311 153.781 69.877 154.266C70.0228 154.75 70.2324 155.118 70.5059 155.371C70.7819 155.624 71.1139 155.75 71.502 155.75Z" fill="white"/>
<path d="M97.084 148.5V156.5H96.1152V149.516H96.0684L94.1152 150.812V149.828L96.1152 148.5H97.084Z" fill="#616161"/>
<path d="M121.498 156.5V155.797L124.139 152.906C124.449 152.568 124.704 152.273 124.904 152.023C125.105 151.771 125.253 151.534 125.35 151.312C125.449 151.089 125.498 150.854 125.498 150.609C125.498 150.328 125.43 150.085 125.295 149.879C125.162 149.673 124.98 149.514 124.748 149.402C124.516 149.29 124.256 149.234 123.967 149.234C123.66 149.234 123.391 149.298 123.162 149.426C122.936 149.551 122.76 149.727 122.635 149.953C122.512 150.18 122.451 150.445 122.451 150.75H121.529C121.529 150.281 121.637 149.87 121.854 149.516C122.07 149.161 122.364 148.885 122.736 148.687C123.111 148.49 123.532 148.391 123.998 148.391C124.467 148.391 124.882 148.49 125.244 148.687C125.606 148.885 125.89 149.152 126.096 149.488C126.301 149.824 126.404 150.198 126.404 150.609C126.404 150.904 126.351 151.191 126.244 151.473C126.14 151.751 125.958 152.062 125.697 152.406C125.439 152.747 125.081 153.164 124.623 153.656L122.826 155.578V155.641H126.545V156.5H121.498Z" fill="#616161"/>
<path d="M152.029 156.609C151.514 156.609 151.054 156.521 150.65 156.344C150.249 156.167 149.93 155.921 149.693 155.605C149.459 155.288 149.331 154.919 149.311 154.5H150.295C150.316 154.758 150.404 154.98 150.561 155.168C150.717 155.353 150.921 155.496 151.174 155.598C151.426 155.699 151.706 155.75 152.014 155.75C152.357 155.75 152.662 155.69 152.928 155.57C153.193 155.451 153.402 155.284 153.553 155.07C153.704 154.857 153.779 154.609 153.779 154.328C153.779 154.034 153.706 153.775 153.561 153.551C153.415 153.324 153.201 153.147 152.92 153.02C152.639 152.892 152.295 152.828 151.889 152.828H151.248V151.969H151.889C152.206 151.969 152.485 151.911 152.725 151.797C152.967 151.682 153.156 151.521 153.291 151.312C153.429 151.104 153.498 150.859 153.498 150.578C153.498 150.307 153.438 150.072 153.318 149.871C153.199 149.671 153.029 149.514 152.811 149.402C152.594 149.29 152.339 149.234 152.045 149.234C151.769 149.234 151.508 149.285 151.264 149.387C151.021 149.486 150.824 149.63 150.67 149.82C150.516 150.008 150.433 150.234 150.42 150.5H149.482C149.498 150.081 149.624 149.714 149.861 149.398C150.098 149.081 150.408 148.833 150.791 148.656C151.176 148.479 151.6 148.391 152.061 148.391C152.555 148.391 152.98 148.491 153.334 148.691C153.688 148.889 153.96 149.151 154.15 149.477C154.34 149.802 154.436 150.154 154.436 150.531C154.436 150.982 154.317 151.366 154.08 151.684C153.846 152.001 153.527 152.221 153.123 152.344V152.406C153.628 152.49 154.023 152.704 154.307 153.051C154.59 153.395 154.732 153.82 154.732 154.328C154.732 154.763 154.614 155.154 154.377 155.5C154.143 155.844 153.822 156.115 153.416 156.312C153.01 156.51 152.548 156.609 152.029 156.609Z" fill="#616161"/>
<path d="M177.112 154.859V154.062L180.627 148.5H181.206V149.734H180.815L178.159 153.937V154H182.893V154.859H177.112ZM180.877 156.5V154.617V154.246V148.5H181.799V156.5H180.877Z" fill="#C3C3C3"/>
<path d="M207.982 156.609C207.524 156.609 207.111 156.518 206.744 156.336C206.376 156.154 206.082 155.904 205.861 155.586C205.639 155.268 205.518 154.906 205.498 154.5H206.435C206.472 154.862 206.636 155.161 206.927 155.398C207.222 155.633 207.573 155.75 207.982 155.75C208.31 155.75 208.602 155.673 208.857 155.52C209.115 155.366 209.317 155.155 209.462 154.887C209.611 154.616 209.685 154.31 209.685 153.969C209.685 153.62 209.608 153.309 209.455 153.035C209.304 152.759 209.095 152.542 208.83 152.383C208.564 152.224 208.261 152.143 207.919 152.141C207.675 152.138 207.423 152.176 207.166 152.254C206.908 152.329 206.695 152.427 206.529 152.547L205.623 152.437L206.107 148.5H210.263V149.359H206.919L206.638 151.719H206.685C206.849 151.589 207.055 151.48 207.302 151.395C207.55 151.309 207.807 151.266 208.076 151.266C208.565 151.266 209.001 151.383 209.384 151.617C209.77 151.849 210.072 152.167 210.291 152.57C210.512 152.974 210.623 153.435 210.623 153.953C210.623 154.464 210.508 154.919 210.279 155.32C210.052 155.719 209.74 156.034 209.341 156.266C208.943 156.495 208.49 156.609 207.982 156.609Z" fill="#C3C3C3"/>
</g>
<g clip-path="url(#clip7_2315_2304)">
<rect y="168" width="24" height="24" rx="4" fill="#787878"/>
<path d="M9.44922 176.5V184.5H8.96094V177.016H8.91406L7.11719 178.207V177.684L8.89844 176.5H9.44922ZM14.2842 176.391C14.6201 176.391 14.9391 176.462 15.2412 176.605C15.5433 176.749 15.8102 176.97 16.042 177.27C16.2764 177.566 16.46 177.952 16.5928 178.426C16.7282 178.897 16.7959 179.465 16.7959 180.129C16.7959 180.725 16.7477 181.293 16.6514 181.832C16.5576 182.368 16.4079 182.846 16.2021 183.266C15.9964 183.682 15.7282 184.01 15.3975 184.25C15.0667 184.49 14.6644 184.609 14.1904 184.609C13.7764 184.609 13.4131 184.52 13.1006 184.34C12.7881 184.16 12.5368 183.911 12.3467 183.594C12.1592 183.273 12.0459 182.904 12.0068 182.484H12.4912C12.5459 182.971 12.7204 183.372 13.0146 183.687C13.3089 184 13.7008 184.156 14.1904 184.156C14.8805 184.156 15.4092 183.816 15.7764 183.137C16.1436 182.457 16.3271 181.484 16.3271 180.219H16.2842C16.18 180.469 16.0251 180.69 15.8193 180.883C15.6162 181.073 15.3805 181.221 15.1123 181.328C14.8441 181.435 14.5615 181.488 14.2646 181.488C13.8298 181.488 13.4326 181.378 13.0732 181.156C12.7139 180.935 12.4274 180.632 12.2139 180.246C12.0003 179.861 11.8936 179.424 11.8936 178.938C11.8936 178.479 11.9925 178.056 12.1904 177.668C12.391 177.28 12.6696 176.97 13.0264 176.738C13.3857 176.504 13.805 176.388 14.2842 176.391ZM14.2842 176.844C13.917 176.844 13.5889 176.937 13.2998 177.125C13.0133 177.312 12.7868 177.565 12.6201 177.883C12.4561 178.201 12.374 178.552 12.374 178.938C12.374 179.331 12.4587 179.686 12.6279 180.004C12.7998 180.319 13.0316 180.57 13.3232 180.758C13.6175 180.943 13.9482 181.035 14.3154 181.035C14.6019 181.035 14.8675 180.978 15.1123 180.863C15.3571 180.746 15.5667 180.586 15.7412 180.383C15.9183 180.177 16.0485 179.944 16.1318 179.684C16.2152 179.421 16.236 179.146 16.1943 178.859C16.137 178.443 16.0199 178.085 15.8428 177.785C15.6683 177.483 15.4469 177.251 15.1787 177.09C14.9131 176.926 14.6149 176.844 14.2842 176.844Z" fill="#B3B3B3"/>
<path d="M40.0522 184.609C39.7241 184.604 39.396 184.542 39.0679 184.422C38.7397 184.302 38.4403 184.1 38.1694 183.816C37.8986 183.53 37.6812 183.143 37.5171 182.656C37.353 182.167 37.271 181.552 37.271 180.812C37.271 180.104 37.3374 179.477 37.4702 178.93C37.603 178.38 37.7957 177.918 38.0483 177.543C38.3009 177.165 38.6056 176.879 38.9624 176.684C39.3218 176.488 39.7267 176.391 40.1772 176.391C40.6252 176.391 41.0236 176.48 41.3726 176.66C41.7241 176.837 42.0106 177.085 42.2319 177.402C42.4533 177.72 42.5965 178.086 42.6616 178.5H41.7085C41.62 178.141 41.4481 177.842 41.1929 177.605C40.9377 177.368 40.5991 177.25 40.1772 177.25C39.5575 177.25 39.0692 177.52 38.7124 178.059C38.3582 178.598 38.1799 179.354 38.1772 180.328H38.2397C38.3856 180.107 38.5588 179.918 38.7593 179.762C38.9624 179.603 39.1864 179.48 39.4312 179.395C39.6759 179.309 39.9351 179.266 40.2085 179.266C40.6668 179.266 41.0861 179.38 41.4663 179.609C41.8465 179.836 42.1512 180.15 42.3804 180.551C42.6095 180.949 42.7241 181.406 42.7241 181.922C42.7241 182.417 42.6134 182.87 42.3921 183.281C42.1707 183.69 41.8595 184.016 41.4585 184.258C41.0601 184.497 40.5913 184.615 40.0522 184.609ZM40.0522 183.75C40.3804 183.75 40.6746 183.668 40.9351 183.504C41.1981 183.34 41.4051 183.12 41.5562 182.844C41.7098 182.568 41.7866 182.26 41.7866 181.922C41.7866 181.591 41.7124 181.29 41.564 181.02C41.4181 180.746 41.2163 180.529 40.9585 180.367C40.7033 180.206 40.4116 180.125 40.0835 180.125C39.8361 180.125 39.6056 180.174 39.3921 180.273C39.1785 180.37 38.991 180.503 38.8296 180.672C38.6707 180.841 38.5457 181.035 38.4546 181.254C38.3634 181.47 38.3179 181.698 38.3179 181.937C38.3179 182.255 38.3921 182.552 38.5405 182.828C38.6916 183.104 38.8973 183.327 39.1577 183.496C39.4207 183.665 39.7189 183.75 40.0522 183.75Z" fill="#616161"/>
<path d="M65.936 184.5L69.5142 177.422V177.359H65.3892V176.5H70.5142V177.406L66.9517 184.5H65.936Z" fill="#616161"/>
<path d="M96.0015 184.609C95.465 184.609 94.991 184.514 94.5796 184.324C94.1707 184.132 93.8517 183.867 93.6226 183.531C93.3934 183.193 93.2801 182.807 93.2827 182.375C93.2801 182.036 93.3465 181.724 93.4819 181.437C93.6174 181.148 93.8022 180.908 94.0366 180.715C94.2736 180.52 94.5379 180.396 94.8296 180.344V180.297C94.4468 180.198 94.1421 179.983 93.9155 179.652C93.689 179.319 93.577 178.94 93.5796 178.516C93.577 178.109 93.6799 177.746 93.8882 177.426C94.0965 177.105 94.383 176.853 94.7476 176.668C95.1147 176.483 95.5327 176.391 96.0015 176.391C96.465 176.391 96.8791 176.483 97.2437 176.668C97.6082 176.853 97.8947 177.105 98.103 177.426C98.314 177.746 98.4207 178.109 98.4233 178.516C98.4207 178.94 98.3049 179.319 98.0757 179.652C97.8491 179.983 97.5483 180.198 97.1733 180.297V180.344C97.4624 180.396 97.7228 180.52 97.9546 180.715C98.1864 180.908 98.3713 181.148 98.5093 181.437C98.6473 181.724 98.7176 182.036 98.7202 182.375C98.7176 182.807 98.6004 183.193 98.3687 183.531C98.1395 183.867 97.8205 184.132 97.4116 184.324C97.0054 184.514 96.5353 184.609 96.0015 184.609ZM96.0015 183.75C96.3634 183.75 96.6759 183.691 96.939 183.574C97.202 183.457 97.4051 183.292 97.5483 183.078C97.6916 182.865 97.7645 182.615 97.7671 182.328C97.7645 182.026 97.6864 181.759 97.5327 181.527C97.3791 181.296 97.1694 181.113 96.9038 180.98C96.6408 180.848 96.34 180.781 96.0015 180.781C95.6603 180.781 95.3556 180.848 95.0874 180.98C94.8218 181.113 94.6121 181.296 94.4585 181.527C94.3075 181.759 94.2332 182.026 94.2358 182.328C94.2332 182.615 94.3022 182.865 94.4429 183.078C94.5861 183.292 94.7905 183.457 95.0562 183.574C95.3218 183.691 95.6369 183.75 96.0015 183.75ZM96.0015 179.953C96.2879 179.953 96.5418 179.896 96.7632 179.781C96.9871 179.667 97.1629 179.507 97.2905 179.301C97.4181 179.095 97.4832 178.854 97.4858 178.578C97.4832 178.307 97.4194 178.072 97.2944 177.871C97.1694 177.668 96.9963 177.512 96.7749 177.402C96.5535 177.29 96.2957 177.234 96.0015 177.234C95.702 177.234 95.4403 177.29 95.2163 177.402C94.9924 177.512 94.8192 177.668 94.6968 177.871C94.5744 178.072 94.5145 178.307 94.5171 178.578C94.5145 178.854 94.5757 179.095 94.7007 179.301C94.8283 179.507 95.0041 179.667 95.228 179.781C95.452 179.896 95.7098 179.953 96.0015 179.953Z" fill="#616161"/>
<path d="M123.943 176.391C124.271 176.393 124.599 176.456 124.927 176.578C125.255 176.701 125.555 176.904 125.826 177.187C126.097 177.469 126.314 177.853 126.478 178.34C126.642 178.827 126.724 179.437 126.724 180.172C126.724 180.883 126.656 181.514 126.521 182.066C126.388 182.616 126.195 183.079 125.943 183.457C125.693 183.835 125.388 184.121 125.029 184.316C124.672 184.512 124.268 184.609 123.818 184.609C123.37 184.609 122.97 184.521 122.619 184.344C122.27 184.164 121.983 183.915 121.759 183.598C121.538 183.277 121.396 182.906 121.333 182.484H122.287C122.373 182.852 122.543 183.155 122.798 183.395C123.056 183.632 123.396 183.75 123.818 183.75C124.435 183.75 124.922 183.48 125.279 182.941C125.638 182.402 125.818 181.641 125.818 180.656H125.755C125.61 180.875 125.436 181.064 125.236 181.223C125.035 181.382 124.813 181.504 124.568 181.59C124.323 181.676 124.063 181.719 123.787 181.719C123.328 181.719 122.908 181.605 122.525 181.379C122.145 181.15 121.84 180.836 121.611 180.437C121.384 180.036 121.271 179.578 121.271 179.062C121.271 178.573 121.38 178.125 121.599 177.719C121.82 177.31 122.13 176.984 122.529 176.742C122.93 176.5 123.401 176.383 123.943 176.391ZM123.943 177.25C123.615 177.25 123.319 177.332 123.056 177.496C122.796 177.658 122.589 177.876 122.435 178.152C122.284 178.426 122.208 178.729 122.208 179.062C122.208 179.396 122.281 179.699 122.427 179.973C122.576 180.243 122.778 180.46 123.033 180.621C123.291 180.78 123.583 180.859 123.912 180.859C124.159 180.859 124.389 180.811 124.603 180.715C124.817 180.616 125.003 180.482 125.162 180.312C125.323 180.141 125.449 179.947 125.541 179.73C125.632 179.512 125.677 179.284 125.677 179.047C125.677 178.734 125.602 178.441 125.451 178.168C125.302 177.895 125.097 177.673 124.833 177.504C124.573 177.335 124.276 177.25 123.943 177.25Z" fill="#616161"/>
<path d="M149.646 176.5V184.5H148.678V177.516H148.631L146.678 178.812V177.828L148.678 176.5H149.646ZM154.557 184.609C153.968 184.609 153.467 184.449 153.053 184.129C152.639 183.806 152.322 183.339 152.104 182.727C151.885 182.112 151.775 181.37 151.775 180.5C151.775 179.635 151.885 178.897 152.104 178.285C152.325 177.671 152.643 177.202 153.057 176.879C153.473 176.553 153.973 176.391 154.557 176.391C155.14 176.391 155.639 176.553 156.053 176.879C156.469 177.202 156.787 177.671 157.006 178.285C157.227 178.897 157.338 179.635 157.338 180.5C157.338 181.37 157.229 182.112 157.01 182.727C156.791 183.339 156.475 183.806 156.061 184.129C155.646 184.449 155.145 184.609 154.557 184.609ZM154.557 183.75C155.14 183.75 155.593 183.469 155.916 182.906C156.239 182.344 156.4 181.542 156.4 180.5C156.4 179.807 156.326 179.217 156.178 178.73C156.032 178.243 155.821 177.872 155.545 177.617C155.271 177.362 154.942 177.234 154.557 177.234C153.979 177.234 153.527 177.52 153.201 178.09C152.876 178.658 152.713 179.461 152.713 180.5C152.713 181.193 152.786 181.781 152.932 182.266C153.077 182.75 153.287 183.118 153.561 183.371C153.837 183.624 154.169 183.75 154.557 183.75Z" fill="#616161"/>
<path d="M178.527 176.5V184.5H177.559V177.516H177.512L175.559 178.812V177.828L177.559 176.5H178.527ZM183.641 176.5V184.5H182.672V177.516H182.625L180.672 178.812V177.828L182.672 176.5H183.641Z" fill="#C3C3C3"/>
<path d="M205.754 176.5V184.5H204.785V177.516H204.738L202.785 178.812V177.828L204.785 176.5H205.754ZM208.055 184.5V183.797L210.695 180.906C211.005 180.568 211.26 180.273 211.461 180.023C211.661 179.771 211.81 179.534 211.906 179.312C212.005 179.089 212.055 178.854 212.055 178.609C212.055 178.328 211.987 178.085 211.852 177.879C211.719 177.673 211.536 177.514 211.305 177.402C211.073 177.29 210.813 177.234 210.523 177.234C210.216 177.234 209.948 177.298 209.719 177.426C209.492 177.551 209.316 177.727 209.191 177.953C209.069 178.18 209.008 178.445 209.008 178.75H208.086C208.086 178.281 208.194 177.87 208.41 177.516C208.626 177.161 208.921 176.885 209.293 176.687C209.668 176.49 210.089 176.391 210.555 176.391C211.023 176.391 211.439 176.49 211.801 176.687C212.163 176.885 212.447 177.152 212.652 177.488C212.858 177.824 212.961 178.198 212.961 178.609C212.961 178.904 212.908 179.191 212.801 179.473C212.697 179.751 212.514 180.062 212.254 180.406C211.996 180.747 211.638 181.164 211.18 181.656L209.383 183.578V183.641H213.102V184.5H208.055Z" fill="#C3C3C3"/>
</g>
</g>
<defs>
<clipPath id="clip0_2315_2304">
<rect width="220" height="192" fill="white"/>
</clipPath>
<clipPath id="clip1_2315_2304">
<rect width="220" height="24" fill="white"/>
</clipPath>
<clipPath id="clip2_2315_2304">
<rect width="220" height="24" fill="white" transform="translate(0 28)"/>
</clipPath>
<clipPath id="clip3_2315_2304">
<rect width="220" height="24" fill="white" transform="translate(0 56)"/>
</clipPath>
<clipPath id="clip4_2315_2304">
<rect width="220" height="24" fill="white" transform="translate(0 84)"/>
</clipPath>
<clipPath id="clip5_2315_2304">
<rect width="220" height="24" fill="white" transform="translate(0 112)"/>
</clipPath>
<clipPath id="clip6_2315_2304">
<rect width="220" height="24" fill="white" transform="translate(0 140)"/>
</clipPath>
<clipPath id="clip7_2315_2304">
<rect width="220" height="24" fill="white" transform="translate(0 168)"/>
</clipPath>
</defs>
</svg>
