<svg width="126" height="24" viewBox="0 0 126 24" fill="none" xmlns="http://www.w3.org/2000/svg">
<path d="M9.98999 22.78C9.38999 22.78 8.81999 22.48 8.42999 21.95L7.23001 20.35C7.23001 20.36 7.18 20.33 7.16 20.33H6.79001C3.37001 20.33 1.25 19.4 1.25 14.79V10.79C1.25 6.58001 3.82001 5.48001 5.98001 5.29001C6.22001 5.26001 6.50001 5.25 6.79001 5.25H13.19C16.81 5.25 18.73 7.17001 18.73 10.79V14.79C18.73 15.08 18.72 15.36 18.68 15.63C18.5 17.76 17.4 20.33 13.19 20.33H12.79L11.55 21.95C11.16 22.48 10.59 22.78 9.98999 22.78ZM6.79001 6.75C6.56001 6.75 6.34 6.76 6.13 6.78C3.81 6.98 2.75 8.25001 2.75 10.79V14.79C2.75 18.22 3.81001 18.83 6.79001 18.83H7.19C7.64 18.83 8.14999 19.08 8.42999 19.44L9.63 21.05C9.85001 21.35 10.13 21.35 10.35 21.05L11.55 19.45C11.84 19.06 12.3 18.83 12.79 18.83H13.19C15.73 18.83 17 17.76 17.19 15.48C17.22 15.24 17.23 15.02 17.23 14.79V10.79C17.23 8.00001 15.98 6.75 13.19 6.75H6.79001Z" fill="#292D32"/>
<path d="M9.99023 14.1899C9.43023 14.1899 8.99023 13.7399 8.99023 13.1899C8.99023 12.6399 9.44023 12.1899 9.99023 12.1899C10.5402 12.1899 10.9902 12.6399 10.9902 13.1899C10.9902 13.7399 10.5502 14.1899 9.99023 14.1899Z" fill="#292D32"/>
<path d="M13.1895 14.1899C12.6295 14.1899 12.1895 13.7399 12.1895 13.1899C12.1895 12.6399 12.6395 12.1899 13.1895 12.1899C13.7395 12.1899 14.1895 12.6399 14.1895 13.1899C14.1895 13.7399 13.7395 14.1899 13.1895 14.1899Z" fill="#292D32"/>
<path d="M6.80078 14.1899C6.24078 14.1899 5.80078 13.7399 5.80078 13.1899C5.80078 12.6399 6.25078 12.1899 6.80078 12.1899C7.35078 12.1899 7.80078 12.6399 7.80078 13.1899C7.80078 13.7399 7.35078 14.1899 6.80078 14.1899Z" fill="#292D32"/>
<path d="M17.9396 16.29C17.7396 16.29 17.5396 16.21 17.3996 16.06C17.2396 15.9 17.1697 15.67 17.1997 15.45C17.2297 15.24 17.2396 15.02 17.2396 14.79V10.79C17.2396 8.00001 15.9897 6.75 13.1997 6.75H6.79963C6.56963 6.75 6.34966 6.76 6.13966 6.78C5.91966 6.81 5.68964 6.72999 5.52964 6.57999C5.36964 6.41999 5.27963 6.20001 5.29963 5.98001C5.47963 3.82001 6.58963 1.25 10.7996 1.25H17.1997C20.8197 1.25 22.7396 3.17001 22.7396 6.79001V10.79C22.7396 15 20.1697 16.1 18.0097 16.29C17.9797 16.29 17.9596 16.29 17.9396 16.29ZM6.91966 5.25H13.1896C16.8096 5.25 18.7297 7.17001 18.7297 10.79V14.66C20.4297 14.24 21.2297 12.99 21.2297 10.79V6.79001C21.2297 4.00001 19.9796 2.75 17.1896 2.75H10.7897C8.58965 2.75 7.34966 3.55 6.91966 5.25Z" fill="#292D32"/>
<path d="M56.9763 5.67V20H55.2763V9.47C55.2763 9.33 55.2797 9.18 55.2863 9.02C55.2997 8.86 55.313 8.69667 55.3263 8.53L50.4063 17.49C50.253 17.79 50.0197 17.94 49.7063 17.94H49.4263C49.113 17.94 48.8797 17.79 48.7263 17.49L43.7063 8.49C43.7463 8.84333 43.7663 9.17 43.7663 9.47V20H42.0663V5.67H43.4963C43.6697 5.67 43.803 5.68667 43.8963 5.72C43.9897 5.75333 44.0797 5.84667 44.1663 6L49.1163 14.82C49.1963 14.98 49.273 15.1467 49.3463 15.32C49.4263 15.4933 49.4997 15.67 49.5663 15.85C49.633 15.67 49.703 15.4933 49.7763 15.32C49.8497 15.14 49.9297 14.97 50.0163 14.81L54.8763 6C54.9563 5.84667 55.043 5.75333 55.1363 5.72C55.2363 5.68667 55.373 5.67 55.5463 5.67H56.9763ZM66.688 13.83C66.688 13.4167 66.628 13.04 66.508 12.7C66.3947 12.3533 66.2247 12.0567 65.998 11.81C65.778 11.5567 65.508 11.3633 65.188 11.23C64.868 11.09 64.5047 11.02 64.098 11.02C63.2447 11.02 62.568 11.27 62.068 11.77C61.5747 12.2633 61.268 12.95 61.148 13.83H66.688ZM68.128 18.58C67.908 18.8467 67.6447 19.08 67.338 19.28C67.0314 19.4733 66.7014 19.6333 66.348 19.76C66.0014 19.8867 65.6414 19.98 65.268 20.04C64.8947 20.1067 64.5247 20.14 64.158 20.14C63.458 20.14 62.8114 20.0233 62.218 19.79C61.6314 19.55 61.1214 19.2033 60.688 18.75C60.2614 18.29 59.928 17.7233 59.688 17.05C59.448 16.3767 59.328 15.6033 59.328 14.73C59.328 14.0233 59.4347 13.3633 59.648 12.75C59.868 12.1367 60.1814 11.6067 60.588 11.16C60.9947 10.7067 61.4914 10.3533 62.078 10.1C62.6647 9.84 63.3247 9.71 64.058 9.71C64.6647 9.71 65.2247 9.81333 65.738 10.02C66.258 10.22 66.7047 10.5133 67.078 10.9C67.458 11.28 67.7547 11.7533 67.968 12.32C68.1814 12.88 68.288 13.52 68.288 14.24C68.288 14.52 68.258 14.7067 68.198 14.8C68.138 14.8933 68.0247 14.94 67.858 14.94H61.088C61.108 15.58 61.1947 16.1367 61.348 16.61C61.508 17.0833 61.728 17.48 62.008 17.8C62.288 18.1133 62.6214 18.35 63.008 18.51C63.3947 18.6633 63.828 18.74 64.308 18.74C64.7547 18.74 65.138 18.69 65.458 18.59C65.7847 18.4833 66.0647 18.37 66.298 18.25C66.5314 18.13 66.7247 18.02 66.878 17.92C67.038 17.8133 67.1747 17.76 67.288 17.76C67.4347 17.76 67.548 17.8167 67.628 17.93L68.128 18.58ZM76.3745 11.54C76.2945 11.6867 76.1711 11.76 76.0045 11.76C75.9045 11.76 75.7911 11.7233 75.6645 11.65C75.5378 11.5767 75.3811 11.4967 75.1945 11.41C75.0145 11.3167 74.7978 11.2333 74.5445 11.16C74.2911 11.08 73.9911 11.04 73.6445 11.04C73.3445 11.04 73.0745 11.08 72.8345 11.16C72.5945 11.2333 72.3878 11.3367 72.2145 11.47C72.0478 11.6033 71.9178 11.76 71.8245 11.94C71.7378 12.1133 71.6945 12.3033 71.6945 12.51C71.6945 12.77 71.7678 12.9867 71.9145 13.16C72.0678 13.3333 72.2678 13.4833 72.5145 13.61C72.7611 13.7367 73.0411 13.85 73.3545 13.95C73.6678 14.0433 73.9878 14.1467 74.3145 14.26C74.6478 14.3667 74.9711 14.4867 75.2845 14.62C75.5978 14.7533 75.8778 14.92 76.1245 15.12C76.3711 15.32 76.5678 15.5667 76.7145 15.86C76.8678 16.1467 76.9445 16.4933 76.9445 16.9C76.9445 17.3667 76.8611 17.8 76.6945 18.2C76.5278 18.5933 76.2811 18.9367 75.9545 19.23C75.6278 19.5167 75.2278 19.7433 74.7545 19.91C74.2811 20.0767 73.7345 20.16 73.1145 20.16C72.4078 20.16 71.7678 20.0467 71.1945 19.82C70.6211 19.5867 70.1345 19.29 69.7345 18.93L70.1545 18.25C70.2078 18.1633 70.2711 18.0967 70.3445 18.05C70.4178 18.0033 70.5111 17.98 70.6245 17.98C70.7445 17.98 70.8711 18.0267 71.0045 18.12C71.1378 18.2133 71.2978 18.3167 71.4845 18.43C71.6778 18.5433 71.9111 18.6467 72.1845 18.74C72.4578 18.8333 72.7978 18.88 73.2045 18.88C73.5511 18.88 73.8545 18.8367 74.1145 18.75C74.3745 18.6567 74.5911 18.5333 74.7645 18.38C74.9378 18.2267 75.0645 18.05 75.1445 17.85C75.2311 17.65 75.2745 17.4367 75.2745 17.21C75.2745 16.93 75.1978 16.7 75.0445 16.52C74.8978 16.3333 74.7011 16.1767 74.4545 16.05C74.2078 15.9167 73.9245 15.8033 73.6045 15.71C73.2911 15.61 72.9678 15.5067 72.6345 15.4C72.3078 15.2933 71.9845 15.1733 71.6645 15.04C71.3511 14.9 71.0711 14.7267 70.8245 14.52C70.5778 14.3133 70.3778 14.06 70.2245 13.76C70.0778 13.4533 70.0045 13.0833 70.0045 12.65C70.0045 12.2633 70.0845 11.8933 70.2445 11.54C70.4045 11.18 70.6378 10.8667 70.9445 10.6C71.2511 10.3267 71.6278 10.11 72.0745 9.95C72.5211 9.79 73.0311 9.71 73.6045 9.71C74.2711 9.71 74.8678 9.81667 75.3945 10.03C75.9278 10.2367 76.3878 10.5233 76.7745 10.89L76.3745 11.54ZM85.0268 11.54C84.9468 11.6867 84.8235 11.76 84.6568 11.76C84.5568 11.76 84.4435 11.7233 84.3168 11.65C84.1901 11.5767 84.0335 11.4967 83.8468 11.41C83.6668 11.3167 83.4501 11.2333 83.1968 11.16C82.9435 11.08 82.6435 11.04 82.2968 11.04C81.9968 11.04 81.7268 11.08 81.4868 11.16C81.2468 11.2333 81.0401 11.3367 80.8668 11.47C80.7001 11.6033 80.5701 11.76 80.4768 11.94C80.3901 12.1133 80.3468 12.3033 80.3468 12.51C80.3468 12.77 80.4201 12.9867 80.5668 13.16C80.7201 13.3333 80.9201 13.4833 81.1668 13.61C81.4135 13.7367 81.6935 13.85 82.0068 13.95C82.3201 14.0433 82.6401 14.1467 82.9668 14.26C83.3001 14.3667 83.6235 14.4867 83.9368 14.62C84.2501 14.7533 84.5301 14.92 84.7768 15.12C85.0235 15.32 85.2201 15.5667 85.3668 15.86C85.5201 16.1467 85.5968 16.4933 85.5968 16.9C85.5968 17.3667 85.5135 17.8 85.3468 18.2C85.1801 18.5933 84.9335 18.9367 84.6068 19.23C84.2801 19.5167 83.8801 19.7433 83.4068 19.91C82.9335 20.0767 82.3868 20.16 81.7668 20.16C81.0601 20.16 80.4201 20.0467 79.8468 19.82C79.2735 19.5867 78.7868 19.29 78.3868 18.93L78.8068 18.25C78.8601 18.1633 78.9235 18.0967 78.9968 18.05C79.0701 18.0033 79.1635 17.98 79.2768 17.98C79.3968 17.98 79.5235 18.0267 79.6568 18.12C79.7901 18.2133 79.9501 18.3167 80.1368 18.43C80.3301 18.5433 80.5635 18.6467 80.8368 18.74C81.1101 18.8333 81.4501 18.88 81.8568 18.88C82.2035 18.88 82.5068 18.8367 82.7668 18.75C83.0268 18.6567 83.2435 18.5333 83.4168 18.38C83.5901 18.2267 83.7168 18.05 83.7968 17.85C83.8835 17.65 83.9268 17.4367 83.9268 17.21C83.9268 16.93 83.8501 16.7 83.6968 16.52C83.5501 16.3333 83.3535 16.1767 83.1068 16.05C82.8601 15.9167 82.5768 15.8033 82.2568 15.71C81.9435 15.61 81.6201 15.5067 81.2868 15.4C80.9601 15.2933 80.6368 15.1733 80.3168 15.04C80.0035 14.9 79.7235 14.7267 79.4768 14.52C79.2301 14.3133 79.0301 14.06 78.8768 13.76C78.7301 13.4533 78.6568 13.0833 78.6568 12.65C78.6568 12.2633 78.7368 11.8933 78.8968 11.54C79.0568 11.18 79.2901 10.8667 79.5968 10.6C79.9035 10.3267 80.2801 10.11 80.7268 9.95C81.1735 9.79 81.6835 9.71 82.2568 9.71C82.9235 9.71 83.5201 9.81667 84.0468 10.03C84.5801 10.2367 85.0401 10.5233 85.4268 10.89L85.0268 11.54ZM93.2691 15.44C92.4491 15.4667 91.7491 15.5333 91.1691 15.64C90.5958 15.74 90.1258 15.8733 89.7591 16.04C89.3991 16.2067 89.1358 16.4033 88.9691 16.63C88.8091 16.8567 88.7291 17.11 88.7291 17.39C88.7291 17.6567 88.7725 17.8867 88.8591 18.08C88.9458 18.2733 89.0625 18.4333 89.2091 18.56C89.3625 18.68 89.5391 18.77 89.7391 18.83C89.9458 18.8833 90.1658 18.91 90.3991 18.91C90.7125 18.91 90.9991 18.88 91.2591 18.82C91.5191 18.7533 91.7625 18.66 91.9891 18.54C92.2225 18.42 92.4425 18.2767 92.6491 18.11C92.8625 17.9433 93.0691 17.7533 93.2691 17.54V15.44ZM87.5191 11.3C88.0791 10.76 88.6825 10.3567 89.3291 10.09C89.9758 9.82333 90.6925 9.69 91.4791 9.69C92.0458 9.69 92.5491 9.78333 92.9891 9.97C93.4291 10.1567 93.7991 10.4167 94.0991 10.75C94.3991 11.0833 94.6258 11.4867 94.7791 11.96C94.9325 12.4333 95.0091 12.9533 95.0091 13.52V20H94.2191C94.0458 20 93.9125 19.9733 93.8191 19.92C93.7258 19.86 93.6525 19.7467 93.5991 19.58L93.3991 18.62C93.1325 18.8667 92.8725 19.0867 92.6191 19.28C92.3658 19.4667 92.0991 19.6267 91.8191 19.76C91.5391 19.8867 91.2391 19.9833 90.9191 20.05C90.6058 20.1233 90.2558 20.16 89.8691 20.16C89.4758 20.16 89.1058 20.1067 88.7591 20C88.4125 19.8867 88.1091 19.72 87.8491 19.5C87.5958 19.28 87.3925 19.0033 87.2391 18.67C87.0925 18.33 87.0191 17.93 87.0191 17.47C87.0191 17.07 87.1291 16.6867 87.3491 16.32C87.5691 15.9467 87.9258 15.6167 88.4191 15.33C88.9125 15.0433 89.5558 14.81 90.3491 14.63C91.1425 14.4433 92.1158 14.3367 93.2691 14.31V13.52C93.2691 12.7333 93.0991 12.14 92.7591 11.74C92.4191 11.3333 91.9225 11.13 91.2691 11.13C90.8291 11.13 90.4591 11.1867 90.1591 11.3C89.8658 11.4067 89.6091 11.53 89.3891 11.67C89.1758 11.8033 88.9891 11.9267 88.8291 12.04C88.6758 12.1467 88.5225 12.2 88.3691 12.2C88.2491 12.2 88.1458 12.17 88.0591 12.11C87.9725 12.0433 87.8991 11.9633 87.8391 11.87L87.5191 11.3ZM101.251 15.05C101.611 15.05 101.927 15 102.201 14.9C102.474 14.8 102.704 14.66 102.891 14.48C103.077 14.3 103.217 14.0867 103.311 13.84C103.404 13.5867 103.451 13.31 103.451 13.01C103.451 12.39 103.261 11.8967 102.881 11.53C102.507 11.1633 101.964 10.98 101.251 10.98C100.531 10.98 99.9805 11.1633 99.6005 11.53C99.2272 11.8967 99.0405 12.39 99.0405 13.01C99.0405 13.31 99.0872 13.5867 99.1805 13.84C99.2805 14.0867 99.4239 14.3 99.6105 14.48C99.7972 14.66 100.027 14.8 100.301 14.9C100.574 15 100.891 15.05 101.251 15.05ZM104.461 20.55C104.461 20.3033 104.391 20.1033 104.251 19.95C104.111 19.7967 103.921 19.6767 103.681 19.59C103.447 19.5033 103.174 19.4433 102.861 19.41C102.547 19.37 102.214 19.34 101.861 19.32C101.514 19.3 101.161 19.28 100.801 19.26C100.441 19.24 100.094 19.2067 99.7605 19.16C99.3872 19.3333 99.0805 19.5533 98.8405 19.82C98.6072 20.08 98.4905 20.3867 98.4905 20.74C98.4905 20.9667 98.5472 21.1767 98.6605 21.37C98.7805 21.57 98.9605 21.74 99.2005 21.88C99.4405 22.0267 99.7405 22.14 100.101 22.22C100.467 22.3067 100.897 22.35 101.391 22.35C101.871 22.35 102.301 22.3067 102.681 22.22C103.061 22.1333 103.381 22.01 103.641 21.85C103.907 21.69 104.111 21.5 104.251 21.28C104.391 21.06 104.461 20.8167 104.461 20.55ZM106.271 10.27V10.93C106.271 11.15 106.131 11.29 105.851 11.35L104.701 11.5C104.927 11.94 105.041 12.4267 105.041 12.96C105.041 13.4533 104.944 13.9033 104.751 14.31C104.564 14.71 104.304 15.0533 103.971 15.34C103.637 15.6267 103.237 15.8467 102.771 16C102.304 16.1533 101.797 16.23 101.251 16.23C100.777 16.23 100.331 16.1733 99.9105 16.06C99.6972 16.1933 99.5339 16.3367 99.4205 16.49C99.3072 16.6367 99.2505 16.7867 99.2505 16.94C99.2505 17.18 99.3472 17.3633 99.5405 17.49C99.7405 17.61 100.001 17.6967 100.321 17.75C100.641 17.8033 101.004 17.8367 101.411 17.85C101.824 17.8633 102.244 17.8867 102.671 17.92C103.104 17.9467 103.524 17.9967 103.931 18.07C104.344 18.1433 104.711 18.2633 105.031 18.43C105.351 18.5967 105.607 18.8267 105.801 19.12C106.001 19.4133 106.101 19.7933 106.101 20.26C106.101 20.6933 105.991 21.1133 105.771 21.52C105.557 21.9267 105.247 22.2867 104.841 22.6C104.434 22.92 103.934 23.1733 103.341 23.36C102.754 23.5533 102.091 23.65 101.351 23.65C100.611 23.65 99.9639 23.5767 99.4105 23.43C98.8572 23.2833 98.3972 23.0867 98.0305 22.84C97.6639 22.5933 97.3872 22.3067 97.2005 21.98C97.0205 21.66 96.9305 21.3233 96.9305 20.97C96.9305 20.47 97.0872 20.0467 97.4005 19.7C97.7139 19.3533 98.1439 19.0767 98.6905 18.87C98.3905 18.7367 98.1505 18.56 97.9705 18.34C97.7972 18.1133 97.7105 17.81 97.7105 17.43C97.7105 17.2833 97.7372 17.1333 97.7905 16.98C97.8439 16.82 97.9239 16.6633 98.0305 16.51C98.1439 16.35 98.2805 16.2 98.4405 16.06C98.6005 15.92 98.7872 15.7967 99.0005 15.69C98.5005 15.41 98.1105 15.04 97.8305 14.58C97.5505 14.1133 97.4105 13.5733 97.4105 12.96C97.4105 12.4667 97.5039 12.02 97.6905 11.62C97.8839 11.2133 98.1505 10.87 98.4905 10.59C98.8305 10.3033 99.2339 10.0833 99.7005 9.93C100.174 9.77667 100.691 9.7 101.251 9.7C101.691 9.7 102.101 9.75 102.481 9.85C102.861 9.94333 103.207 10.0833 103.521 10.27H106.271ZM114.735 13.83C114.735 13.4167 114.675 13.04 114.555 12.7C114.442 12.3533 114.272 12.0567 114.045 11.81C113.825 11.5567 113.555 11.3633 113.235 11.23C112.915 11.09 112.552 11.02 112.145 11.02C111.292 11.02 110.615 11.27 110.115 11.77C109.622 12.2633 109.315 12.95 109.195 13.83H114.735ZM116.175 18.58C115.955 18.8467 115.692 19.08 115.385 19.28C115.078 19.4733 114.748 19.6333 114.395 19.76C114.048 19.8867 113.688 19.98 113.315 20.04C112.942 20.1067 112.572 20.14 112.205 20.14C111.505 20.14 110.858 20.0233 110.265 19.79C109.678 19.55 109.168 19.2033 108.735 18.75C108.308 18.29 107.975 17.7233 107.735 17.05C107.495 16.3767 107.375 15.6033 107.375 14.73C107.375 14.0233 107.482 13.3633 107.695 12.75C107.915 12.1367 108.228 11.6067 108.635 11.16C109.042 10.7067 109.538 10.3533 110.125 10.1C110.712 9.84 111.372 9.71 112.105 9.71C112.712 9.71 113.272 9.81333 113.785 10.02C114.305 10.22 114.752 10.5133 115.125 10.9C115.505 11.28 115.802 11.7533 116.015 12.32C116.228 12.88 116.335 13.52 116.335 14.24C116.335 14.52 116.305 14.7067 116.245 14.8C116.185 14.8933 116.072 14.94 115.905 14.94H109.135C109.155 15.58 109.242 16.1367 109.395 16.61C109.555 17.0833 109.775 17.48 110.055 17.8C110.335 18.1133 110.668 18.35 111.055 18.51C111.442 18.6633 111.875 18.74 112.355 18.74C112.802 18.74 113.185 18.69 113.505 18.59C113.832 18.4833 114.112 18.37 114.345 18.25C114.578 18.13 114.772 18.02 114.925 17.92C115.085 17.8133 115.222 17.76 115.335 17.76C115.482 17.76 115.595 17.8167 115.675 17.93L116.175 18.58ZM124.421 11.54C124.341 11.6867 124.218 11.76 124.051 11.76C123.951 11.76 123.838 11.7233 123.711 11.65C123.585 11.5767 123.428 11.4967 123.241 11.41C123.061 11.3167 122.845 11.2333 122.591 11.16C122.338 11.08 122.038 11.04 121.691 11.04C121.391 11.04 121.121 11.08 120.881 11.16C120.641 11.2333 120.435 11.3367 120.261 11.47C120.095 11.6033 119.965 11.76 119.871 11.94C119.785 12.1133 119.741 12.3033 119.741 12.51C119.741 12.77 119.815 12.9867 119.961 13.16C120.115 13.3333 120.315 13.4833 120.561 13.61C120.808 13.7367 121.088 13.85 121.401 13.95C121.715 14.0433 122.035 14.1467 122.361 14.26C122.695 14.3667 123.018 14.4867 123.331 14.62C123.645 14.7533 123.925 14.92 124.171 15.12C124.418 15.32 124.615 15.5667 124.761 15.86C124.915 16.1467 124.991 16.4933 124.991 16.9C124.991 17.3667 124.908 17.8 124.741 18.2C124.575 18.5933 124.328 18.9367 124.001 19.23C123.675 19.5167 123.275 19.7433 122.801 19.91C122.328 20.0767 121.781 20.16 121.161 20.16C120.455 20.16 119.815 20.0467 119.241 19.82C118.668 19.5867 118.181 19.29 117.781 18.93L118.201 18.25C118.255 18.1633 118.318 18.0967 118.391 18.05C118.465 18.0033 118.558 17.98 118.671 17.98C118.791 17.98 118.918 18.0267 119.051 18.12C119.185 18.2133 119.345 18.3167 119.531 18.43C119.725 18.5433 119.958 18.6467 120.231 18.74C120.505 18.8333 120.845 18.88 121.251 18.88C121.598 18.88 121.901 18.8367 122.161 18.75C122.421 18.6567 122.638 18.5333 122.811 18.38C122.985 18.2267 123.111 18.05 123.191 17.85C123.278 17.65 123.321 17.4367 123.321 17.21C123.321 16.93 123.245 16.7 123.091 16.52C122.945 16.3333 122.748 16.1767 122.501 16.05C122.255 15.9167 121.971 15.8033 121.651 15.71C121.338 15.61 121.015 15.5067 120.681 15.4C120.355 15.2933 120.031 15.1733 119.711 15.04C119.398 14.9 119.118 14.7267 118.871 14.52C118.625 14.3133 118.425 14.06 118.271 13.76C118.125 13.4533 118.051 13.0833 118.051 12.65C118.051 12.2633 118.131 11.8933 118.291 11.54C118.451 11.18 118.685 10.8667 118.991 10.6C119.298 10.3267 119.675 10.11 120.121 9.95C120.568 9.79 121.078 9.71 121.651 9.71C122.318 9.71 122.915 9.81667 123.441 10.03C123.975 10.2367 124.435 10.5233 124.821 10.89L124.421 11.54Z" fill="black"/>
</svg>
