<svg width="64" height="66" viewBox="0 0 64 66" fill="none" xmlns="http://www.w3.org/2000/svg">
<path d="M40.0006 62.5623H24.0007C9.52065 62.5623 3.33398 56.1823 3.33398 41.2498V24.7498C3.33398 9.81726 9.52065 3.43726 24.0007 3.43726H40.0006C54.4806 3.43726 60.6673 9.81726 60.6673 24.7498V41.2498C60.6673 56.1823 54.4806 62.5623 40.0006 62.5623ZM24.0007 7.56226C11.7073 7.56226 7.33398 12.0723 7.33398 24.7498V41.2498C7.33398 53.9273 11.7073 58.4373 24.0007 58.4373H40.0006C52.294 58.4373 56.6673 53.9273 56.6673 41.2498V24.7498C56.6673 12.0723 52.294 7.56226 40.0006 7.56226H24.0007Z" fill="#292D32"/>
<path d="M24.0013 29.5625C19.948 29.5625 16.668 26.18 16.668 22C16.668 17.82 19.948 14.4375 24.0013 14.4375C28.0546 14.4375 31.3346 17.82 31.3346 22C31.3346 26.18 28.0546 29.5625 24.0013 29.5625ZM24.0013 18.5625C22.1613 18.5625 20.668 20.1025 20.668 22C20.668 23.8975 22.1613 25.4375 24.0013 25.4375C25.8413 25.4375 27.3346 23.8975 27.3346 22C27.3346 20.1025 25.8413 18.5625 24.0013 18.5625Z" fill="#292D32"/>
<path d="M7.12069 54.1748C6.48069 54.1748 5.84069 53.8448 5.46736 53.2673C4.85403 52.3323 5.09403 51.0398 6.02736 50.4073L19.174 41.3048C22.054 39.2973 26.0274 39.5448 28.6407 41.8273L29.5207 42.6248C30.854 43.8073 33.1207 43.8073 34.4274 42.6248L45.5207 32.8073C48.3474 30.3048 52.8007 30.3048 55.654 32.8073L60.0007 36.6573C60.8274 37.3998 60.934 38.6923 60.214 39.5723C59.494 40.4248 58.2407 40.5348 57.3874 39.7923L53.0407 35.9423C51.7074 34.7598 49.4407 34.7598 48.1074 35.9423L37.014 45.7598C34.1874 48.2623 29.734 48.2623 26.8807 45.7598L26.0007 44.9623C24.774 43.8898 22.7474 43.7798 21.3874 44.7423L8.24069 53.8448C7.89403 54.0648 7.49403 54.1748 7.12069 54.1748Z" fill="#292D32"/>
</svg>
