<svg width="48" height="48" viewBox="0 0 48 48" fill="none" xmlns="http://www.w3.org/2000/svg">
<rect width="48" height="48" rx="16" fill="#323232"/>
<path d="M17.1738 33.1999C16.6272 33.1999 16.1738 32.7466 16.1738 32.1999V29.4399C16.1738 28.8933 16.6272 28.4399 17.1738 28.4399C17.7205 28.4399 18.1738 28.8933 18.1738 29.4399V32.1999C18.1738 32.7599 17.7205 33.1999 17.1738 33.1999Z" fill="#FDFDFD"/>
<path d="M24 33.2001C23.4533 33.2001 23 32.7467 23 32.2001V26.6667C23 26.1201 23.4533 25.6667 24 25.6667C24.5467 25.6667 25 26.1201 25 26.6667V32.2001C25 32.7601 24.5467 33.2001 24 33.2001Z" fill="#FDFDFD"/>
<path d="M30.8262 33.2001C30.2795 33.2001 29.8262 32.7467 29.8262 32.2001V23.9067C29.8262 23.3601 30.2795 22.9067 30.8262 22.9067C31.3728 22.9067 31.8262 23.3601 31.8262 23.9067V32.2001C31.8262 32.7601 31.3862 33.2001 30.8262 33.2001Z" fill="#FDFDFD"/>
<path d="M17.1734 25.5734C16.7201 25.5734 16.3201 25.2667 16.2001 24.8134C16.0668 24.2801 16.3868 23.7334 16.9334 23.6001C21.8401 22.3734 26.1601 19.6934 29.4534 15.8667L30.0668 15.1467C30.4268 14.7334 31.0534 14.6801 31.4801 15.0401C31.8934 15.4001 31.9468 16.0267 31.5868 16.4534L30.9734 17.1734C27.4134 21.3334 22.7201 24.2267 17.4134 25.5467C17.3334 25.5734 17.2534 25.5734 17.1734 25.5734Z" fill="#FDFDFD"/>
<path d="M30.8266 20.6934C30.2799 20.6934 29.8266 20.24 29.8266 19.6934V16.8H26.9199C26.3733 16.8 25.9199 16.3467 25.9199 15.8C25.9199 15.2534 26.3733 14.8 26.9199 14.8H30.8266C31.3733 14.8 31.8266 15.2534 31.8266 15.8V19.7067C31.8266 20.2534 31.3866 20.6934 30.8266 20.6934Z" fill="#FDFDFD"/>
<path d="M27.9993 38.3334H19.9993C12.7593 38.3334 9.66602 35.2401 9.66602 28.0001V20.0001C9.66602 12.7601 12.7593 9.66675 19.9993 9.66675H27.9993C35.2393 9.66675 38.3327 12.7601 38.3327 20.0001V28.0001C38.3327 35.2401 35.2393 38.3334 27.9993 38.3334ZM19.9993 11.6667C13.8527 11.6667 11.666 13.8534 11.666 20.0001V28.0001C11.666 34.1467 13.8527 36.3334 19.9993 36.3334H27.9993C34.146 36.3334 36.3327 34.1467 36.3327 28.0001V20.0001C36.3327 13.8534 34.146 11.6667 27.9993 11.6667H19.9993Z" fill="#292D32"/>
</svg>
