<svg width="48" height="48" viewBox="0 0 48 48" fill="none" xmlns="http://www.w3.org/2000/svg">
<rect width="48" height="48" rx="16" fill="#323232"/>
<path d="M27.9993 38.3334H19.9993C12.7593 38.3334 9.66602 35.2401 9.66602 28.0001V20.0001C9.66602 12.7601 12.7593 9.66675 19.9993 9.66675H27.9993C35.2393 9.66675 38.3327 12.7601 38.3327 20.0001V28.0001C38.3327 35.2401 35.2393 38.3334 27.9993 38.3334ZM19.9993 11.6667C13.8527 11.6667 11.666 13.8534 11.666 20.0001V28.0001C11.666 34.1467 13.8527 36.3334 19.9993 36.3334H27.9993C34.146 36.3334 36.3327 34.1467 36.3327 28.0001V20.0001C36.3327 13.8534 34.146 11.6667 27.9993 11.6667H19.9993Z" fill="#FDFDFD"/>
<path d="M28.666 22C27.0127 22 25.666 20.6533 25.666 19C25.666 17.3467 27.0127 16 28.666 16C30.3193 16 31.666 17.3467 31.666 19C31.666 20.6533 30.3193 22 28.666 22ZM28.666 18C28.1193 18 27.666 18.4533 27.666 19C27.666 19.5467 28.1193 20 28.666 20C29.2127 20 29.666 19.5467 29.666 19C29.666 18.4533 29.2127 18 28.666 18Z" fill="#FDFDFD"/>
<path d="M19.334 22C17.6807 22 16.334 20.6533 16.334 19C16.334 17.3467 17.6807 16 19.334 16C20.9873 16 22.334 17.3467 22.334 19C22.334 20.6533 20.9873 22 19.334 22ZM19.334 18C18.7873 18 18.334 18.4533 18.334 19C18.334 19.5467 18.7873 20 19.334 20C19.8807 20 20.334 19.5467 20.334 19C20.334 18.4533 19.8807 18 19.334 18Z" fill="#FDFDFD"/>
<path d="M24 33.9334C20.1333 33.9334 17 30.7867 17 26.9334C17 25.7201 17.9867 24.7334 19.2 24.7334H28.8C30.0133 24.7334 31 25.7201 31 26.9334C31 30.7867 27.8667 33.9334 24 33.9334ZM19.2 26.7334C19.0933 26.7334 19 26.8267 19 26.9334C19 29.6934 21.24 31.9334 24 31.9334C26.76 31.9334 29 29.6934 29 26.9334C29 26.8267 28.9067 26.7334 28.8 26.7334H19.2Z" fill="#FDFDFD"/>
</svg>
