<svg width="316" height="128" viewBox="0 0 316 128" fill="none" xmlns="http://www.w3.org/2000/svg">
<rect x="10" width="20" height="96" rx="10" fill="#F4F4F4"/>
<rect x="10" y="22" width="20" height="74" rx="10" fill="#3E3E3E"/>
<path opacity="0.4" d="M10.1647 116.106H11.1786L13.7648 122.542L16.3457 116.106H17.365L14.1552 124H13.3636L10.1647 116.106ZM9.83398 116.106H10.7286L10.875 120.92V124H9.83398V116.106ZM16.7957 116.106H17.6903V124H16.6493V120.92L16.7957 116.106ZM19.1108 121.132V121.007C19.1108 120.584 19.1723 120.192 19.2952 119.831C19.4181 119.466 19.5952 119.149 19.8265 118.882C20.0578 118.611 20.338 118.401 20.6669 118.253C20.9958 118.101 21.3645 118.025 21.773 118.025C22.185 118.025 22.5555 118.101 22.8844 118.253C23.217 118.401 23.4989 118.611 23.7302 118.882C23.9652 119.149 24.1441 119.466 24.267 119.831C24.3899 120.192 24.4514 120.584 24.4514 121.007V121.132C24.4514 121.555 24.3899 121.947 24.267 122.308C24.1441 122.67 23.9652 122.986 23.7302 123.257C23.4989 123.525 23.2188 123.734 22.8899 123.886C22.5645 124.034 22.1959 124.108 21.7838 124.108C21.3717 124.108 21.0012 124.034 20.6723 123.886C20.3434 123.734 20.0614 123.525 19.8265 123.257C19.5952 122.986 19.4181 122.67 19.2952 122.308C19.1723 121.947 19.1108 121.555 19.1108 121.132ZM20.1139 121.007V121.132C20.1139 121.425 20.1482 121.701 20.2169 121.961C20.2856 122.218 20.3886 122.446 20.5259 122.645C20.6669 122.843 20.8422 123.001 21.0518 123.116C21.2615 123.228 21.5055 123.284 21.7838 123.284C22.0585 123.284 22.2989 123.228 22.5049 123.116C22.7146 123.001 22.8881 122.843 23.0254 122.645C23.1628 122.446 23.2658 122.218 23.3345 121.961C23.4067 121.701 23.4429 121.425 23.4429 121.132V121.007C23.4429 120.718 23.4067 120.445 23.3345 120.188C23.2658 119.928 23.161 119.699 23.02 119.5C22.8826 119.297 22.7091 119.138 22.4995 119.023C22.2935 118.907 22.0513 118.849 21.773 118.849C21.4982 118.849 21.2561 118.907 21.0464 119.023C20.8404 119.138 20.6669 119.297 20.5259 119.5C20.3886 119.699 20.2856 119.928 20.2169 120.188C20.1482 120.445 20.1139 120.718 20.1139 121.007ZM26.7123 119.386V124H25.7092V118.134H26.6581L26.7123 119.386ZM26.4737 120.844L26.0562 120.828C26.0599 120.427 26.1195 120.056 26.2352 119.717C26.3508 119.373 26.5135 119.075 26.7231 118.822C26.9328 118.569 27.1822 118.374 27.4713 118.237C27.7641 118.096 28.0876 118.025 28.4419 118.025C28.731 118.025 28.9913 118.065 29.2226 118.144C29.4539 118.22 29.6509 118.343 29.8136 118.513C29.9799 118.683 30.1064 118.903 30.1931 119.175C30.2799 119.442 30.3233 119.769 30.3233 120.156V124H29.3148V120.145C29.3148 119.838 29.2696 119.592 29.1792 119.408C29.0889 119.22 28.9569 119.084 28.7834 119.001C28.6099 118.914 28.3967 118.871 28.1437 118.871C27.8943 118.871 27.6665 118.923 27.4605 119.028C27.2581 119.133 27.0828 119.278 26.9346 119.462C26.79 119.646 26.6761 119.858 26.593 120.096C26.5135 120.331 26.4737 120.581 26.4737 120.844Z" fill="#0E0E0E"/>
<rect x="56" width="20" height="96" rx="10" fill="#F4F4F4"/>
<rect x="56" y="70" width="20" height="26" rx="10" fill="#3E3E3E"/>
<path opacity="0.4" d="M60.7733 116.106V124H59.7432V116.106H60.7733ZM63.3107 116.106V116.962H57.2111V116.106H63.3107ZM67.3988 122.645V118.134H68.4073V124H67.4476L67.3988 122.645ZM67.5886 121.408L68.0061 121.397C68.0061 121.788 67.9645 122.149 67.8814 122.482C67.8019 122.811 67.6717 123.096 67.491 123.339C67.3103 123.581 67.0735 123.77 66.7808 123.908C66.488 124.042 66.1319 124.108 65.7126 124.108C65.4271 124.108 65.165 124.067 64.9265 123.984C64.6915 123.901 64.4891 123.772 64.3192 123.599C64.1493 123.425 64.0174 123.199 63.9234 122.921C63.8331 122.643 63.7879 122.308 63.7879 121.918V118.134H64.7909V121.929C64.7909 122.193 64.8198 122.411 64.8777 122.585C64.9391 122.755 65.0204 122.89 65.1217 122.992C65.2265 123.089 65.3421 123.158 65.4687 123.198C65.5988 123.237 65.7325 123.257 65.8699 123.257C66.2964 123.257 66.6344 123.176 66.8838 123.013C67.1332 122.847 67.3121 122.625 67.4205 122.346C67.5326 122.064 67.5886 121.752 67.5886 121.408ZM72.3707 124.108C71.9623 124.108 71.5918 124.04 71.2592 123.902C70.9303 123.761 70.6465 123.564 70.408 123.311C70.173 123.058 69.9923 122.758 69.8658 122.411C69.7393 122.064 69.676 121.685 69.676 121.273V121.045C69.676 120.568 69.7465 120.143 69.8875 119.771C70.0285 119.395 70.22 119.077 70.4622 118.817C70.7044 118.556 70.9791 118.359 71.2863 118.226C71.5936 118.092 71.9117 118.025 72.2406 118.025C72.6599 118.025 73.0213 118.097 73.325 118.242C73.6322 118.387 73.8834 118.589 74.0786 118.849C74.2738 119.106 74.4184 119.409 74.5123 119.76C74.6063 120.107 74.6533 120.487 74.6533 120.899V121.349H70.2724V120.53H73.6503V120.454C73.6358 120.194 73.5816 119.941 73.4876 119.695C73.3972 119.449 73.2527 119.247 73.0539 119.088C72.8551 118.929 72.584 118.849 72.2406 118.849C72.0129 118.849 71.8032 118.898 71.6116 118.996C71.4201 119.09 71.2556 119.231 71.1182 119.419C70.9809 119.606 70.8743 119.836 70.7984 120.107C70.7225 120.378 70.6845 120.691 70.6845 121.045V121.273C70.6845 121.551 70.7225 121.813 70.7984 122.059C70.8779 122.301 70.9917 122.514 71.1399 122.699C71.2917 122.883 71.4743 123.028 71.6875 123.132C71.9044 123.237 72.1502 123.29 72.4249 123.29C72.7792 123.29 73.0792 123.217 73.325 123.073C73.5707 122.928 73.7858 122.735 73.9702 122.493L74.5774 122.975C74.4509 123.167 74.29 123.349 74.0949 123.523C73.8997 123.696 73.6593 123.837 73.3737 123.946C73.0918 124.054 72.7575 124.108 72.3707 124.108Z" fill="#0E0E0E"/>
<rect x="102" width="20" height="96" rx="10" fill="#F4F4F4"/>
<rect x="102" y="58" width="20" height="38" rx="10" fill="#3E3E3E"/>
<path opacity="0.4" d="M104.073 121.614L105.64 116.106H106.399L105.96 118.247L104.274 124H103.52L104.073 121.614ZM102.452 116.106L103.699 121.506L104.073 124H103.325L101.411 116.106H102.452ZM108.427 121.501L109.647 116.106H110.693L108.785 124H108.037L108.427 121.501ZM106.513 116.106L108.037 121.614L108.59 124H107.836L106.209 118.247L105.765 116.106H106.513ZM113.963 124.108C113.554 124.108 113.184 124.04 112.851 123.902C112.522 123.761 112.239 123.564 112 123.311C111.765 123.058 111.584 122.758 111.458 122.411C111.331 122.064 111.268 121.685 111.268 121.273V121.045C111.268 120.568 111.339 120.143 111.48 119.771C111.62 119.395 111.812 119.077 112.054 118.817C112.296 118.556 112.571 118.359 112.878 118.226C113.186 118.092 113.504 118.025 113.833 118.025C114.252 118.025 114.613 118.097 114.917 118.242C115.224 118.387 115.475 118.589 115.671 118.849C115.866 119.106 116.01 119.409 116.104 119.76C116.198 120.107 116.245 120.487 116.245 120.899V121.349H111.864V120.53H115.242V120.454C115.228 120.194 115.174 119.941 115.08 119.695C114.989 119.449 114.845 119.247 114.646 119.088C114.447 118.929 114.176 118.849 113.833 118.849C113.605 118.849 113.395 118.898 113.204 118.996C113.012 119.09 112.848 119.231 112.71 119.419C112.573 119.606 112.466 119.836 112.39 120.107C112.314 120.378 112.277 120.691 112.277 121.045V121.273C112.277 121.551 112.314 121.813 112.39 122.059C112.47 122.301 112.584 122.514 112.732 122.699C112.884 122.883 113.066 123.028 113.28 123.132C113.496 123.237 113.742 123.29 114.017 123.29C114.371 123.29 114.671 123.217 114.917 123.073C115.163 122.928 115.378 122.735 115.562 122.493L116.169 122.975C116.043 123.167 115.882 123.349 115.687 123.523C115.492 123.696 115.251 123.837 114.966 123.946C114.684 124.054 114.349 124.108 113.963 124.108ZM121.114 122.861V115.672H122.123V124H121.201L121.114 122.861ZM117.167 121.132V121.018C117.167 120.57 117.221 120.163 117.33 119.798C117.442 119.429 117.599 119.113 117.801 118.849C118.007 118.585 118.251 118.383 118.533 118.242C118.819 118.097 119.137 118.025 119.488 118.025C119.856 118.025 120.178 118.09 120.453 118.22C120.731 118.347 120.966 118.533 121.158 118.779C121.353 119.021 121.506 119.314 121.618 119.657C121.73 120 121.808 120.389 121.852 120.823V121.322C121.812 121.752 121.734 122.138 121.618 122.482C121.506 122.825 121.353 123.118 121.158 123.36C120.966 123.602 120.731 123.789 120.453 123.919C120.174 124.045 119.849 124.108 119.477 124.108C119.133 124.108 118.819 124.034 118.533 123.886C118.251 123.738 118.007 123.53 117.801 123.263C117.599 122.995 117.442 122.681 117.33 122.319C117.221 121.954 117.167 121.558 117.167 121.132ZM118.176 121.018V121.132C118.176 121.425 118.204 121.699 118.262 121.956C118.324 122.213 118.418 122.438 118.544 122.634C118.671 122.829 118.832 122.982 119.027 123.095C119.222 123.203 119.455 123.257 119.726 123.257C120.059 123.257 120.332 123.187 120.545 123.046C120.762 122.905 120.935 122.719 121.065 122.487C121.195 122.256 121.297 122.005 121.369 121.734V120.427C121.326 120.228 121.262 120.037 121.179 119.852C121.1 119.664 120.995 119.498 120.865 119.353C120.738 119.205 120.581 119.088 120.393 119.001C120.209 118.914 119.99 118.871 119.737 118.871C119.462 118.871 119.226 118.929 119.027 119.044C118.832 119.156 118.671 119.312 118.544 119.511C118.418 119.706 118.324 119.934 118.262 120.194C118.204 120.45 118.176 120.725 118.176 121.018Z" fill="#0E0E0E"/>
<rect x="148" width="20" height="96" rx="10" fill="#F4F4F4"/>
<rect x="148" y="38" width="20" height="58" rx="10" fill="#3E3E3E"/>
<path opacity="0.4" d="M152.399 116.106V124H151.369V116.106H152.399ZM154.937 116.106V116.962H148.837V116.106H154.937ZM156.959 115.672V124H155.956V115.672H156.959ZM156.72 120.844L156.303 120.828C156.307 120.427 156.366 120.056 156.482 119.717C156.598 119.373 156.76 119.075 156.97 118.822C157.179 118.569 157.429 118.374 157.718 118.237C158.011 118.096 158.334 118.025 158.689 118.025C158.978 118.025 159.238 118.065 159.469 118.144C159.701 118.22 159.898 118.343 160.06 118.513C160.227 118.683 160.353 118.903 160.44 119.175C160.527 119.442 160.57 119.769 160.57 120.156V124H159.561V120.145C159.561 119.838 159.516 119.592 159.426 119.408C159.336 119.22 159.204 119.084 159.03 119.001C158.857 118.914 158.643 118.871 158.39 118.871C158.141 118.871 157.913 118.923 157.707 119.028C157.505 119.133 157.329 119.278 157.181 119.462C157.037 119.646 156.923 119.858 156.84 120.096C156.76 120.331 156.72 120.581 156.72 120.844ZM165.661 122.645V118.134H166.67V124H165.71L165.661 122.645ZM165.851 121.408L166.268 121.397C166.268 121.788 166.227 122.149 166.144 122.482C166.064 122.811 165.934 123.096 165.753 123.339C165.573 123.581 165.336 123.77 165.043 123.908C164.75 124.042 164.394 124.108 163.975 124.108C163.689 124.108 163.427 124.067 163.189 123.984C162.954 123.901 162.751 123.772 162.581 123.599C162.412 123.425 162.28 123.199 162.186 122.921C162.095 122.643 162.05 122.308 162.05 121.918V118.134H163.053V121.929C163.053 122.193 163.082 122.411 163.14 122.585C163.201 122.755 163.283 122.89 163.384 122.992C163.489 123.089 163.604 123.158 163.731 123.198C163.861 123.237 163.995 123.257 164.132 123.257C164.559 123.257 164.897 123.176 165.146 123.013C165.395 122.847 165.574 122.625 165.683 122.346C165.795 122.064 165.851 121.752 165.851 121.408Z" fill="#0E0E0E"/>
<rect x="194" width="20" height="96" rx="10" fill="#F4F4F4"/>
<rect x="194" y="15" width="20" height="81" rx="10" fill="#3E3E3E"/>
<path opacity="0.4" d="M199.733 116.106V124H198.687V116.106H199.733ZM203.04 119.657V120.514H199.505V119.657H203.04ZM203.577 116.106V116.962H199.505V116.106H203.577ZM205.534 119.055V124H204.531V118.134H205.507L205.534 119.055ZM207.367 118.101L207.362 119.034C207.278 119.015 207.199 119.005 207.123 119.001C207.051 118.994 206.968 118.99 206.874 118.99C206.642 118.99 206.438 119.026 206.261 119.099C206.084 119.171 205.934 119.272 205.811 119.402C205.688 119.532 205.59 119.688 205.518 119.869C205.449 120.046 205.404 120.241 205.383 120.454L205.101 120.617C205.101 120.263 205.135 119.93 205.204 119.619C205.276 119.308 205.386 119.034 205.534 118.795C205.683 118.553 205.871 118.365 206.098 118.231C206.33 118.094 206.604 118.025 206.922 118.025C206.995 118.025 207.078 118.034 207.172 118.052C207.266 118.067 207.331 118.083 207.367 118.101ZM209.384 118.134V124H208.375V118.134H209.384ZM208.3 116.577C208.3 116.415 208.348 116.277 208.446 116.165C208.547 116.053 208.695 115.997 208.891 115.997C209.082 115.997 209.228 116.053 209.33 116.165C209.435 116.277 209.487 116.415 209.487 116.577C209.487 116.733 209.435 116.867 209.33 116.979C209.228 117.087 209.082 117.141 208.891 117.141C208.695 117.141 208.547 117.087 208.446 116.979C208.348 116.867 208.3 116.733 208.3 116.577Z" fill="#0E0E0E"/>
<rect x="240" width="20" height="96" rx="10" fill="#F4F4F4"/>
<rect x="240" y="52" width="20" height="44" rx="10" fill="#3E3E3E"/>
<path d="M246.991 122.005C246.991 121.82 246.962 121.658 246.904 121.517C246.85 121.372 246.752 121.242 246.611 121.126C246.474 121.011 246.282 120.9 246.037 120.796C245.794 120.691 245.487 120.584 245.115 120.476C244.725 120.36 244.372 120.232 244.058 120.091C243.743 119.946 243.474 119.782 243.25 119.597C243.026 119.413 242.854 119.202 242.735 118.963C242.615 118.725 242.556 118.452 242.556 118.144C242.556 117.837 242.619 117.553 242.746 117.293C242.872 117.033 243.053 116.807 243.288 116.615C243.526 116.42 243.81 116.268 244.139 116.16C244.468 116.052 244.835 115.997 245.24 115.997C245.832 115.997 246.335 116.111 246.747 116.339C247.163 116.563 247.479 116.858 247.696 117.223C247.913 117.584 248.021 117.971 248.021 118.383H246.98C246.98 118.087 246.917 117.824 246.79 117.597C246.664 117.365 246.472 117.185 246.216 117.055C245.959 116.921 245.634 116.854 245.24 116.854C244.867 116.854 244.56 116.91 244.318 117.022C244.076 117.134 243.895 117.286 243.776 117.477C243.66 117.669 243.602 117.888 243.602 118.134C243.602 118.3 243.637 118.452 243.705 118.589C243.777 118.723 243.888 118.847 244.036 118.963C244.188 119.079 244.379 119.185 244.611 119.283C244.846 119.381 245.126 119.475 245.451 119.565C245.899 119.691 246.286 119.832 246.611 119.988C246.937 120.143 247.204 120.319 247.414 120.514C247.627 120.705 247.784 120.924 247.885 121.17C247.99 121.412 248.043 121.687 248.043 121.994C248.043 122.316 247.978 122.607 247.848 122.867C247.717 123.127 247.531 123.349 247.289 123.534C247.047 123.718 246.756 123.861 246.416 123.962C246.08 124.06 245.704 124.108 245.288 124.108C244.923 124.108 244.564 124.058 244.209 123.957C243.859 123.855 243.539 123.704 243.25 123.501C242.964 123.299 242.735 123.049 242.561 122.753C242.391 122.453 242.306 122.106 242.306 121.712H243.347C243.347 121.983 243.4 122.216 243.505 122.411C243.609 122.603 243.752 122.762 243.933 122.889C244.117 123.015 244.325 123.109 244.556 123.17C244.791 123.228 245.035 123.257 245.288 123.257C245.653 123.257 245.963 123.207 246.216 123.105C246.469 123.004 246.66 122.86 246.79 122.672C246.924 122.484 246.991 122.261 246.991 122.005ZM252.684 122.997V119.977C252.684 119.746 252.637 119.545 252.543 119.375C252.452 119.202 252.315 119.068 252.131 118.974C251.946 118.88 251.719 118.833 251.448 118.833C251.195 118.833 250.972 118.876 250.781 118.963C250.593 119.05 250.445 119.164 250.336 119.305C250.231 119.446 250.179 119.597 250.179 119.76H249.176C249.176 119.55 249.23 119.343 249.339 119.137C249.447 118.931 249.602 118.744 249.805 118.578C250.011 118.408 250.257 118.274 250.542 118.177C250.831 118.076 251.153 118.025 251.507 118.025C251.934 118.025 252.31 118.097 252.635 118.242C252.964 118.387 253.221 118.605 253.405 118.898C253.593 119.187 253.687 119.55 253.687 119.988V122.72C253.687 122.916 253.703 123.123 253.736 123.344C253.772 123.564 253.824 123.754 253.893 123.913V124H252.846C252.796 123.884 252.756 123.731 252.727 123.539C252.698 123.344 252.684 123.163 252.684 122.997ZM252.857 120.443L252.868 121.148H251.854C251.569 121.148 251.314 121.172 251.09 121.219C250.866 121.262 250.678 121.329 250.526 121.419C250.374 121.51 250.258 121.623 250.179 121.761C250.099 121.895 250.06 122.052 250.06 122.232C250.06 122.417 250.101 122.585 250.184 122.737C250.267 122.889 250.392 123.01 250.558 123.1C250.728 123.187 250.936 123.23 251.182 123.23C251.489 123.23 251.76 123.165 251.995 123.035C252.23 122.905 252.416 122.746 252.554 122.558C252.695 122.37 252.771 122.187 252.781 122.01L253.21 122.493C253.184 122.645 253.116 122.813 253.004 122.997C252.892 123.181 252.742 123.358 252.554 123.528C252.369 123.695 252.149 123.834 251.892 123.946C251.639 124.054 251.354 124.108 251.036 124.108C250.638 124.108 250.289 124.031 249.989 123.875C249.693 123.72 249.461 123.512 249.295 123.252C249.133 122.988 249.051 122.693 249.051 122.368C249.051 122.054 249.113 121.777 249.236 121.538C249.358 121.296 249.536 121.096 249.767 120.937C249.998 120.774 250.277 120.651 250.602 120.568C250.927 120.485 251.29 120.443 251.692 120.443H252.857ZM257.721 118.134V118.903H254.549V118.134H257.721ZM255.622 116.708H256.626V122.547C256.626 122.746 256.656 122.896 256.718 122.997C256.779 123.098 256.859 123.165 256.956 123.198C257.054 123.23 257.159 123.246 257.271 123.246C257.354 123.246 257.441 123.239 257.531 123.225C257.625 123.207 257.695 123.192 257.742 123.181L257.748 124C257.668 124.025 257.564 124.049 257.433 124.07C257.307 124.096 257.153 124.108 256.973 124.108C256.727 124.108 256.501 124.06 256.295 123.962C256.089 123.864 255.924 123.702 255.801 123.474C255.682 123.243 255.622 122.932 255.622 122.542V116.708Z" fill="#0E0E0E"/>
<rect x="286" width="20" height="96" rx="10" fill="#F4F4F4"/>
<path opacity="0.4" d="M291.695 122.005C291.695 121.82 291.666 121.658 291.608 121.517C291.554 121.372 291.456 121.242 291.316 121.126C291.178 121.011 290.987 120.9 290.741 120.796C290.499 120.691 290.191 120.584 289.819 120.476C289.429 120.36 289.076 120.232 288.762 120.091C288.447 119.946 288.178 119.782 287.954 119.597C287.73 119.413 287.558 119.202 287.439 118.963C287.32 118.725 287.26 118.452 287.26 118.144C287.26 117.837 287.323 117.553 287.45 117.293C287.576 117.033 287.757 116.807 287.992 116.615C288.23 116.42 288.514 116.268 288.843 116.16C289.172 116.052 289.539 115.997 289.944 115.997C290.537 115.997 291.039 116.111 291.451 116.339C291.867 116.563 292.183 116.858 292.4 117.223C292.617 117.584 292.725 117.971 292.725 118.383H291.684C291.684 118.087 291.621 117.824 291.494 117.597C291.368 117.365 291.176 117.185 290.92 117.055C290.663 116.921 290.338 116.854 289.944 116.854C289.571 116.854 289.264 116.91 289.022 117.022C288.78 117.134 288.599 117.286 288.48 117.477C288.364 117.669 288.306 117.888 288.306 118.134C288.306 118.3 288.341 118.452 288.409 118.589C288.482 118.723 288.592 118.847 288.74 118.963C288.892 119.079 289.083 119.185 289.315 119.283C289.55 119.381 289.83 119.475 290.155 119.565C290.603 119.691 290.99 119.832 291.316 119.988C291.641 120.143 291.908 120.319 292.118 120.514C292.331 120.705 292.488 120.924 292.59 121.17C292.694 121.412 292.747 121.687 292.747 121.994C292.747 122.316 292.682 122.607 292.552 122.867C292.422 123.127 292.235 123.349 291.993 123.534C291.751 123.718 291.46 123.861 291.12 123.962C290.784 124.06 290.408 124.108 289.993 124.108C289.627 124.108 289.268 124.058 288.914 123.957C288.563 123.855 288.243 123.704 287.954 123.501C287.668 123.299 287.439 123.049 287.265 122.753C287.095 122.453 287.011 122.106 287.011 121.712H288.052C288.052 121.983 288.104 122.216 288.209 122.411C288.314 122.603 288.456 122.762 288.637 122.889C288.821 123.015 289.029 123.109 289.261 123.17C289.496 123.228 289.74 123.257 289.993 123.257C290.358 123.257 290.667 123.207 290.92 123.105C291.173 123.004 291.364 122.86 291.494 122.672C291.628 122.484 291.695 122.261 291.695 122.005ZM297.518 122.645V118.134H298.527V124H297.567L297.518 122.645ZM297.708 121.408L298.125 121.397C298.125 121.788 298.084 122.149 298.001 122.482C297.921 122.811 297.791 123.096 297.61 123.339C297.43 123.581 297.193 123.77 296.9 123.908C296.607 124.042 296.251 124.108 295.832 124.108C295.546 124.108 295.284 124.067 295.046 123.984C294.811 123.901 294.608 123.772 294.439 123.599C294.269 123.425 294.137 123.199 294.043 122.921C293.952 122.643 293.907 122.308 293.907 121.918V118.134H294.91V121.929C294.91 122.193 294.939 122.411 294.997 122.585C295.058 122.755 295.14 122.89 295.241 122.992C295.346 123.089 295.461 123.158 295.588 123.198C295.718 123.237 295.852 123.257 295.989 123.257C296.416 123.257 296.754 123.176 297.003 123.013C297.252 122.847 297.431 122.625 297.54 122.346C297.652 122.064 297.708 121.752 297.708 121.408ZM301.059 119.386V124H300.056V118.134H301.004L301.059 119.386ZM300.82 120.844L300.403 120.828C300.406 120.427 300.466 120.056 300.581 119.717C300.697 119.373 300.86 119.075 301.069 118.822C301.279 118.569 301.529 118.374 301.818 118.237C302.11 118.096 302.434 118.025 302.788 118.025C303.077 118.025 303.338 118.065 303.569 118.144C303.8 118.22 303.997 118.343 304.16 118.513C304.326 118.683 304.453 118.903 304.539 119.175C304.626 119.442 304.67 119.769 304.67 120.156V124H303.661V120.145C303.661 119.838 303.616 119.592 303.526 119.408C303.435 119.22 303.303 119.084 303.13 119.001C302.956 118.914 302.743 118.871 302.49 118.871C302.241 118.871 302.013 118.923 301.807 119.028C301.604 119.133 301.429 119.278 301.281 119.462C301.136 119.646 301.022 119.858 300.939 120.096C300.86 120.331 300.82 120.581 300.82 120.844Z" fill="#0E0E0E"/>
</svg>
