<svg width="40" height="40" viewBox="0 0 40 40" fill="none" xmlns="http://www.w3.org/2000/svg">
<rect width="40" height="40" rx="16" fill="#323232"/>
<path d="M20.1605 19.62C20.1305 19.62 20.1105 19.62 20.0805 19.62C20.0305 19.61 19.9605 19.61 19.9005 19.62C17.0005 19.53 14.8105 17.25 14.8105 14.44C14.8105 11.58 17.1405 9.25 20.0005 9.25C22.8605 9.25 25.1905 11.58 25.1905 14.44C25.1805 17.25 22.9805 19.53 20.1905 19.62C20.1805 19.62 20.1705 19.62 20.1605 19.62ZM20.0005 10.75C17.9705 10.75 16.3105 12.41 16.3105 14.44C16.3105 16.44 17.8705 18.05 19.8605 18.12C19.9105 18.11 20.0505 18.11 20.1805 18.12C22.1405 18.03 23.6805 16.42 23.6905 14.44C23.6905 12.41 22.0305 10.75 20.0005 10.75Z" fill="#F5F5F5"/>
<path d="M20.1696 30.55C18.2096 30.55 16.2396 30.05 14.7496 29.05C13.3596 28.13 12.5996 26.87 12.5996 25.5C12.5996 24.13 13.3596 22.86 14.7496 21.93C17.7496 19.94 22.6096 19.94 25.5896 21.93C26.9696 22.85 27.7396 24.11 27.7396 25.48C27.7396 26.85 26.9796 28.12 25.5896 29.05C24.0896 30.05 22.1296 30.55 20.1696 30.55ZM15.5796 23.19C14.6196 23.83 14.0996 24.65 14.0996 25.51C14.0996 26.36 14.6296 27.18 15.5796 27.81C18.0696 29.48 22.2696 29.48 24.7596 27.81C25.7196 27.17 26.2396 26.35 26.2396 25.49C26.2396 24.64 25.7096 23.82 24.7596 23.19C22.2696 21.53 18.0696 21.53 15.5796 23.19Z" fill="#F5F5F5"/>
</svg>
